  0
SECTION
  2
HEADER
  9
$ACADVER
  1
AC1015
  9
$ACADMAINTVER
 70
     6
  9
$DWGCODEPAGE
  3
ANSI_936
  9
$INSBASE
 10
0.0
 20
0.0
 30
0.0
  9
$EXTMIN
 10
0.0
 20
0.0
 30
0.0
  9
$EXTMAX
 10
420.0
 20
297.0
 30
0.0
  9
$LIMMIN
 10
0.0
 20
0.0
  9
$LIMMAX
 10
420.0
 20
297.0
  9
$ORTHOMODE
 70
     0
  9
$REGENMODE
 70
     1
  9
$FILLMODE
 70
     1
  9
$QTEXTMODE
 70
     0
  9
$MIRRTEXT
 70
     1
  9
$LTSCALE
 40
1.0
  9
$ATTMODE
 70
     1
  9
$TEXTSIZE
 40
0.2
  9
$TRACEWID
 40
0.05
  9
$TEXTSTYLE
  7
Standard
  9
$CLAYER
  8
0
  9
$CELTYPE
  6
ByLayer
  9
$CECOLOR
 62
   256
  9
$CELTSCALE
 40
25.4
  9
$DISPSILH
 70
     0
  9
$DIMSCALE
 40
1.0
  9
$DIMASZ
 40
0.18
  9
$DIMEXO
 40
0.0625
  9
$DIMDLI
 40
0.38
  9
$DIMRND
 40
0.0
  9
$DIMDLE
 40
0.0
  9
$DIMEXE
 40
0.18
  9
$DIMTP
 40
0.0
  9
$DIMTM
 40
0.0
  9
$DIMTXT
 40
0.18
  9
$DIMCEN
 40
0.09
  9
$DIMTSZ
 40
0.0
  9
$DIMTOL
 70
     0
  9
$DIMLIM
 70
     0
  9
$DIMTIH
 70
     1
  9
$DIMTOH
 70
     1
  9
$DIMSE1
 70
     0
  9
$DIMSE2
 70
     0
  9
$DIMTAD
 70
     0
  9
$DIMZIN
 70
     0
  9
$DIMBLK
  1

  9
$DIMASO
 70
     1
  9
$DIMSHO
 70
     1
  9
$DIMPOST
  1

  9
$DIMAPOST
  1

  9
$DIMALT
 70
     0
  9
$DIMALTD
 70
     2
  9
$DIMALTF
 40
25.4
  9
$DIMLFAC
 40
1.0
  9
$DIMTOFL
 70
     0
  9
$DIMTVP
 40
0.0
  9
$DIMTIX
 70
     0
  9
$DIMSOXD
 70
     0
  9
$DIMSAH
 70
     0
  9
$DIMBLK1
  1

  9
$DIMBLK2
  1

  9
$DIMSTYLE
  2
Standard
  9
$DIMCLRD
 70
     0
  9
$DIMCLRE
 70
     0
  9
$DIMCLRT
 70
     0
  9
$DIMTFAC
 40
1.0
  9
$DIMGAP
 40
0.09
  9
$DIMJUST
 70
     0
  9
$DIMSD1
 70
     0
  9
$DIMSD2
 70
     0
  9
$DIMTOLJ
 70
     1
  9
$DIMTZIN
 70
     0
  9
$DIMALTZ
 70
     0
  9
$DIMALTTZ
 70
     0
  9
$DIMUPT
 70
     0
  9
$DIMDEC
 70
     4
  9
$DIMTDEC
 70
     4
  9
$DIMALTU
 70
     2
  9
$DIMALTTD
 70
     2
  9
$DIMTXSTY
  7
Standard
  9
$DIMAUNIT
 70
     0
  9
$DIMADEC
 70
     0
  9
$DIMALTRND
 40
0.0
  9
$DIMAZIN
 70
     0
  9
$DIMDSEP
 70
    46
  9
$DIMATFIT
 70
     3
  9
$DIMFRAC
 70
     0
  9
$DIMLDRBLK
  1

  9
$DIMLUNIT
 70
     2
  9
$DIMLWD
 70
    -2
  9
$DIMLWE
 70
    -2
  9
$DIMTMOVE
 70
     0
  9
$LUNITS
 70
     2
  9
$LUPREC
 70
     4
  9
$SKETCHINC
 40
0.1
  9
$FILLETRAD
 40
0.5
  9
$AUNITS
 70
     0
  9
$AUPREC
 70
     0
  9
$MENU
  1
.
  9
$ELEVATION
 40
0.0
  9
$PELEVATION
 40
0.0
  9
$THICKNESS
 40
0.0
  9
$LIMCHECK
 70
     0
  9
$CHAMFERA
 40
0.5
  9
$CHAMFERB
 40
0.5
  9
$CHAMFERC
 40
1.0
  9
$CHAMFERD
 40
0.0
  9
$SKPOLY
 70
     0
  9
$TDCREATE
 40
2455971.468387072
  9
$TDUCREATE
 40
2455971.135053738
  9
$TDUPDATE
 40
2455971.468387083
  9
$TDUUPDATE
 40
2455971.13505375
  9
$TDINDWG
 40
0.0000000116
  9
$TDUSRTIMER
 40
0.0000000116
  9
$USRTIMER
 70
     1
  9
$ANGBASE
 50
0.0
  9
$ANGDIR
 70
     0
  9
$PDMODE
 70
     0
  9
$PDSIZE
 40
0.0
  9
$PLINEWID
 40
0.0
  9
$SPLFRAME
 70
     0
  9
$SPLINETYPE
 70
     6
  9
$SPLINESEGS
 70
     8
  9
$HANDSEED
  5
303
  9
$SURFTAB1
 70
     6
  9
$SURFTAB2
 70
     6
  9
$SURFTYPE
 70
     6
  9
$SURFU
 70
     6
  9
$SURFV
 70
     6
  9
$UCSBASE
  2

  9
$UCSNAME
  2

  9
$UCSORG
 10
0.0
 20
0.0
 30
0.0
  9
$UCSXDIR
 10
1.0
 20
0.0
 30
0.0
  9
$UCSYDIR
 10
0.0
 20
1.0
 30
0.0
  9
$UCSORTHOREF
  2

  9
$UCSORTHOVIEW
 70
     0
  9
$UCSORGTOP
 10
0.0
 20
0.0
 30
0.0
  9
$UCSORGBOTTOM
 10
0.0
 20
0.0
 30
0.0
  9
$UCSORGLEFT
 10
0.0
 20
0.0
 30
0.0
  9
$UCSORGRIGHT
 10
0.0
 20
0.0
 30
0.0
  9
$UCSORGFRONT
 10
0.0
 20
0.0
 30
0.0
  9
$UCSORGBACK
 10
0.0
 20
0.0
 30
0.0
  9
$PUCSBASE
  2

  9
$PUCSNAME
  2

  9
$PUCSORG
 10
0.0
 20
0.0
 30
0.0
  9
$PUCSXDIR
 10
1.0
 20
0.0
 30
0.0
  9
$PUCSYDIR
 10
0.0
 20
1.0
 30
0.0
  9
$PUCSORTHOREF
  2

  9
$PUCSORTHOVIEW
 70
     0
  9
$PUCSORGTOP
 10
0.0
 20
0.0
 30
0.0
  9
$PUCSORGBOTTOM
 10
0.0
 20
0.0
 30
0.0
  9
$PUCSORGLEFT
 10
0.0
 20
0.0
 30
0.0
  9
$PUCSORGRIGHT
 10
0.0
 20
0.0
 30
0.0
  9
$PUCSORGFRONT
 10
0.0
 20
0.0
 30
0.0
  9
$PUCSORGBACK
 10
0.0
 20
0.0
 30
0.0
  9
$USERI1
 70
     0
  9
$USERI2
 70
     0
  9
$USERI3
 70
     0
  9
$USERI4
 70
     0
  9
$USERI5
 70
     0
  9
$USERR1
 40
0.0
  9
$USERR2
 40
0.0
  9
$USERR3
 40
0.0
  9
$USERR4
 40
0.0
  9
$USERR5
 40
0.0
  9
$WORLDVIEW
 70
     1
  9
$SHADEDGE
 70
     3
  9
$SHADEDIF
 70
    70
  9
$TILEMODE
 70
     1
  9
$MAXACTVP
 70
    64
  9
$PINSBASE
 10
0.0
 20
0.0
 30
0.0
  9
$PLIMCHECK
 70
     0
  9
$PEXTMIN
 10
0.0
 20
0.0
 30
0.0
  9
$PEXTMAX
 10
420.0
 20
297.0
 30
0.0
  9
$PLIMMIN
 10
0.0
 20
0.0
  9
$PLIMMAX
 10
420.0
 20
297.0
  9
$UNITMODE
 70
     0
  9
$VISRETAIN
 70
     1
  9
$PLINEGEN
 70
     0
  9
$PSLTSCALE
 70
     1
  9
$TREEDEPTH
 70
  3020
  9
$CMLSTYLE
  2
Standard
  9
$CMLJUST
 70
     0
  9
$CMLSCALE
 40
1.0
  9
$PROXYGRAPHICS
 70
     1
  9
$MEASUREMENT
 70
     1
  9
$CELWEIGHT
370
    -1
  9
$ENDCAPS
280
     0
  9
$JOINSTYLE
280
     0
  9
$LWDISPLAY
290
     0
  9
$INSUNITS
 70
     1
  9
$HYPERLINKBASE
  1

  9
$STYLESHEET
  1

  9
$XEDIT
290
     1
  9
$CEPSNTYPE
380
     0
  9
$PSTYLEMODE
290
     1
  9
$FINGERPRINTGUID
  2
{F7FE2386-C9FD-42B8-9FD0-AB6C4B6E5B99}
  9
$VERSIONGUID
  2
{FAEB1C32-E019-11D5-929B-00C0DF256EC4}
  9
$EXTNAMES
290
     1
  9
$PSVPSCALE
 40
0.0
  9
$OLESTARTUP
290
     0
  0
ENDSEC
  0
SECTION
  2
CLASSES
  0
CLASS
  1
ACDBDICTIONARYWDFLT
  2
AcDbDictionaryWithDefault
  3
ObjectDBX Classes
 90
        0
280
     0
281
     0
  0
CLASS
  1
ACDBPLACEHOLDER
  2
AcDbPlaceHolder
  3
ObjectDBX Classes
 90
        0
280
     0
281
     0
  0
CLASS
  1
LAYOUT
  2
AcDbLayout
  3
ObjectDBX Classes
 90
        0
280
     0
281
     0
  0
ENDSEC
  0
SECTION
  2
TABLES
  0
TABLE
  2
VPORT
  5
8
330
0
100
AcDbSymbolTable
 70
     1
  0
VPORT
  5
29
330
8
100
AcDbSymbolTableRecord
100
AcDbViewportTableRecord
  2
*Active
 70
     0
 10
0.0
 20
0.0
 11
1.0
 21
1.0
 12
10.4299065421
 22
4.5
 13
0.0
 23
0.0
 14
0.5
 24
0.5
 15
0.5
 25
0.5
 16
0.0
 26
0.0
 36
1.0
 17
0.0
 27
0.0
 37
0.0
 40
9.0
 41
1.9729729729
 42
50.0
 43
0.0
 44
0.0
 50
0.0
 51
0.0
 71
     0
 72
   100
 73
     1
 74
     3
 75
     0
 76
     0
 77
     0
 78
     0
281
     0
 65
     1
110
0.0
120
0.0
130
0.0
111
1.0
121
0.0
131
0.0
112
0.0
122
1.0
132
0.0
 79
     0
146
0.0
  0
ENDTAB
  0
TABLE
  2
LTYPE
  5
5
330
0
100
AcDbSymbolTable
 70
     2
  0
LTYPE
  5
14
330
5
100
AcDbSymbolTableRecord
100
AcDbLinetypeTableRecord
  2
ByBlock
 70
     0
  3

 72
    65
 73
     0
 40
0.0
  0
LTYPE
  5
15
330
5
100
AcDbSymbolTableRecord
100
AcDbLinetypeTableRecord
  2
ByLayer
 70
     0
  3

 72
    65
 73
     0
 40
0.0
  0
LTYPE
  5
16
330
5
100
AcDbSymbolTableRecord
100
AcDbLinetypeTableRecord
  2
Continuous
 70
     0
  3
Solid line
 72
    65
 73
     0
 40
0.0
  0
LTYPE
  5
1F2
330
5
100
AcDbSymbolTableRecord
100
AcDbLinetypeTableRecord
  2
CENTER2
 70
     0
  3
___ _ ___ _ ___ _ ___ _ ___ _ ___ _ ___ _ ___ _
 72
    65
 73
     4
 40
1.125
 49
0.75
 74
     4
 75
     0
340
0
 46
0.0
 50
0.0
 44
0.0
 45
0.0
 49
-0.125
 74
     4
 75
     0
340
0
 46
0.0
 50
0.0
 44
0.0
 45
0.0
 49
0.125
 74
     4
 75
     0
340
0
 46
0.0
 50
0.0
 44
0.0
 45
0.0
 49
-0.125
 74
     4
 75
     0
340
0
 46
0.0
 50
0.0
 44
0.0
 45
0.0
  0
ENDTAB
  0
TABLE
  2
LAYER
  5
2
330
0
100
AcDbSymbolTable
 70
     4
  0
LAYER
  5
10
330
2
100
AcDbSymbolTableRecord
100
AcDbLayerTableRecord
  2
0
 70
     0
 62
     7
  6
Continuous
370
    -3
390
F
  0
LAYER
  5
2C
330
2
100
AcDbSymbolTableRecord
100
AcDbLayerTableRecord
  2
Default
 70
     0
 62
     7
  6
Continuous
370
    -3
390
F
  0
LAYER
  5
73
330
2
100
AcDbSymbolTableRecord
100
AcDbLayerTableRecord
  2
DV1_Default
 70
     0
 62
     7
  6
Continuous
370
    -3
390
F
  0
LAYER
  5
1F6
330
2
100
AcDbSymbolTableRecord
100
AcDbLayerTableRecord
  2
DV2_Default
 70
     0
 62
     7
  6
Continuous
370
    -3
390
F
  0
ENDTAB
  0
TABLE
  2
STYLE
  5
3
330
0
100
AcDbSymbolTable
 70
     2
  0
STYLE
  5
11
330
3
100
AcDbSymbolTableRecord
100
AcDbTextStyleTableRecord
  2
Standard
 70
     0
 40
0.0
 41
1.0
 50
0.0
 71
     0
 42
0.2
  3
txt
  4

  0
STYLE
  5
2A
330
3
100
AcDbSymbolTableRecord
100
AcDbTextStyleTableRecord
  2
SEACAD_arial_ttf
 70
     0
 40
0.2
 41
1.0
 50
0.0
 71
     0
 42
0.2
  3
arial.ttf
  4

  0
ENDTAB
  0
TABLE
  2
VIEW
  5
6
330
0
100
AcDbSymbolTable
 70
     0
  0
ENDTAB
  0
TABLE
  2
UCS
  5
7
330
0
100
AcDbSymbolTable
 70
     0
  0
ENDTAB
  0
TABLE
  2
APPID
  5
9
330
0
100
AcDbSymbolTable
 70
     1
  0
APPID
  5
12
330
9
100
AcDbSymbolTableRecord
100
AcDbRegAppTableRecord
  2
ACAD
 70
     0
  0
ENDTAB
  0
TABLE
  2
DIMSTYLE
  5
A
330
0
100
AcDbSymbolTable
 70
     1
100
AcDbDimStyleTable
  0
DIMSTYLE
105
27
330
A
100
AcDbSymbolTableRecord
100
AcDbDimStyleTableRecord
  2
Standard
 70
     0
340
11
  0
ENDTAB
  0
TABLE
  2
BLOCK_RECORD
  5
1
330
0
100
AcDbSymbolTable
 70
     3
  0
BLOCK_RECORD
  5
1F
330
1
100
AcDbSymbolTableRecord
100
AcDbBlockTableRecord
  2
*Model_Space
340
22
  0
BLOCK_RECORD
  5
1B
330
1
100
AcDbSymbolTableRecord
100
AcDbBlockTableRecord
  2
*Paper_Space
340
1E
  0
BLOCK_RECORD
  5
71
330
1
100
AcDbSymbolTableRecord
100
AcDbBlockTableRecord
  2
SE
340
0
102
{BLKREFS
331
72
102
}
  0
BLOCK_RECORD
  5
1F4
330
1
100
AcDbSymbolTableRecord
100
AcDbBlockTableRecord
  2
SE1
340
0
102
{BLKREFS
331
1F5
102
}
  0
ENDTAB
  0
ENDSEC
  0
SECTION
  2
BLOCKS
  0
BLOCK
  5
20
330
1F
100
AcDbEntity
  8
0
100
AcDbBlockBegin
  2
*Model_Space
 70
     0
 71
     0
 10
0.0
 20
0.0
 30
0.0
  3
*Model_Space
  1

  0
ENDBLK
  5
21
330
1F
100
AcDbEntity
  8
0
100
AcDbBlockEnd
  0
BLOCK
  5
1C
330
1B
100
AcDbEntity
 67
     1
  8
0
100
AcDbBlockBegin
  2
*Paper_Space
 70
     0
 71
     0
 10
0.0
 20
0.0
 30
0.0
  3
*Paper_Space
  1

  0
ENDBLK
  5
1D
330
1B
100
AcDbEntity
 67
     1
  8
0
100
AcDbBlockEnd
  0
BLOCK
  5
1F0
330
71
100
AcDbEntity
  8
0
100
AcDbBlockBegin
  2
SE
 70
     0
 71
     0
 10
0.0
 20
0.0
 30
0.0
  3
SE
  1

  0
LINE
  5
74
330
71
100
AcDbEntity
  8
DV1_Default
  6
Continuous
 62
     7
 48
25.4
100
AcDbLine
 10
45.7420736171
 20
237.1830345739
 30
0.0
 11
45.7420736171
 21
237.4606155674
 31
0.0
  0
SPLINE
  5
75
330
71
100
AcDbEntity
  8
DV1_Default
  6
Continuous
 62
     7
 48
25.4
100
AcDbSpline
210
0.0
220
0.0
230
1.0
 70
     8
 71
     3
 72
    11
 73
     7
 74
     0
 42
0.0000000112264322
 43
0.0000000001
 40
0.0
 40
0.0
 40
0.0
 40
0.0
 40
0.475386363159494
 40
0.475386363159494
 40
0.475386363159494
 40
1.0
 40
1.0
 40
1.0
 40
1.0
 10
45.74207361713385
 20
237.4606155674309
 30
0.0
 10
45.61222480503881
 20
237.490939541513
 30
0.0
 10
45.47304553938007
 20
237.5064902974525
 30
0.0
 10
45.32298074456365
 20
237.5064902974525
 30
0.0
 10
45.14025936227421
 20
237.5064902974525
 30
0.0
 10
44.99408225644267
 20
237.4676134076037
 30
0.0
 10
44.88522696486599
 20
237.3906371657031
 30
0.0
  0
SPLINE
  5
76
330
71
100
AcDbEntity
  8
DV1_Default
  6
Continuous
 62
     7
 48
25.4
100
AcDbSpline
210
0.0
220
0.0
230
1.0
 70
     8
 71
     3
 72
    11
 73
     7
 74
     0
 42
0.0000000103094114
 43
0.0000000001
 40
0.0
 40
0.0
 40
0.0
 40
0.0
 40
0.4036833596800508
 40
0.4036833596800508
 40
0.4036833596800508
 40
1.0
 40
1.0
 40
1.0
 40
1.0
 10
44.88522696486599
 20
237.3906371657031
 30
0.0
 10
44.77559413549238
 20
237.3128833860054
 30
0.0
 10
44.72116648970407
 20
237.2055831700227
 30
0.0
 10
44.72116648970407
 20
237.0687365177549
 30
0.0
 10
44.72116648970407
 20
236.900788353608
 30
0.0
 10
44.82924424348377
 20
236.7662743147311
 30
0.0
 10
45.04462221324617
 20
236.6651944011242
 30
0.0
  0
LINE
  5
77
330
71
100
AcDbEntity
  8
DV1_Default
  6
Continuous
 62
     7
 48
25.4
100
AcDbLine
 10
45.0446222132
 20
236.6651944011
 30
0.0
 11
45.3385315005
 21
236.535345589
 31
0.0
  0
SPLINE
  5
78
330
71
100
AcDbEntity
  8
DV1_Default
  6
Continuous
 62
     7
 48
25.4
100
AcDbSpline
210
0.0
220
0.0
230
1.0
 70
     8
 71
     3
 72
    14
 73
    10
 74
     0
 42
0.0000000099784299
 43
0.0000000001
 40
0.0
 40
0.0
 40
0.0
 40
0.0
 40
0.3549747189944721
 40
0.3549747189944721
 40
0.3549747189944721
 40
0.9953468218477174
 40
0.9953468218477174
 40
0.9953468218477174
 40
1.0
 40
1.0
 40
1.0
 40
1.0
 10
45.33853150050321
 20
236.5353455890292
 30
0.0
 10
45.41473020460687
 20
236.507354228338
 30
0.0
 10
45.4528295566587
 20
236.4638121117074
 30
0.0
 10
45.4528295566587
 20
236.4054967769341
 30
0.0
 10
45.4528295566587
 20
236.3191900814698
 30
0.0
 10
45.36652286119428
 20
236.2764255026361
 30
0.0
 10
45.1931319324686
 20
236.2764255026361
 30
0.0
 10
45.08427664089191
 20
236.2764255026361
 30
0.0
 10
44.93809953506039
 20
236.3044168633272
 30
0.0
 10
44.75537815277102
 20
236.3603995847095
 30
0.0
  0
LINE
  5
79
330
71
100
AcDbEntity
  8
DV1_Default
  6
Continuous
 62
     7
 48
25.4
100
AcDbLine
 10
44.7553781528
 20
236.3603995847
 30
0.0
 11
44.7553781528
 21
236.0664902975
 31
0.0
  0
SPLINE
  5
7A
330
71
100
AcDbEntity
  8
DV1_Default
  6
Continuous
 62
     7
 48
25.4
100
AcDbSpline
210
0.0
220
0.0
230
1.0
 70
     8
 71
     3
 72
    20
 73
    16
 74
     0
 42
0.0000000050624999
 43
0.0000000001
 40
0.0
 40
0.0
 40
0.0
 40
0.0
 40
0.5262277334481107
 40
0.5262277334481107
 40
0.5262277334481107
 40
0.9845246311595494
 40
0.9845246311595494
 40
0.9845246311595494
 40
0.9896096418915601
 40
0.9896096418915601
 40
0.9896096418915601
 40
0.9938291135632761
 40
0.9938291135632761
 40
0.9938291135632761
 40
1.0
 40
1.0
 40
1.0
 40
1.0
 10
44.75537815277102
 20
236.0664902974526
 30
0.0
 10
44.83157685687468
 20
236.05171707931
 30
0.0
 10
44.91477340115112
 20
236.0369438611674
 30
0.0
 10
45.00496778560036
 20
236.0229481808219
 30
0.0
 10
45.09516217004958
 20
236.0089525004763
 30
0.0
 10
45.16825072296535
 20
236.0019546603035
 30
0.0
 10
45.22423344434765
 20
236.0019546603035
 30
0.0
 10
45.41706281799777
 20
236.0019546603035
 30
0.0
 10
45.57101530179908
 20
236.0447192391372
 30
0.0
 10
45.68531335795457
 20
236.1310259346016
 30
0.0
 10
45.79961141411006
 20
236.2173326300659
 30
0.0
 10
45.85637167328934
 20
236.3308531484244
 30
0.0
 10
45.85637167328934
 20
236.4700324140832
 30
0.0
 10
45.85637167328934
 20
236.6504211829817
 30
0.0
 10
45.74829391950965
 20
236.7911555242344
 30
0.0
 10
45.53291594974725
 20
236.8930129756383
 30
0.0
  0
LINE
  5
7B
330
71
100
AcDbEntity
  8
DV1_Default
  6
Continuous
 62
     7
 48
25.4
100
AcDbLine
 10
45.5329159497
 20
236.8930129756
 30
0.0
 11
45.2732183256
 21
237.0073110318
 31
0.0
  0
SPLINE
  5
7C
330
71
100
AcDbEntity
  8
DV1_Default
  6
Continuous
 62
     7
 48
25.4
100
AcDbSpline
210
0.0
220
0.0
230
1.0
 70
     8
 71
     3
 72
     8
 73
     4
 74
     0
 42
0.0000000767250149
 43
0.0000000001
 40
0.0
 40
0.0
 40
0.0
 40
0.0
 40
1.0
 40
1.0
 40
1.0
 40
1.0
 10
45.27321832555715
 20
237.0073110317938
 30
0.0
 10
45.21723560417486
 20
237.0298596279061
 30
0.0
 10
45.17913625212302
 20
237.0508531484244
 30
0.0
 10
45.15892026940166
 20
237.067958979958
 30
0.0
  0
SPLINE
  5
7D
330
71
100
AcDbEntity
  8
DV1_Default
  6
Continuous
 62
     7
 48
25.4
100
AcDbSpline
210
0.0
220
0.0
230
1.0
 70
     8
 71
     3
 72
    14
 73
    10
 74
     0
 42
0.0000000170958979
 43
0.0000000001
 40
0.0
 40
0.0
 40
0.0
 40
0.0
 40
0.2070983570949247
 40
0.2070983570949247
 40
0.2070983570949247
 40
0.9979470223159466
 40
0.9979470223159466
 40
0.9979470223159466
 40
1.0
 40
1.0
 40
1.0
 40
1.0
 10
45.15892026940166
 20
237.067958979958
 30
0.0
 10
45.13870428668029
 20
237.0858423492884
 30
0.0
 10
45.12859629531961
 20
237.1091684831977
 30
0.0
 10
45.12859629531961
 20
237.1371598438888
 30
0.0
 10
45.12859629531961
 20
237.2110259346016
 30
0.0
 10
45.20323992382928
 20
237.2475702110594
 30
0.0
 10
45.3533047186457
 20
237.2475702110594
 30
0.0
 10
45.42483819596755
 20
237.2475702110594
 30
0.0
 10
45.49015137091354
 20
237.2429049842775
 30
0.0
 10
45.55002178128072
 20
237.2343520685108
 30
0.0
  0
SPLINE
  5
7E
330
71
100
AcDbEntity
  8
DV1_Default
  6
Continuous
 62
     7
 48
25.4
100
AcDbSpline
210
0.0
220
0.0
230
1.0
 70
     8
 71
     3
 72
     8
 73
     4
 74
     0
 42
0.0000000501514771
 43
0.0000000001
 40
0.0
 40
0.0
 40
0.0
 40
0.0
 40
1.0
 40
1.0
 40
1.0
 40
1.0
 10
45.55002178128072
 20
237.2343520685108
 30
0.0
 10
45.60911465385091
 20
237.2250216149471
 30
0.0
 10
45.6736502909999
 20
237.2079157834136
 30
0.0
 10
45.74207361713385
 20
237.1830345739104
 30
0.0
  0
LINE
  5
7F
330
71
100
AcDbEntity
  8
DV1_Default
  6
Continuous
 62
     7
 48
25.4
100
AcDbLine
 10
46.4885099022
 20
236.0361663234
 30
0.0
 11
46.4885099022
 21
237.4761663234
 31
0.0
  0
LINE
  5
80
330
71
100
AcDbEntity
  8
DV1_Default
  6
Continuous
 62
     7
 48
25.4
100
AcDbLine
 10
46.4885099022
 20
237.4761663234
 30
0.0
 11
46.0663068785
 21
237.4761663234
 31
0.0
  0
LINE
  5
81
330
71
100
AcDbEntity
  8
DV1_Default
  6
Continuous
 62
     7
 48
25.4
100
AcDbLine
 10
46.0663068785
 20
237.4761663234
 30
0.0
 11
46.0663068785
 21
236.0361663234
 31
0.0
  0
LINE
  5
82
330
71
100
AcDbEntity
  8
DV1_Default
  6
Continuous
 62
     7
 48
25.4
100
AcDbLine
 10
46.0663068785
 20
236.0361663234
 30
0.0
 11
46.4885099022
 21
236.0361663234
 31
0.0
  0
LINE
  5
83
330
71
100
AcDbEntity
  8
DV1_Default
  6
Continuous
 62
     7
 48
25.4
100
AcDbLine
 10
47.8981859281
 20
237.217246237
 30
0.0
 11
47.8981859281
 21
237.4761663234
 31
0.0
  0
LINE
  5
84
330
71
100
AcDbEntity
  8
DV1_Default
  6
Continuous
 62
     7
 48
25.4
100
AcDbLine
 10
47.8981859281
 20
237.4761663234
 30
0.0
 11
46.8275163817
 21
237.4761663234
 31
0.0
  0
LINE
  5
85
330
71
100
AcDbEntity
  8
DV1_Default
  6
Continuous
 62
     7
 48
25.4
100
AcDbLine
 10
46.8275163817
 20
237.4761663234
 30
0.0
 11
46.8275163817
 21
236.0361663234
 31
0.0
  0
LINE
  5
86
330
71
100
AcDbEntity
  8
DV1_Default
  6
Continuous
 62
     7
 48
25.4
100
AcDbLine
 10
46.8275163817
 20
236.0361663234
 30
0.0
 11
47.8981859281
 21
236.0361663234
 31
0.0
  0
LINE
  5
87
330
71
100
AcDbEntity
  8
DV1_Default
  6
Continuous
 62
     7
 48
25.4
100
AcDbLine
 10
47.8981859281
 20
236.0361663234
 30
0.0
 11
47.8981859281
 21
236.3067494767
 31
0.0
  0
LINE
  5
88
330
71
100
AcDbEntity
  8
DV1_Default
  6
Continuous
 62
     7
 48
25.4
100
AcDbLine
 10
47.8981859281
 20
236.3067494767
 30
0.0
 11
47.2504969433
 21
236.3067494767
 31
0.0
  0
LINE
  5
89
330
71
100
AcDbEntity
  8
DV1_Default
  6
Continuous
 62
     7
 48
25.4
100
AcDbLine
 10
47.2504969433
 20
236.3067494767
 30
0.0
 11
47.2504969433
 21
236.6496436452
 31
0.0
  0
LINE
  5
8A
330
71
100
AcDbEntity
  8
DV1_Default
  6
Continuous
 62
     7
 48
25.4
100
AcDbLine
 10
47.2504969433
 20
236.6496436452
 30
0.0
 11
47.8149893839
 21
236.6496436452
 31
0.0
  0
LINE
  5
8B
330
71
100
AcDbEntity
  8
DV1_Default
  6
Continuous
 62
     7
 48
25.4
100
AcDbLine
 10
47.8149893839
 20
236.6496436452
 30
0.0
 11
47.8149893839
 21
236.8930129756
 31
0.0
  0
LINE
  5
8C
330
71
100
AcDbEntity
  8
DV1_Default
  6
Continuous
 62
     7
 48
25.4
100
AcDbLine
 10
47.8149893839
 20
236.8930129756
 30
0.0
 11
47.2504969433
 21
236.8930129756
 31
0.0
  0
LINE
  5
8D
330
71
100
AcDbEntity
  8
DV1_Default
  6
Continuous
 62
     7
 48
25.4
100
AcDbLine
 10
47.2504969433
 20
236.8930129756
 30
0.0
 11
47.2504969433
 21
237.217246237
 31
0.0
  0
LINE
  5
8E
330
71
100
AcDbEntity
  8
DV1_Default
  6
Continuous
 62
     7
 48
25.4
100
AcDbLine
 10
47.2504969433
 20
237.217246237
 30
0.0
 11
47.8981859281
 21
237.217246237
 31
0.0
  0
LINE
  5
8F
330
71
100
AcDbEntity
  8
DV1_Default
  6
Continuous
 62
     7
 48
25.4
100
AcDbLine
 10
49.9368900318
 20
236.0361663234
 30
0.0
 11
49.9368900318
 21
237.4761663234
 31
0.0
  0
LINE
  5
90
330
71
100
AcDbEntity
  8
DV1_Default
  6
Continuous
 62
     7
 48
25.4
100
AcDbLine
 10
49.9368900318
 20
237.4761663234
 30
0.0
 11
49.4182723212
 21
237.4761663234
 31
0.0
  0
LINE
  5
91
330
71
100
AcDbEntity
  8
DV1_Default
  6
Continuous
 62
     7
 48
25.4
100
AcDbLine
 10
49.4182723212
 20
237.4761663234
 30
0.0
 11
49.0450541787
 21
236.5998812262
 31
0.0
  0
LINE
  5
92
330
71
100
AcDbEntity
  8
DV1_Default
  6
Continuous
 62
     7
 48
25.4
100
AcDbLine
 10
49.0450541787
 20
236.5998812262
 30
0.0
 11
48.6757237251
 21
237.4761663234
 31
0.0
  0
LINE
  5
93
330
71
100
AcDbEntity
  8
DV1_Default
  6
Continuous
 62
     7
 48
25.4
100
AcDbLine
 10
48.6757237251
 20
237.4761663234
 30
0.0
 11
48.1532183256
 21
237.4761663234
 31
0.0
  0
LINE
  5
94
330
71
100
AcDbEntity
  8
DV1_Default
  6
Continuous
 62
     7
 48
25.4
100
AcDbLine
 10
48.1532183256
 20
237.4761663234
 30
0.0
 11
48.1532183256
 21
236.0361663234
 31
0.0
  0
LINE
  5
95
330
71
100
AcDbEntity
  8
DV1_Default
  6
Continuous
 62
     7
 48
25.4
100
AcDbLine
 10
48.1532183256
 20
236.0361663234
 30
0.0
 11
48.4315768569
 21
236.0361663234
 31
0.0
  0
LINE
  5
96
330
71
100
AcDbEntity
  8
DV1_Default
  6
Continuous
 62
     7
 48
25.4
100
AcDbLine
 10
48.4315768569
 20
236.0361663234
 30
0.0
 11
48.4315768569
 21
236.9886501247
 31
0.0
  0
LINE
  5
97
330
71
100
AcDbEntity
  8
DV1_Default
  6
Continuous
 62
     7
 48
25.4
100
AcDbLine
 10
48.4315768569
 20
236.9886501247
 30
0.0
 11
48.8358965113
 21
236.0361663234
 31
0.0
  0
LINE
  5
98
330
71
100
AcDbEntity
  8
DV1_Default
  6
Continuous
 62
     7
 48
25.4
100
AcDbLine
 10
48.8358965113
 20
236.0361663234
 30
0.0
 11
49.1095898158
 21
236.0361663234
 31
0.0
  0
LINE
  5
99
330
71
100
AcDbEntity
  8
DV1_Default
  6
Continuous
 62
     7
 48
25.4
100
AcDbLine
 10
49.1095898158
 20
236.0361663234
 30
0.0
 11
49.5177971593
 21
236.9886501247
 31
0.0
  0
LINE
  5
9A
330
71
100
AcDbEntity
  8
DV1_Default
  6
Continuous
 62
     7
 48
25.4
100
AcDbLine
 10
49.5177971593
 20
236.9886501247
 30
0.0
 11
49.5177971593
 21
236.0361663234
 31
0.0
  0
LINE
  5
9B
330
71
100
AcDbEntity
  8
DV1_Default
  6
Continuous
 62
     7
 48
25.4
100
AcDbLine
 10
49.5177971593
 20
236.0361663234
 30
0.0
 11
49.9368900318
 21
236.0361663234
 31
0.0
  0
LINE
  5
9C
330
71
100
AcDbEntity
  8
DV1_Default
  6
Continuous
 62
     7
 48
25.4
100
AcDbLine
 10
51.3271276128
 20
237.217246237
 30
0.0
 11
51.3271276128
 21
237.4761663234
 31
0.0
  0
LINE
  5
9D
330
71
100
AcDbEntity
  8
DV1_Default
  6
Continuous
 62
     7
 48
25.4
100
AcDbLine
 10
51.3271276128
 20
237.4761663234
 30
0.0
 11
50.2603457554
 21
237.4761663234
 31
0.0
  0
LINE
  5
9E
330
71
100
AcDbEntity
  8
DV1_Default
  6
Continuous
 62
     7
 48
25.4
100
AcDbLine
 10
50.2603457554
 20
237.4761663234
 30
0.0
 11
50.2603457554
 21
236.0361663234
 31
0.0
  0
LINE
  5
9F
330
71
100
AcDbEntity
  8
DV1_Default
  6
Continuous
 62
     7
 48
25.4
100
AcDbLine
 10
50.2603457554
 20
236.0361663234
 30
0.0
 11
51.3465660577
 21
236.0361663234
 31
0.0
  0
LINE
  5
A0
330
71
100
AcDbEntity
  8
DV1_Default
  6
Continuous
 62
     7
 48
25.4
100
AcDbLine
 10
51.3465660577
 20
236.0361663234
 30
0.0
 11
51.3465660577
 21
236.3067494767
 31
0.0
  0
LINE
  5
A1
330
71
100
AcDbEntity
  8
DV1_Default
  6
Continuous
 62
     7
 48
25.4
100
AcDbLine
 10
51.3465660577
 20
236.3067494767
 30
0.0
 11
50.6794386279
 21
236.3067494767
 31
0.0
  0
LINE
  5
A2
330
71
100
AcDbEntity
  8
DV1_Default
  6
Continuous
 62
     7
 48
25.4
100
AcDbLine
 10
50.6794386279
 20
236.3067494767
 30
0.0
 11
50.6794386279
 21
236.6496436452
 31
0.0
  0
LINE
  5
A3
330
71
100
AcDbEntity
  8
DV1_Default
  6
Continuous
 62
     7
 48
25.4
100
AcDbLine
 10
50.6794386279
 20
236.6496436452
 30
0.0
 11
51.2478187575
 21
236.6496436452
 31
0.0
  0
LINE
  5
A4
330
71
100
AcDbEntity
  8
DV1_Default
  6
Continuous
 62
     7
 48
25.4
100
AcDbLine
 10
51.2478187575
 20
236.6496436452
 30
0.0
 11
51.2478187575
 21
236.8930129756
 31
0.0
  0
LINE
  5
A5
330
71
100
AcDbEntity
  8
DV1_Default
  6
Continuous
 62
     7
 48
25.4
100
AcDbLine
 10
51.2478187575
 20
236.8930129756
 30
0.0
 11
50.6794386279
 21
236.8930129756
 31
0.0
  0
LINE
  5
A6
330
71
100
AcDbEntity
  8
DV1_Default
  6
Continuous
 62
     7
 48
25.4
100
AcDbLine
 10
50.6794386279
 20
236.8930129756
 30
0.0
 11
50.6794386279
 21
237.217246237
 31
0.0
  0
LINE
  5
A7
330
71
100
AcDbEntity
  8
DV1_Default
  6
Continuous
 62
     7
 48
25.4
100
AcDbLine
 10
50.6794386279
 20
237.217246237
 30
0.0
 11
51.3271276128
 21
237.217246237
 31
0.0
  0
LINE
  5
A8
330
71
100
AcDbEntity
  8
DV1_Default
  6
Continuous
 62
     7
 48
25.4
100
AcDbLine
 10
52.8511016949
 20
236.0361663234
 30
0.0
 11
52.8511016949
 21
237.4761663234
 31
0.0
  0
LINE
  5
A9
330
71
100
AcDbEntity
  8
DV1_Default
  6
Continuous
 62
     7
 48
25.4
100
AcDbLine
 10
52.8511016949
 20
237.4761663234
 30
0.0
 11
52.5735207014
 21
237.4761663234
 31
0.0
  0
LINE
  5
AA
330
71
100
AcDbEntity
  8
DV1_Default
  6
Continuous
 62
     7
 48
25.4
100
AcDbLine
 10
52.5735207014
 20
237.4761663234
 30
0.0
 11
52.5735207014
 21
236.5695572521
 31
0.0
  0
LINE
  5
AB
330
71
100
AcDbEntity
  8
DV1_Default
  6
Continuous
 62
     7
 48
25.4
100
AcDbLine
 10
52.5735207014
 20
236.5695572521
 30
0.0
 11
52.0549029908
 21
237.4761663234
 31
0.0
  0
LINE
  5
AC
330
71
100
AcDbEntity
  8
DV1_Default
  6
Continuous
 62
     7
 48
25.4
100
AcDbLine
 10
52.0549029908
 20
237.4761663234
 30
0.0
 11
51.586825237
 21
237.4761663234
 31
0.0
  0
LINE
  5
AD
330
71
100
AcDbEntity
  8
DV1_Default
  6
Continuous
 62
     7
 48
25.4
100
AcDbLine
 10
51.586825237
 20
237.4761663234
 30
0.0
 11
51.586825237
 21
236.0361663234
 31
0.0
  0
LINE
  5
AE
330
71
100
AcDbEntity
  8
DV1_Default
  6
Continuous
 62
     7
 48
25.4
100
AcDbLine
 10
51.586825237
 20
236.0361663234
 30
0.0
 11
51.8799569865
 21
236.0361663234
 31
0.0
  0
LINE
  5
AF
330
71
100
AcDbEntity
  8
DV1_Default
  6
Continuous
 62
     7
 48
25.4
100
AcDbLine
 10
51.8799569865
 20
236.0361663234
 30
0.0
 11
51.8799569865
 21
236.9544384616
 31
0.0
  0
LINE
  5
B0
330
71
100
AcDbEntity
  8
DV1_Default
  6
Continuous
 62
     7
 48
25.4
100
AcDbLine
 10
51.8799569865
 20
236.9544384616
 30
0.0
 11
52.3977971593
 21
236.0361663234
 31
0.0
  0
LINE
  5
B1
330
71
100
AcDbEntity
  8
DV1_Default
  6
Continuous
 62
     7
 48
25.4
100
AcDbLine
 10
52.3977971593
 20
236.0361663234
 30
0.0
 11
52.8511016949
 21
236.0361663234
 31
0.0
  0
LINE
  5
B2
330
71
100
AcDbEntity
  8
DV1_Default
  6
Continuous
 62
     7
 48
25.4
100
AcDbLine
 10
54.1130455394
 20
237.1830345739
 30
0.0
 11
54.1130455394
 21
237.4606155674
 31
0.0
  0
SPLINE
  5
B3
330
71
100
AcDbEntity
  8
DV1_Default
  6
Continuous
 62
     7
 48
25.4
100
AcDbSpline
210
0.0
220
0.0
230
1.0
 70
     8
 71
     3
 72
    11
 73
     7
 74
     0
 42
0.0000000111848249
 43
0.0000000001
 40
0.0
 40
0.0
 40
0.0
 40
0.0
 40
0.4732289187100708
 40
0.4732289187100708
 40
0.4732289187100708
 40
1.0
 40
1.0
 40
1.0
 40
1.0
 10
54.11304553938004
 20
237.4606155674309
 30
0.0
 10
53.9684235091425
 20
237.490939541513
 30
0.0
 10
53.82846670568676
 20
237.5064902974525
 30
0.0
 10
53.69395266680984
 20
237.5064902974525
 30
0.0
 10
53.50578851994159
 20
237.5064902974525
 30
0.0
 10
53.35883387631307
 20
237.4676134076037
 30
0.0
 10
53.25308873592434
 20
237.3906371657031
 30
0.0
  0
SPLINE
  5
B4
330
71
100
AcDbEntity
  8
DV1_Default
  6
Continuous
 62
     7
 48
25.4
100
AcDbSpline
210
0.0
220
0.0
230
1.0
 70
     8
 71
     3
 72
    11
 73
     7
 74
     0
 42
0.0000000104559245
 43
0.0000000001
 40
0.0
 40
0.0
 40
0.0
 40
0.0
 40
0.404743506254122
 40
0.404743506254122
 40
0.404743506254122
 40
1.0
 40
1.0
 40
1.0
 40
1.0
 10
53.25308873592434
 20
237.3906371657031
 30
0.0
 10
53.14812113333255
 20
237.3128833860054
 30
0.0
 10
53.09524856313815
 20
237.2055831700227
 30
0.0
 10
53.09524856313815
 20
237.0687365177549
 30
0.0
 10
53.09524856313815
 20
236.8961231268262
 30
0.0
 10
53.19788355233897
 20
236.7616090879492
 30
0.0
 10
53.40393106853769
 20
236.6651944011242
 30
0.0
  0
LINE
  5
B5
330
71
100
AcDbEntity
  8
DV1_Default
  6
Continuous
 62
     7
 48
25.4
100
AcDbLine
 10
53.4039310685
 20
236.6651944011
 30
0.0
 11
53.693175129
 21
236.535345589
 31
0.0
  0
SPLINE
  5
B6
330
71
100
AcDbEntity
  8
DV1_Default
  6
Continuous
 62
     7
 48
25.4
100
AcDbSpline
210
0.0
220
0.0
230
1.0
 70
     8
 71
     3
 72
    17
 73
    13
 74
     0
 42
0.0000000100951845
 43
0.0000000001
 40
0.0
 40
0.0
 40
0.0
 40
0.0
 40
0.6001412736713283
 40
0.6001412736713283
 40
0.6001412736713283
 40
0.9916803147725919
 40
0.9916803147725919
 40
0.9916803147725919
 40
0.9951954877286749
 40
0.9951954877286749
 40
0.9951954877286749
 40
1.0
 40
1.0
 40
1.0
 40
1.0
 10
53.69317512901291
 20
236.5353455890292
 30
0.0
 10
53.74138247242543
 20
236.507354228338
 30
0.0
 10
53.77248398430447
 20
236.4863607078197
 30
0.0
 10
53.78647966465004
 20
236.4723650274741
 30
0.0
 10
53.80047534499562
 20
236.4583693471286
 30
0.0
 10
53.8074731851684
 20
236.4365982888133
 30
0.0
 10
53.8074731851684
 20
236.4054967769341
 30
0.0
 10
53.8074731851684
 20
236.3191900814698
 30
0.0
 10
53.72660925428286
 20
236.2764255026361
 30
0.0
 10
53.56410385471479
 20
236.2764255026361
 30
0.0
 10
53.46457901670186
 20
236.2764255026361
 30
0.0
 10
53.31373668408845
 20
236.3044168633272
 30
0.0
 10
53.11079931907764
 20
236.3603995847095
 30
0.0
  0
LINE
  5
B7
330
71
100
AcDbEntity
  8
DV1_Default
  6
Continuous
 62
     7
 48
25.4
100
AcDbLine
 10
53.1107993191
 20
236.3603995847
 30
0.0
 11
53.1107993191
 21
236.0664902975
 31
0.0
  0
SPLINE
  5
B8
330
71
100
AcDbEntity
  8
DV1_Default
  6
Continuous
 62
     7
 48
25.4
100
AcDbSpline
210
0.0
220
0.0
230
1.0
 70
     8
 71
     3
 72
     8
 73
     4
 74
     0
 42
0.0000000395089972
 43
0.0000000001
 40
0.0
 40
0.0
 40
0.0
 40
0.0
 40
1.0
 40
1.0
 40
1.0
 40
1.0
 10
53.11079931907764
 20
236.0664902974526
 30
0.0
 10
53.1792226452116
 20
236.0540496927009
 30
0.0
 10
53.26241918948804
 20
236.0400540123553
 30
0.0
 10
53.36038895190705
 20
236.0245032564158
 30
0.0
  0
SPLINE
  5
B9
330
71
100
AcDbEntity
  8
DV1_Default
  6
Continuous
 62
     7
 48
25.4
100
AcDbSpline
210
0.0
220
0.0
230
1.0
 70
     8
 71
     3
 72
    11
 73
     7
 74
     0
 42
0.0000000139107814
 43
0.0000000001
 40
0.0
 40
0.0
 40
0.0
 40
0.0
 40
0.3276534488829633
 40
0.3276534488829633
 40
0.3276534488829633
 40
1.0
 40
1.0
 40
1.0
 40
1.0
 10
53.36038895190705
 20
236.0245032564158
 30
0.0
 10
53.45758117652908
 20
236.0097300382733
 30
0.0
 10
53.53611249402364
 20
236.0019546603035
 30
0.0
 10
53.5944278287969
 20
236.0019546603035
 30
0.0
 10
53.78259197566516
 20
236.0019546603035
 30
0.0
 10
53.93265677048157
 20
236.0439417013402
 30
0.0
 10
54.04384467544917
 20
236.1279157834136
 30
0.0
  0
SPLINE
  5
BA
330
71
100
AcDbEntity
  8
DV1_Default
  6
Continuous
 62
     7
 48
25.4
100
AcDbSpline
210
0.0
220
0.0
230
1.0
 70
     8
 71
     3
 72
    11
 73
     7
 74
     0
 42
0.0000000147827378
 43
0.0000000001
 40
0.0
 40
0.0
 40
0.0
 40
0.0
 40
0.6081403931171873
 40
0.6081403931171873
 40
0.6081403931171873
 40
1.0
 40
1.0
 40
1.0
 40
1.0
 10
54.04384467544917
 20
236.1279157834136
 30
0.0
 10
54.15581011821375
 20
236.2111123276901
 30
0.0
 10
54.21179283959604
 20
236.3254103838456
 30
0.0
 10
54.21179283959604
 20
236.4700324140832
 30
0.0
 10
54.21179283959604
 20
236.5617818741264
 30
0.0
 10
54.1861340922958
 20
236.6426458050119
 30
0.0
 10
54.1340390598984
 20
236.7141792823337
 30
0.0
  0
SPLINE
  5
BB
330
71
100
AcDbEntity
  8
DV1_Default
  6
Continuous
 62
     7
 48
25.4
100
AcDbSpline
210
0.0
220
0.0
230
1.0
 70
     8
 71
     3
 72
     8
 73
     4
 74
     0
 42
0.0000000320886172
 43
0.0000000001
 40
0.0
 40
0.0
 40
0.0
 40
0.0
 40
1.0
 40
1.0
 40
1.0
 40
1.0
 10
54.1340390598984
 20
236.7141792823337
 30
0.0
 10
54.081944027501
 20
236.7849352218586
 30
0.0
 10
53.99952502102154
 20
236.8448056322258
 30
0.0
 10
53.88755957825695
 20
236.8930129756383
 30
0.0
  0
LINE
  5
BC
330
71
100
AcDbEntity
  8
DV1_Default
  6
Continuous
 62
     7
 48
25.4
100
AcDbLine
 10
53.8875595783
 20
236.8930129756
 30
0.0
 11
53.6286394919
 21
237.0073110318
 31
0.0
  0
SPLINE
  5
BD
330
71
100
AcDbEntity
  8
DV1_Default
  6
Continuous
 62
     7
 48
25.4
100
AcDbSpline
210
0.0
220
0.0
230
1.0
 70
     8
 71
     3
 72
    14
 73
    10
 74
     0
 42
0.0000000141428629
 43
0.0000000001
 40
0.0
 40
0.0
 40
0.0
 40
0.0
 40
0.3935053114105675
 40
0.3935053114105675
 40
0.3935053114105675
 40
0.997995318573264
 40
0.997995318573264
 40
0.997995318573264
 40
1.0
 40
1.0
 40
1.0
 40
1.0
 10
53.62863949186384
 20
237.0073110317938
 30
0.0
 10
53.54233279639951
 20
237.0477429972365
 30
0.0
 10
53.4987906797688
 20
237.0912851138672
 30
0.0
 10
53.4987906797688
 20
237.1371598438888
 30
0.0
 10
53.4987906797688
 20
237.2110259346016
 30
0.0
 10
53.57576692166946
 20
237.2475702110594
 30
0.0
 10
53.72816432987678
 20
237.2475702110594
 30
0.0
 10
53.79658765601072
 20
237.2475702110594
 30
0.0
 10
53.86112329315972
 20
237.2429049842775
 30
0.0
 10
53.92021616572991
 20
237.2343520685108
 30
0.0
  0
SPLINE
  5
BE
330
71
100
AcDbEntity
  8
DV1_Default
  6
Continuous
 62
     7
 48
25.4
100
AcDbSpline
210
0.0
220
0.0
230
1.0
 70
     8
 71
     3
 72
     8
 73
     4
 74
     0
 42
0.0000000499590171
 43
0.0000000001
 40
0.0
 40
0.0
 40
0.0
 40
0.0
 40
1.0
 40
1.0
 40
1.0
 40
1.0
 10
53.92021616572991
 20
237.2343520685108
 30
0.0
 10
53.98008657609709
 20
237.2250216149472
 30
0.0
 10
54.04462221324616
 20
237.2079157834136
 30
0.0
 10
54.11304553938004
 20
237.1830345739104
 30
0.0
  0
LINE
  5
BF
330
71
100
AcDbEntity
  8
DV1_Default
  6
Continuous
 62
     7
 48
25.4
100
AcDbLine
 10
43.3505167207
 20
234.2357004674
 30
0.0
 11
43.3505167207
 21
238.9157004674
 31
0.0
  0
LINE
  5
C0
330
71
100
AcDbEntity
  8
DV1_Default
  6
Continuous
 62
     7
 48
25.4
100
AcDbLine
 10
43.3505167207
 20
238.9157004674
 30
0.0
 11
90.5505167207
 21
238.9157004674
 31
0.0
  0
LINE
  5
C1
330
71
100
AcDbEntity
  8
DV1_Default
  6
Continuous
 62
     7
 48
25.4
100
AcDbLine
 10
90.5505167207
 20
238.9157004674
 30
0.0
 11
90.5505167207
 21
234.2357004674
 31
0.0
  0
LINE
  5
C2
330
71
100
AcDbEntity
  8
DV1_Default
  6
Continuous
 62
     7
 48
25.4
100
AcDbLine
 10
43.3505167207
 20
234.2357004674
 30
0.0
 11
90.5505167207
 21
234.2357004674
 31
0.0
  0
LINE
  5
C3
330
71
100
AcDbEntity
  8
DV1_Default
  6
Continuous
 62
     7
 48
25.4
100
AcDbLine
 10
37.5671109593
 20
63.0962136321
 30
0.0
 11
37.5671109593
 21
239.0962136321
 31
0.0
  0
LINE
  5
C4
330
71
100
AcDbEntity
  8
DV1_Default
  6
Continuous
 62
     7
 48
25.4
100
AcDbLine
 10
37.5671109593
 20
63.0962136321
 30
0.0
 11
35.526628807
 21
63.0962136321
 31
0.0
  0
TEXT
  5
C5
330
71
100
AcDbEntity
  8
DV1_Default
  6
Continuous
 62
     7
 48
25.4
100
AcDbText
 10
29.0834080508
 20
61.944464051
 30
0.0
 40
2.0
  1
0
  7
SEACAD_arial_ttf
 11
29.0834080508
 21
63.944464051
 31
0.0
100
AcDbText
 73
     3
  0
LINE
  5
C6
330
71
100
AcDbEntity
  8
DV1_Default
  6
Continuous
 62
     7
 48
25.4
100
AcDbLine
 10
37.5671109593
 20
71.0962136321
 30
0.0
 11
35.526628807
 21
71.0962136321
 31
0.0
  0
TEXT
  5
C7
330
71
100
AcDbEntity
  8
DV1_Default
  6
Continuous
 62
     7
 48
25.4
100
AcDbText
 10
29.0834080508
 20
69.944464051
 30
0.0
 40
2.0
  1
100
  7
SEACAD_arial_ttf
 11
29.0834080508
 21
71.944464051
 31
0.0
100
AcDbText
 73
     3
  0
LINE
  5
C8
330
71
100
AcDbEntity
  8
DV1_Default
  6
Continuous
 62
     7
 48
25.4
100
AcDbLine
 10
37.5671109593
 20
79.0962136321
 30
0.0
 11
35.526628807
 21
79.0962136321
 31
0.0
  0
TEXT
  5
C9
330
71
100
AcDbEntity
  8
DV1_Default
  6
Continuous
 62
     7
 48
25.4
100
AcDbText
 10
29.0834080508
 20
77.944464051
 30
0.0
 40
2.0
  1
200
  7
SEACAD_arial_ttf
 11
29.0834080508
 21
79.944464051
 31
0.0
100
AcDbText
 73
     3
  0
LINE
  5
CA
330
71
100
AcDbEntity
  8
DV1_Default
  6
Continuous
 62
     7
 48
25.4
100
AcDbLine
 10
37.5671109593
 20
87.0962136321
 30
0.0
 11
35.526628807
 21
87.0962136321
 31
0.0
  0
TEXT
  5
CB
330
71
100
AcDbEntity
  8
DV1_Default
  6
Continuous
 62
     7
 48
25.4
100
AcDbText
 10
29.0834080508
 20
85.944464051
 30
0.0
 40
2.0
  1
300
  7
SEACAD_arial_ttf
 11
29.0834080508
 21
87.944464051
 31
0.0
100
AcDbText
 73
     3
  0
LINE
  5
CC
330
71
100
AcDbEntity
  8
DV1_Default
  6
Continuous
 62
     7
 48
25.4
100
AcDbLine
 10
43.1093986089
 20
57.5325448392
 30
0.0
 11
43.1093986089
 21
55.3402516576
 31
0.0
  0
LINE
  5
CD
330
71
100
AcDbEntity
  8
DV1_Default
  6
Continuous
 62
     7
 48
25.4
100
AcDbLine
 10
37.5671109593
 20
95.0962136321
 30
0.0
 11
35.526628807
 21
95.0962136321
 31
0.0
  0
TEXT
  5
CE
330
71
100
AcDbEntity
  8
DV1_Default
  6
Continuous
 62
     7
 48
25.4
100
AcDbText
 10
29.0834080508
 20
93.944464051
 30
0.0
 40
2.0
  1
400
  7
SEACAD_arial_ttf
 11
29.0834080508
 21
95.944464051
 31
0.0
100
AcDbText
 73
     3
  0
LINE
  5
CF
330
71
100
AcDbEntity
  8
DV1_Default
  6
Continuous
 62
     7
 48
25.4
100
AcDbLine
 10
37.5671109593
 20
103.0962136321
 30
0.0
 11
35.526628807
 21
103.0962136321
 31
0.0
  0
TEXT
  5
D0
330
71
100
AcDbEntity
  8
DV1_Default
  6
Continuous
 62
     7
 48
25.4
100
AcDbText
 10
29.0834080508
 20
101.944464051
 30
0.0
 40
2.0
  1
500
  7
SEACAD_arial_ttf
 11
29.0834080508
 21
103.944464051
 31
0.0
100
AcDbText
 73
     3
  0
LINE
  5
D1
330
71
100
AcDbEntity
  8
DV1_Default
  6
Continuous
 62
     7
 48
25.4
100
AcDbLine
 10
37.5671109593
 20
111.0962136321
 30
0.0
 11
35.526628807
 21
111.0962136321
 31
0.0
  0
TEXT
  5
D2
330
71
100
AcDbEntity
  8
DV1_Default
  6
Continuous
 62
     7
 48
25.4
100
AcDbText
 10
29.0834080508
 20
109.944464051
 30
0.0
 40
2.0
  1
600
  7
SEACAD_arial_ttf
 11
29.0834080508
 21
111.944464051
 31
0.0
100
AcDbText
 73
     3
  0
LINE
  5
D3
330
71
100
AcDbEntity
  8
DV1_Default
  6
Continuous
 62
     7
 48
25.4
100
AcDbLine
 10
37.5671109593
 20
119.0962136321
 30
0.0
 11
35.526628807
 21
119.0962136321
 31
0.0
  0
TEXT
  5
D4
330
71
100
AcDbEntity
  8
DV1_Default
  6
Continuous
 62
     7
 48
25.4
100
AcDbText
 10
29.0834080508
 20
117.944464051
 30
0.0
 40
2.0
  1
700
  7
SEACAD_arial_ttf
 11
29.0834080508
 21
119.944464051
 31
0.0
100
AcDbText
 73
     3
  0
LINE
  5
D5
330
71
100
AcDbEntity
  8
DV1_Default
  6
Continuous
 62
     7
 48
25.4
100
AcDbLine
 10
37.5671109593
 20
127.0962136321
 30
0.0
 11
35.526628807
 21
127.0962136321
 31
0.0
  0
TEXT
  5
D6
330
71
100
AcDbEntity
  8
DV1_Default
  6
Continuous
 62
     7
 48
25.4
100
AcDbText
 10
29.0834080508
 20
125.944464051
 30
0.0
 40
2.0
  1
800
  7
SEACAD_arial_ttf
 11
29.0834080508
 21
127.944464051
 31
0.0
100
AcDbText
 73
     3
  0
LINE
  5
D7
330
71
100
AcDbEntity
  8
DV1_Default
  6
Continuous
 62
     7
 48
25.4
100
AcDbLine
 10
37.5671109593
 20
135.0962136321
 30
0.0
 11
35.526628807
 21
135.0962136321
 31
0.0
  0
TEXT
  5
D8
330
71
100
AcDbEntity
  8
DV1_Default
  6
Continuous
 62
     7
 48
25.4
100
AcDbText
 10
29.0834080508
 20
133.944464051
 30
0.0
 40
2.0
  1
900
  7
SEACAD_arial_ttf
 11
29.0834080508
 21
135.944464051
 31
0.0
100
AcDbText
 73
     3
  0
LINE
  5
D9
330
71
100
AcDbEntity
  8
DV1_Default
  6
Continuous
 62
     7
 48
25.4
100
AcDbLine
 10
37.5671109593
 20
143.0962136321
 30
0.0
 11
35.526628807
 21
143.0962136321
 31
0.0
  0
TEXT
  5
DA
330
71
100
AcDbEntity
  8
DV1_Default
  6
Continuous
 62
     7
 48
25.4
100
AcDbText
 10
27.6334534486
 20
141.944464051
 30
0.0
 40
2.0
  1
1000
  7
SEACAD_arial_ttf
 11
27.6334534486
 21
143.944464051
 31
0.0
100
AcDbText
 73
     3
  0
LINE
  5
DB
330
71
100
AcDbEntity
  8
DV1_Default
  6
Continuous
 62
     7
 48
25.4
100
AcDbLine
 10
37.5671109593
 20
151.0962136321
 30
0.0
 11
35.526628807
 21
151.0962136321
 31
0.0
  0
TEXT
  5
DC
330
71
100
AcDbEntity
  8
DV1_Default
  6
Continuous
 62
     7
 48
25.4
100
AcDbText
 10
27.6334534486
 20
149.944464051
 30
0.0
 40
2.0
  1
1100
  7
SEACAD_arial_ttf
 11
27.6334534486
 21
151.944464051
 31
0.0
100
AcDbText
 73
     3
  0
LINE
  5
DD
330
71
100
AcDbEntity
  8
DV1_Default
  6
Continuous
 62
     7
 48
25.4
100
AcDbLine
 10
37.5671109593
 20
159.0962136321
 30
0.0
 11
35.526628807
 21
159.0962136321
 31
0.0
  0
TEXT
  5
DE
330
71
100
AcDbEntity
  8
DV1_Default
  6
Continuous
 62
     7
 48
25.4
100
AcDbText
 10
27.6334534486
 20
157.944464051
 30
0.0
 40
2.0
  1
1200
  7
SEACAD_arial_ttf
 11
27.6334534486
 21
159.944464051
 31
0.0
100
AcDbText
 73
     3
  0
LINE
  5
DF
330
71
100
AcDbEntity
  8
DV1_Default
  6
Continuous
 62
     7
 48
25.4
100
AcDbLine
 10
37.5671109593
 20
167.0962136321
 30
0.0
 11
35.526628807
 21
167.0962136321
 31
0.0
  0
TEXT
  5
E0
330
71
100
AcDbEntity
  8
DV1_Default
  6
Continuous
 62
     7
 48
25.4
100
AcDbText
 10
27.6334534486
 20
165.944464051
 30
0.0
 40
2.0
  1
1300
  7
SEACAD_arial_ttf
 11
27.6334534486
 21
167.944464051
 31
0.0
100
AcDbText
 73
     3
  0
LINE
  5
E1
330
71
100
AcDbEntity
  8
DV1_Default
  6
Continuous
 62
     7
 48
25.4
100
AcDbLine
 10
37.5671109593
 20
175.0962136321
 30
0.0
 11
35.526628807
 21
175.0962136321
 31
0.0
  0
TEXT
  5
E2
330
71
100
AcDbEntity
  8
DV1_Default
  6
Continuous
 62
     7
 48
25.4
100
AcDbText
 10
27.6334534486
 20
173.944464051
 30
0.0
 40
2.0
  1
1400
  7
SEACAD_arial_ttf
 11
27.6334534486
 21
175.944464051
 31
0.0
100
AcDbText
 73
     3
  0
LINE
  5
E3
330
71
100
AcDbEntity
  8
DV1_Default
  6
Continuous
 62
     7
 48
25.4
100
AcDbLine
 10
37.5671109593
 20
183.0962136321
 30
0.0
 11
35.526628807
 21
183.0962136321
 31
0.0
  0
TEXT
  5
E4
330
71
100
AcDbEntity
  8
DV1_Default
  6
Continuous
 62
     7
 48
25.4
100
AcDbText
 10
27.6334534486
 20
181.944464051
 30
0.0
 40
2.0
  1
1500
  7
SEACAD_arial_ttf
 11
27.6334534486
 21
183.944464051
 31
0.0
100
AcDbText
 73
     3
  0
LINE
  5
E5
330
71
100
AcDbEntity
  8
DV1_Default
  6
Continuous
 62
     7
 48
25.4
100
AcDbLine
 10
37.5671109593
 20
191.0962136321
 30
0.0
 11
35.526628807
 21
191.0962136321
 31
0.0
  0
TEXT
  5
E6
330
71
100
AcDbEntity
  8
DV1_Default
  6
Continuous
 62
     7
 48
25.4
100
AcDbText
 10
27.6334534486
 20
189.944464051
 30
0.0
 40
2.0
  1
1600
  7
SEACAD_arial_ttf
 11
27.6334534486
 21
191.944464051
 31
0.0
100
AcDbText
 73
     3
  0
LINE
  5
E7
330
71
100
AcDbEntity
  8
DV1_Default
  6
Continuous
 62
     7
 48
25.4
100
AcDbLine
 10
37.5671109593
 20
199.0962136321
 30
0.0
 11
35.526628807
 21
199.0962136321
 31
0.0
  0
TEXT
  5
E8
330
71
100
AcDbEntity
  8
DV1_Default
  6
Continuous
 62
     7
 48
25.4
100
AcDbText
 10
27.6334534486
 20
197.944464051
 30
0.0
 40
2.0
  1
1700
  7
SEACAD_arial_ttf
 11
27.6334534486
 21
199.944464051
 31
0.0
100
AcDbText
 73
     3
  0
LINE
  5
E9
330
71
100
AcDbEntity
  8
DV1_Default
  6
Continuous
 62
     7
 48
25.4
100
AcDbLine
 10
37.5671109593
 20
207.0962136321
 30
0.0
 11
35.526628807
 21
207.0962136321
 31
0.0
  0
TEXT
  5
EA
330
71
100
AcDbEntity
  8
DV1_Default
  6
Continuous
 62
     7
 48
25.4
100
AcDbText
 10
27.6334534486
 20
205.944464051
 30
0.0
 40
2.0
  1
1800
  7
SEACAD_arial_ttf
 11
27.6334534486
 21
207.944464051
 31
0.0
100
AcDbText
 73
     3
  0
LINE
  5
EB
330
71
100
AcDbEntity
  8
DV1_Default
  6
Continuous
 62
     7
 48
25.4
100
AcDbLine
 10
37.5671109593
 20
215.0962136321
 30
0.0
 11
35.526628807
 21
215.0962136321
 31
0.0
  0
TEXT
  5
EC
330
71
100
AcDbEntity
  8
DV1_Default
  6
Continuous
 62
     7
 48
25.4
100
AcDbText
 10
27.6334534486
 20
213.944464051
 30
0.0
 40
2.0
  1
1900
  7
SEACAD_arial_ttf
 11
27.6334534486
 21
215.944464051
 31
0.0
100
AcDbText
 73
     3
  0
LINE
  5
ED
330
71
100
AcDbEntity
  8
DV1_Default
  6
Continuous
 62
     7
 48
25.4
100
AcDbLine
 10
37.5671109593
 20
223.0962136321
 30
0.0
 11
35.526628807
 21
223.0962136321
 31
0.0
  0
TEXT
  5
EE
330
71
100
AcDbEntity
  8
DV1_Default
  6
Continuous
 62
     7
 48
25.4
100
AcDbText
 10
27.6334534486
 20
221.944464051
 30
0.0
 40
2.0
  1
2000
  7
SEACAD_arial_ttf
 11
27.6334534486
 21
223.944464051
 31
0.0
100
AcDbText
 73
     3
  0
LINE
  5
EF
330
71
100
AcDbEntity
  8
DV1_Default
  6
Continuous
 62
     7
 48
25.4
100
AcDbLine
 10
37.5671109593
 20
231.0962136321
 30
0.0
 11
35.526628807
 21
231.0962136321
 31
0.0
  0
TEXT
  5
F0
330
71
100
AcDbEntity
  8
DV1_Default
  6
Continuous
 62
     7
 48
25.4
100
AcDbText
 10
27.6334534486
 20
229.944464051
 30
0.0
 40
2.0
  1
2100
  7
SEACAD_arial_ttf
 11
27.6334534486
 21
231.944464051
 31
0.0
100
AcDbText
 73
     3
  0
LINE
  5
F1
330
71
100
AcDbEntity
  8
DV1_Default
  6
Continuous
 62
     7
 48
25.4
100
AcDbLine
 10
37.5671109593
 20
239.0962136321
 30
0.0
 11
35.526628807
 21
239.0962136321
 31
0.0
  0
TEXT
  5
F2
330
71
100
AcDbEntity
  8
DV1_Default
  6
Continuous
 62
     7
 48
25.4
100
AcDbText
 10
27.6334534486
 20
237.944464051
 30
0.0
 40
2.0
  1
2200
  7
SEACAD_arial_ttf
 11
27.6334534486
 21
239.944464051
 31
0.0
100
AcDbText
 73
     3
  0
TEXT
  5
F3
330
71
100
AcDbEntity
  8
DV1_Default
  6
Continuous
 62
     7
 48
25.4
100
AcDbText
 10
44.169373267
 20
48.4845703388
 30
0.0
 40
2.0
  1
0
 50
90.0
  7
SEACAD_arial_ttf
 11
42.169373267
 21
48.4845703388
 31
0.0
100
AcDbText
 73
     3
  0
LINE
  5
F4
330
71
100
AcDbEntity
  8
DV1_Default
  6
Continuous
 62
     7
 48
25.4
100
AcDbLine
 10
51.1093986089
 20
57.5325448392
 30
0.0
 11
51.1093986089
 21
55.3402516576
 31
0.0
  0
TEXT
  5
F5
330
71
100
AcDbEntity
  8
DV1_Default
  6
Continuous
 62
     7
 48
25.4
100
AcDbText
 10
52.169373267
 20
48.4845703388
 30
0.0
 40
2.0
  1
100
 50
90.0
  7
SEACAD_arial_ttf
 11
50.169373267
 21
48.4845703388
 31
0.0
100
AcDbText
 73
     3
  0
LINE
  5
F6
330
71
100
AcDbEntity
  8
DV1_Default
  6
Continuous
 62
     7
 48
25.4
100
AcDbLine
 10
59.1093986089
 20
57.5325448392
 30
0.0
 11
59.1093986089
 21
55.3402516576
 31
0.0
  0
TEXT
  5
F7
330
71
100
AcDbEntity
  8
DV1_Default
  6
Continuous
 62
     7
 48
25.4
100
AcDbText
 10
60.169373267
 20
48.4845703388
 30
0.0
 40
2.0
  1
200
 50
90.0
  7
SEACAD_arial_ttf
 11
58.169373267
 21
48.4845703388
 31
0.0
100
AcDbText
 73
     3
  0
LINE
  5
F8
330
71
100
AcDbEntity
  8
DV1_Default
  6
Continuous
 62
     7
 48
25.4
100
AcDbLine
 10
67.1093986089
 20
57.5325448392
 30
0.0
 11
67.1093986089
 21
55.3402516576
 31
0.0
  0
TEXT
  5
F9
330
71
100
AcDbEntity
  8
DV1_Default
  6
Continuous
 62
     7
 48
25.4
100
AcDbText
 10
68.169373267
 20
48.4845703388
 30
0.0
 40
2.0
  1
300
 50
90.0
  7
SEACAD_arial_ttf
 11
66.169373267
 21
48.4845703388
 31
0.0
100
AcDbText
 73
     3
  0
LINE
  5
FA
330
71
100
AcDbEntity
  8
DV1_Default
  6
Continuous
 62
     7
 48
25.4
100
AcDbLine
 10
75.1093986089
 20
57.5325448392
 30
0.0
 11
75.1093986089
 21
55.3402516576
 31
0.0
  0
TEXT
  5
FB
330
71
100
AcDbEntity
  8
DV1_Default
  6
Continuous
 62
     7
 48
25.4
100
AcDbText
 10
76.169373267
 20
48.4845703388
 30
0.0
 40
2.0
  1
400
 50
90.0
  7
SEACAD_arial_ttf
 11
74.169373267
 21
48.4845703388
 31
0.0
100
AcDbText
 73
     3
  0
LINE
  5
FC
330
71
100
AcDbEntity
  8
DV1_Default
  6
Continuous
 62
     7
 48
25.4
100
AcDbLine
 10
83.1093986089
 20
57.5325448392
 30
0.0
 11
83.1093986089
 21
55.3402516576
 31
0.0
  0
TEXT
  5
FD
330
71
100
AcDbEntity
  8
DV1_Default
  6
Continuous
 62
     7
 48
25.4
100
AcDbText
 10
84.169373267
 20
48.4845703388
 30
0.0
 40
2.0
  1
500
 50
90.0
  7
SEACAD_arial_ttf
 11
82.169373267
 21
48.4845703388
 31
0.0
100
AcDbText
 73
     3
  0
LINE
  5
FE
330
71
100
AcDbEntity
  8
DV1_Default
  6
Continuous
 62
     7
 48
25.4
100
AcDbLine
 10
91.1093986089
 20
57.5325448392
 30
0.0
 11
91.1093986089
 21
55.3402516576
 31
0.0
  0
TEXT
  5
FF
330
71
100
AcDbEntity
  8
DV1_Default
  6
Continuous
 62
     7
 48
25.4
100
AcDbText
 10
92.169373267
 20
48.4845703388
 30
0.0
 40
2.0
  1
600
 50
90.0
  7
SEACAD_arial_ttf
 11
90.169373267
 21
48.4845703388
 31
0.0
100
AcDbText
 73
     3
  0
TEXT
  5
100
330
71
100
AcDbEntity
  8
DV1_Default
  6
Continuous
 62
     7
 48
25.4
100
AcDbText
 10
56.0707894154
 20
235.4868009127
 30
0.0
 40
2.4
  1
+.A7    ¿ØÖÆ
  7
SEACAD_arial_ttf
 11
56.0707894154
 21
237.8868009127
 31
0.0
100
AcDbText
 73
     3
  0
LWPOLYLINE
  5
101
330
71
100
AcDbEntity
  8
DV1_Default
  6
Continuous
 62
     7
 48
25.4
100
AcDbPolyline
 90
        5
 70
     0
 43
0.0
 10
56.0707894154
 20
238.5111911566
 10
56.0707894154
 20
234.9989952346
 10
77.4339914352
 20
234.9989952346
 10
77.4339914352
 20
238.5111911566
 10
56.0707894154
 20
238.5111911566
  0
LINE
  5
102
330
71
100
AcDbEntity
  8
DV1_Default
  6
Continuous
 62
     7
 48
25.4
100
AcDbLine
 10
43.1093986089
 20
57.5325448392
 30
0.0
 11
91.1093986089
 21
57.5325448392
 31
0.0
  0
LINE
  5
103
330
71
100
AcDbEntity
  8
DV1_Default
  6
Continuous
 62
     7
 48
25.4
100
AcDbLine
 10
77.7633918947
 20
223.9459574645
 30
0.0
 11
71.3633918947
 21
223.9459574645
 31
0.0
  0
LINE
  5
104
330
71
100
AcDbEntity
  8
DV1_Default
  6
Continuous
 62
     7
 48
25.4
100
AcDbLine
 10
77.7633918947
 20
220.7219574645
 30
0.0
 11
77.7633918947
 21
223.9459574645
 31
0.0
  0
LINE
  5
105
330
71
100
AcDbEntity
  8
DV1_Default
  6
Continuous
 62
     7
 48
25.4
100
AcDbLine
 10
71.3633918947
 20
220.7219574645
 30
0.0
 11
71.3633918947
 21
223.9459574645
 31
0.0
  0
LINE
  5
106
330
71
100
AcDbEntity
  8
DV1_Default
  6
Continuous
 62
     7
 48
25.4
100
AcDbLine
 10
71.3633918947
 20
224.7459574645
 30
0.0
 11
77.7633918947
 21
224.7459574645
 31
0.0
  0
LINE
  5
107
330
71
100
AcDbEntity
  8
DV1_Default
  6
Continuous
 62
     7
 48
25.4
100
AcDbLine
 10
77.7633918947
 20
226.3182642248
 30
0.0
 11
77.7633918947
 21
223.9459574645
 31
0.0
  0
LINE
  5
108
330
71
100
AcDbEntity
  8
DV1_Default
  6
Continuous
 62
     7
 48
25.4
100
AcDbLine
 10
71.3633918947
 20
226.3182642248
 30
0.0
 11
71.3633918947
 21
220.7219574645
 31
0.0
  0
LINE
  5
109
330
71
100
AcDbEntity
  8
DV1_Default
  6
Continuous
 62
     7
 48
25.4
100
AcDbLine
 10
62.5633918947
 20
220.7219574645
 30
0.0
 11
62.5633918947
 21
223.9459574645
 31
0.0
  0
LINE
  5
10A
330
71
100
AcDbEntity
  8
DV1_Default
  6
Continuous
 62
     7
 48
25.4
100
AcDbLine
 10
56.1633918947
 20
224.7459574645
 30
0.0
 11
62.5633918947
 21
224.7459574645
 31
0.0
  0
LINE
  5
10B
330
71
100
AcDbEntity
  8
DV1_Default
  6
Continuous
 62
     7
 48
25.4
100
AcDbLine
 10
62.5633918947
 20
224.7459574645
 30
0.0
 11
62.5633918947
 21
223.9459574645
 31
0.0
  0
LINE
  5
10C
330
71
100
AcDbEntity
  8
DV1_Default
  6
Continuous
 62
     7
 48
25.4
100
AcDbLine
 10
56.1633918947
 20
224.7459574645
 30
0.0
 11
56.1633918947
 21
223.9459574645
 31
0.0
  0
CIRCLE
  5
10D
330
71
100
AcDbEntity
  8
DV1_Default
  6
Continuous
 62
     7
 48
25.4
100
AcDbCircle
 10
57.7633918947
 20
225.5459574645
 30
0.0
 40
0.5
  0
CIRCLE
  5
10E
330
71
100
AcDbEntity
  8
DV1_Default
  6
Continuous
 62
     7
 48
25.4
100
AcDbCircle
 10
60.9633918947
 20
225.5459574645
 30
0.0
 40
0.4999999999999999
  0
LINE
  5
10F
330
71
100
AcDbEntity
  8
DV1_Default
  6
Continuous
 62
     7
 48
25.4
100
AcDbLine
 10
52.1633918947
 20
225.1219574645
 30
0.0
 11
49.7633918947
 21
225.1219574645
 31
0.0
  0
LINE
  5
110
330
71
100
AcDbEntity
  8
DV1_Default
  6
Continuous
 62
     7
 48
25.4
100
AcDbLine
 10
52.1633918947
 20
225.2819574645
 30
0.0
 11
51.9233918947
 21
225.2819574645
 31
0.0
  0
LINE
  5
111
330
71
100
AcDbEntity
  8
DV1_Default
  6
Continuous
 62
     7
 48
25.4
100
AcDbLine
 10
51.1233918947
 20
225.2819574645
 30
0.0
 11
49.7633918947
 21
225.2819574645
 31
0.0
  0
LINE
  5
112
330
71
100
AcDbEntity
  8
DV1_Default
  6
Continuous
 62
     7
 48
25.4
100
AcDbLine
 10
52.1633918947
 20
225.4419574645
 30
0.0
 11
52.1633918947
 21
225.2819574645
 31
0.0
  0
LINE
  5
113
330
71
100
AcDbEntity
  8
DV1_Default
  6
Continuous
 62
     7
 48
25.4
100
AcDbLine
 10
49.7633918947
 20
225.4419574645
 30
0.0
 11
49.7633918947
 21
225.2819574645
 31
0.0
  0
LINE
  5
114
330
71
100
AcDbEntity
  8
DV1_Default
  6
Continuous
 62
     7
 48
25.4
100
AcDbLine
 10
52.1633918947
 20
231.6819574645
 30
0.0
 11
49.7633918947
 21
231.6819574645
 31
0.0
  0
LINE
  5
115
330
71
100
AcDbEntity
  8
DV1_Default
  6
Continuous
 62
     7
 48
25.4
100
AcDbLine
 10
52.1633918947
 20
231.6819574645
 30
0.0
 11
52.1633918947
 21
231.5219574645
 31
0.0
  0
LINE
  5
116
330
71
100
AcDbEntity
  8
DV1_Default
  6
Continuous
 62
     7
 48
25.4
100
AcDbLine
 10
49.7633918947
 20
231.6819574645
 30
0.0
 11
49.7633918947
 21
231.5219574645
 31
0.0
  0
LINE
  5
117
330
71
100
AcDbEntity
  8
DV1_Default
  6
Continuous
 62
     7
 48
25.4
100
AcDbLine
 10
52.1633918947
 20
231.5219574645
 30
0.0
 11
52.1633918947
 21
229.0448898345
 31
0.0
  0
LINE
  5
118
330
71
100
AcDbEntity
  8
DV1_Default
  6
Continuous
 62
     7
 48
25.4
100
AcDbLine
 10
49.7633918947
 20
231.5219574645
 30
0.0
 11
49.7633918947
 21
229.0448898345
 31
0.0
  0
LINE
  5
119
330
71
100
AcDbEntity
  8
DV1_Default
  6
Continuous
 62
     7
 48
25.4
100
AcDbLine
 10
49.7633918947
 20
225.2819574645
 30
0.0
 11
49.7633918947
 21
225.1219574645
 31
0.0
  0
LINE
  5
11A
330
71
100
AcDbEntity
  8
DV1_Default
  6
Continuous
 62
     7
 48
25.4
100
AcDbLine
 10
52.1633918947
 20
225.2819574645
 30
0.0
 11
52.1633918947
 21
225.1219574645
 31
0.0
  0
LINE
  5
11B
330
71
100
AcDbEntity
  8
DV1_Default
  6
Continuous
 62
     7
 48
25.4
100
AcDbLine
 10
52.1633918947
 20
231.6819574645
 30
0.0
 11
52.1633918947
 21
231.8419574645
 31
0.0
  0
LINE
  5
11C
330
71
100
AcDbEntity
  8
DV1_Default
  6
Continuous
 62
     7
 48
25.4
100
AcDbLine
 10
49.7633918947
 20
231.6819574645
 30
0.0
 11
49.7633918947
 21
231.8419574645
 31
0.0
  0
LINE
  5
11D
330
71
100
AcDbEntity
  8
DV1_Default
  6
Continuous
 62
     7
 48
25.4
100
AcDbLine
 10
48.1453009955
 20
72.6819574645
 30
0.0
 11
48.9814827939
 21
72.6819574645
 31
0.0
  0
LINE
  5
11E
330
71
100
AcDbEntity
  8
DV1_Default
  6
Continuous
 62
     7
 48
25.4
100
AcDbLine
 10
84.9453009955
 20
72.6819574645
 30
0.0
 11
85.7814827939
 21
72.6819574645
 31
0.0
  0
LINE
  5
11F
330
71
100
AcDbEntity
  8
DV1_Default
  6
Continuous
 62
     7
 48
25.4
100
AcDbLine
 10
51.6780054508
 20
72.0419574645
 30
0.0
 11
52.6487783387
 21
72.0419574645
 31
0.0
  0
LINE
  5
120
330
71
100
AcDbEntity
  8
DV1_Default
  6
Continuous
 62
     7
 48
25.4
100
AcDbLine
 10
55.6780054508
 20
72.0419574645
 30
0.0
 11
56.6487783387
 21
72.0419574645
 31
0.0
  0
LINE
  5
121
330
71
100
AcDbEntity
  8
DV1_Default
  6
Continuous
 62
     7
 48
25.4
100
AcDbLine
 10
59.6780054508
 20
72.0419574645
 30
0.0
 11
60.6487783387
 21
72.0419574645
 31
0.0
  0
LINE
  5
122
330
71
100
AcDbEntity
  8
DV1_Default
  6
Continuous
 62
     7
 48
25.4
100
AcDbLine
 10
63.7818162142
 20
72.0419574645
 30
0.0
 11
64.5449675753
 21
72.0419574645
 31
0.0
  0
LINE
  5
123
330
71
100
AcDbEntity
  8
DV1_Default
  6
Continuous
 62
     7
 48
25.4
100
AcDbLine
 10
66.5818162142
 20
72.0419574645
 30
0.0
 11
67.3449675753
 21
72.0419574645
 31
0.0
  0
LINE
  5
124
330
71
100
AcDbEntity
  8
DV1_Default
  6
Continuous
 62
     7
 48
25.4
100
AcDbLine
 10
69.3818162142
 20
72.0419574645
 30
0.0
 11
70.1449675753
 21
72.0419574645
 31
0.0
  0
LINE
  5
125
330
71
100
AcDbEntity
  8
DV1_Default
  6
Continuous
 62
     7
 48
25.4
100
AcDbLine
 10
73.2780054508
 20
72.0419574645
 30
0.0
 11
74.2487783387
 21
72.0419574645
 31
0.0
  0
LINE
  5
126
330
71
100
AcDbEntity
  8
DV1_Default
  6
Continuous
 62
     7
 48
25.4
100
AcDbLine
 10
77.2780054508
 20
72.0419574645
 30
0.0
 11
78.2487783387
 21
72.0419574645
 31
0.0
  0
LINE
  5
127
330
71
100
AcDbEntity
  8
DV1_Default
  6
Continuous
 62
     7
 48
25.4
100
AcDbLine
 10
81.2780054508
 20
72.0419574645
 30
0.0
 11
82.2487783387
 21
72.0419574645
 31
0.0
  0
LINE
  5
128
330
71
100
AcDbEntity
  8
DV1_Default
  6
Continuous
 62
     7
 48
25.4
100
AcDbLine
 10
83.9233918947
 20
228.4099222268
 30
0.0
 11
83.9233918947
 21
228.0819574645
 31
0.0
  0
LINE
  5
129
330
71
100
AcDbEntity
  8
DV1_Default
  6
Continuous
 62
     7
 48
25.4
100
AcDbLine
 10
83.9233918947
 20
228.0819574645
 30
0.0
 11
83.9233918947
 21
227.4419574645
 31
0.0
  0
LINE
  5
12A
330
71
100
AcDbEntity
  8
DV1_Default
  6
Continuous
 62
     7
 48
25.4
100
AcDbLine
 10
83.9233918947
 20
227.4419574645
 30
0.0
 11
83.9233918947
 21
227.1854957552
 31
0.0
  0
LINE
  5
12B
330
71
100
AcDbEntity
  8
DV1_Default
  6
Continuous
 62
     7
 48
25.4
100
AcDbLine
 10
83.9233918947
 20
227.1854957552
 30
0.0
 11
83.9233918947
 21
226.9905828683
 31
0.0
  0
LINE
  5
12C
330
71
100
AcDbEntity
  8
DV1_Default
  6
Continuous
 62
     7
 48
25.4
100
AcDbLine
 10
83.9233918947
 20
226.3182642248
 30
0.0
 11
83.9233918947
 21
225.5219574645
 31
0.0
  0
LINE
  5
12D
330
71
100
AcDbEntity
  8
DV1_Default
  6
Continuous
 62
     7
 48
25.4
100
AcDbLine
 10
83.9233918947
 20
225.5219574645
 30
0.0
 11
83.9233918947
 21
225.2819574645
 31
0.0
  0
LINE
  5
12E
330
71
100
AcDbEntity
  8
DV1_Default
  6
Continuous
 62
     7
 48
25.4
100
AcDbLine
 10
83.1233918947
 20
226.3182642248
 30
0.0
 11
83.1233918947
 21
225.5219574645
 31
0.0
  0
LINE
  5
12F
330
71
100
AcDbEntity
  8
DV1_Default
  6
Continuous
 62
     7
 48
25.4
100
AcDbLine
 10
83.1233918947
 20
227.1854957552
 30
0.0
 11
83.1233918947
 21
226.9905828683
 31
0.0
  0
LINE
  5
130
330
71
100
AcDbEntity
  8
DV1_Default
  6
Continuous
 62
     7
 48
25.4
100
AcDbLine
 10
83.1233918947
 20
227.4419574645
 30
0.0
 11
83.1233918947
 21
227.1854957552
 31
0.0
  0
LINE
  5
131
330
71
100
AcDbEntity
  8
DV1_Default
  6
Continuous
 62
     7
 48
25.4
100
AcDbLine
 10
83.1233918947
 20
228.0819574645
 30
0.0
 11
83.1233918947
 21
227.4419574645
 31
0.0
  0
LINE
  5
132
330
71
100
AcDbEntity
  8
DV1_Default
  6
Continuous
 62
     7
 48
25.4
100
AcDbLine
 10
83.1233918947
 20
228.4099222268
 30
0.0
 11
83.1233918947
 21
228.0819574645
 31
0.0
  0
LINE
  5
133
330
71
100
AcDbEntity
  8
DV1_Default
  6
Continuous
 62
     7
 48
25.4
100
AcDbLine
 10
83.1233918947
 20
225.5219574645
 30
0.0
 11
83.1233918947
 21
225.2819574645
 31
0.0
  0
LINE
  5
134
330
71
100
AcDbEntity
  8
DV1_Default
  6
Continuous
 62
     7
 48
25.4
100
AcDbLine
 10
83.9233918947
 20
225.5219574645
 30
0.0
 11
83.1233918947
 21
225.5219574645
 31
0.0
  0
LINE
  5
135
330
71
100
AcDbEntity
  8
DV1_Default
  6
Continuous
 62
     7
 48
25.4
100
AcDbLine
 10
83.9233918947
 20
227.1854957552
 30
0.0
 11
83.1233918947
 21
227.1854957552
 31
0.0
  0
LINE
  5
136
330
71
100
AcDbEntity
  8
DV1_Default
  6
Continuous
 62
     7
 48
25.4
100
AcDbLine
 10
83.9233918947
 20
227.4419574645
 30
0.0
 11
83.1233918947
 21
227.4419574645
 31
0.0
  0
LINE
  5
137
330
71
100
AcDbEntity
  8
DV1_Default
  6
Continuous
 62
     7
 48
25.4
100
AcDbLine
 10
83.9233918947
 20
228.0819574645
 30
0.0
 11
83.1233918947
 21
228.0819574645
 31
0.0
  0
LINE
  5
138
330
71
100
AcDbEntity
  8
DV1_Default
  6
Continuous
 62
     7
 48
25.4
100
AcDbLine
 10
83.9233918947
 20
229.2819574645
 30
0.0
 11
83.1233918947
 21
229.2819574645
 31
0.0
  0
LINE
  5
139
330
71
100
AcDbEntity
  8
DV1_Default
  6
Continuous
 62
     7
 48
25.4
100
AcDbLine
 10
83.9233918947
 20
225.2819574645
 30
0.0
 11
83.1233918947
 21
225.2819574645
 31
0.0
  0
LINE
  5
13A
330
71
100
AcDbEntity
  8
DV1_Default
  6
Continuous
 62
     7
 48
25.4
100
AcDbLine
 10
51.9233918947
 20
228.4099222268
 30
0.0
 11
51.9233918947
 21
228.0819574645
 31
0.0
  0
LINE
  5
13B
330
71
100
AcDbEntity
  8
DV1_Default
  6
Continuous
 62
     7
 48
25.4
100
AcDbLine
 10
51.9233918947
 20
228.0819574645
 30
0.0
 11
51.9233918947
 21
227.4419574645
 31
0.0
  0
LINE
  5
13C
330
71
100
AcDbEntity
  8
DV1_Default
  6
Continuous
 62
     7
 48
25.4
100
AcDbLine
 10
51.9233918947
 20
227.4419574645
 30
0.0
 11
51.9233918947
 21
227.1854957552
 31
0.0
  0
LINE
  5
13D
330
71
100
AcDbEntity
  8
DV1_Default
  6
Continuous
 62
     7
 48
25.4
100
AcDbLine
 10
51.9233918947
 20
227.1854957552
 30
0.0
 11
51.9233918947
 21
226.9905828683
 31
0.0
  0
LINE
  5
13E
330
71
100
AcDbEntity
  8
DV1_Default
  6
Continuous
 62
     7
 48
25.4
100
AcDbLine
 10
51.9233918947
 20
226.3182642248
 30
0.0
 11
51.9233918947
 21
225.5219574645
 31
0.0
  0
LINE
  5
13F
330
71
100
AcDbEntity
  8
DV1_Default
  6
Continuous
 62
     7
 48
25.4
100
AcDbLine
 10
51.9233918947
 20
225.5219574645
 30
0.0
 11
51.9233918947
 21
225.2819574645
 31
0.0
  0
LINE
  5
140
330
71
100
AcDbEntity
  8
DV1_Default
  6
Continuous
 62
     7
 48
25.4
100
AcDbLine
 10
51.1233918947
 20
226.3182642248
 30
0.0
 11
51.1233918947
 21
225.5219574645
 31
0.0
  0
LINE
  5
141
330
71
100
AcDbEntity
  8
DV1_Default
  6
Continuous
 62
     7
 48
25.4
100
AcDbLine
 10
51.1233918947
 20
227.1854957552
 30
0.0
 11
51.1233918947
 21
226.9905828683
 31
0.0
  0
LINE
  5
142
330
71
100
AcDbEntity
  8
DV1_Default
  6
Continuous
 62
     7
 48
25.4
100
AcDbLine
 10
51.1233918947
 20
227.4419574645
 30
0.0
 11
51.1233918947
 21
227.1854957552
 31
0.0
  0
LINE
  5
143
330
71
100
AcDbEntity
  8
DV1_Default
  6
Continuous
 62
     7
 48
25.4
100
AcDbLine
 10
51.1233918947
 20
228.0819574645
 30
0.0
 11
51.1233918947
 21
227.4419574645
 31
0.0
  0
LINE
  5
144
330
71
100
AcDbEntity
  8
DV1_Default
  6
Continuous
 62
     7
 48
25.4
100
AcDbLine
 10
51.1233918947
 20
228.4099222268
 30
0.0
 11
51.1233918947
 21
228.0819574645
 31
0.0
  0
LINE
  5
145
330
71
100
AcDbEntity
  8
DV1_Default
  6
Continuous
 62
     7
 48
25.4
100
AcDbLine
 10
51.1233918947
 20
225.5219574645
 30
0.0
 11
51.1233918947
 21
225.2819574645
 31
0.0
  0
LINE
  5
146
330
71
100
AcDbEntity
  8
DV1_Default
  6
Continuous
 62
     7
 48
25.4
100
AcDbLine
 10
51.9233918947
 20
225.5219574645
 30
0.0
 11
51.1233918947
 21
225.5219574645
 31
0.0
  0
LINE
  5
147
330
71
100
AcDbEntity
  8
DV1_Default
  6
Continuous
 62
     7
 48
25.4
100
AcDbLine
 10
51.9233918947
 20
227.1854957552
 30
0.0
 11
51.1233918947
 21
227.1854957552
 31
0.0
  0
LINE
  5
148
330
71
100
AcDbEntity
  8
DV1_Default
  6
Continuous
 62
     7
 48
25.4
100
AcDbLine
 10
51.9233918947
 20
227.4419574645
 30
0.0
 11
51.1233918947
 21
227.4419574645
 31
0.0
  0
LINE
  5
149
330
71
100
AcDbEntity
  8
DV1_Default
  6
Continuous
 62
     7
 48
25.4
100
AcDbLine
 10
51.9233918947
 20
228.0819574645
 30
0.0
 11
51.1233918947
 21
228.0819574645
 31
0.0
  0
LINE
  5
14A
330
71
100
AcDbEntity
  8
DV1_Default
  6
Continuous
 62
     7
 48
25.4
100
AcDbLine
 10
51.9233918947
 20
229.2819574645
 30
0.0
 11
51.1233918947
 21
229.2819574645
 31
0.0
  0
LINE
  5
14B
330
71
100
AcDbEntity
  8
DV1_Default
  6
Continuous
 62
     7
 48
25.4
100
AcDbLine
 10
51.9233918947
 20
225.2819574645
 30
0.0
 11
51.1233918947
 21
225.2819574645
 31
0.0
  0
LINE
  5
14C
330
71
100
AcDbEntity
  8
DV1_Default
  6
Continuous
 62
     7
 48
25.4
100
AcDbLine
 10
84.1633918947
 20
225.1219574645
 30
0.0
 11
81.7633918947
 21
225.1219574645
 31
0.0
  0
LINE
  5
14D
330
71
100
AcDbEntity
  8
DV1_Default
  6
Continuous
 62
     7
 48
25.4
100
AcDbLine
 10
84.1633918947
 20
225.2819574645
 30
0.0
 11
83.9233918947
 21
225.2819574645
 31
0.0
  0
LINE
  5
14E
330
71
100
AcDbEntity
  8
DV1_Default
  6
Continuous
 62
     7
 48
25.4
100
AcDbLine
 10
83.1233918947
 20
225.2819574645
 30
0.0
 11
81.7633918947
 21
225.2819574645
 31
0.0
  0
LINE
  5
14F
330
71
100
AcDbEntity
  8
DV1_Default
  6
Continuous
 62
     7
 48
25.4
100
AcDbLine
 10
84.1633918947
 20
225.4419574645
 30
0.0
 11
84.1633918947
 21
225.2819574645
 31
0.0
  0
LINE
  5
150
330
71
100
AcDbEntity
  8
DV1_Default
  6
Continuous
 62
     7
 48
25.4
100
AcDbLine
 10
81.7633918947
 20
225.4419574645
 30
0.0
 11
81.7633918947
 21
225.2819574645
 31
0.0
  0
LINE
  5
151
330
71
100
AcDbEntity
  8
DV1_Default
  6
Continuous
 62
     7
 48
25.4
100
AcDbLine
 10
84.1633918947
 20
231.6819574645
 30
0.0
 11
81.7633918947
 21
231.6819574645
 31
0.0
  0
LINE
  5
152
330
71
100
AcDbEntity
  8
DV1_Default
  6
Continuous
 62
     7
 48
25.4
100
AcDbLine
 10
84.1633918947
 20
231.6819574645
 30
0.0
 11
84.1633918947
 21
231.5219574645
 31
0.0
  0
LINE
  5
153
330
71
100
AcDbEntity
  8
DV1_Default
  6
Continuous
 62
     7
 48
25.4
100
AcDbLine
 10
81.7633918947
 20
231.6819574645
 30
0.0
 11
81.7633918947
 21
231.5219574645
 31
0.0
  0
LINE
  5
154
330
71
100
AcDbEntity
  8
DV1_Default
  6
Continuous
 62
     7
 48
25.4
100
AcDbLine
 10
84.1633918947
 20
231.5219574645
 30
0.0
 11
84.1633918947
 21
229.0448898345
 31
0.0
  0
LINE
  5
155
330
71
100
AcDbEntity
  8
DV1_Default
  6
Continuous
 62
     7
 48
25.4
100
AcDbLine
 10
81.7633918947
 20
231.5219574645
 30
0.0
 11
81.7633918947
 21
229.0448898345
 31
0.0
  0
LINE
  5
156
330
71
100
AcDbEntity
  8
DV1_Default
  6
Continuous
 62
     7
 48
25.4
100
AcDbLine
 10
81.7633918947
 20
225.2819574645
 30
0.0
 11
81.7633918947
 21
225.1219574645
 31
0.0
  0
LINE
  5
157
330
71
100
AcDbEntity
  8
DV1_Default
  6
Continuous
 62
     7
 48
25.4
100
AcDbLine
 10
84.1633918947
 20
225.2819574645
 30
0.0
 11
84.1633918947
 21
225.1219574645
 31
0.0
  0
LINE
  5
158
330
71
100
AcDbEntity
  8
DV1_Default
  6
Continuous
 62
     7
 48
25.4
100
AcDbLine
 10
84.1633918947
 20
231.6819574645
 30
0.0
 11
84.1633918947
 21
231.8419574645
 31
0.0
  0
LINE
  5
159
330
71
100
AcDbEntity
  8
DV1_Default
  6
Continuous
 62
     7
 48
25.4
100
AcDbLine
 10
81.7633918947
 20
231.6819574645
 30
0.0
 11
81.7633918947
 21
231.8419574645
 31
0.0
  0
LINE
  5
15A
330
71
100
AcDbEntity
  8
DV1_Default
  6
Continuous
 62
     7
 48
25.4
100
AcDbLine
 10
81.7633918947
 20
225.1219574645
 30
0.0
 11
81.7633918947
 21
223.1219574645
 31
0.0
  0
LINE
  5
15B
330
71
100
AcDbEntity
  8
DV1_Default
  6
Continuous
 62
     7
 48
25.4
100
AcDbLine
 10
84.1633918947
 20
225.1219574645
 30
0.0
 11
84.1633918947
 21
223.1219574645
 31
0.0
  0
LINE
  5
15C
330
71
100
AcDbEntity
  8
DV1_Default
  6
Continuous
 62
     7
 48
25.4
100
AcDbLine
 10
85.0433918947
 20
232.3219574645
 30
0.0
 11
85.0433918947
 21
232.2819574645
 31
0.0
  0
ARC
  5
15D
330
71
100
AcDbEntity
  8
DV1_Default
  6
Continuous
 62
     7
 48
25.4
100
AcDbCircle
 10
84.6033918947
 20
232.2819574645
 30
0.0
 40
0.4400000000000048
100
AcDbArc
 50
270.0
 51
360.0
  0
LINE
  5
15E
330
71
100
AcDbEntity
  8
DV1_Default
  6
Continuous
 62
     7
 48
25.4
100
AcDbLine
 10
84.6033918947
 20
231.8419574645
 30
0.0
 11
81.3233918947
 21
231.8419574645
 31
0.0
  0
ARC
  5
15F
330
71
100
AcDbEntity
  8
DV1_Default
  6
Continuous
 62
     7
 48
25.4
100
AcDbCircle
 10
81.3233918947
 20
232.2819574645
 30
0.0
 40
0.4400000000000048
100
AcDbArc
 50
180.0
 51
270.0
  0
ARC
  5
160
330
71
100
AcDbEntity
  8
DV1_Default
  6
Continuous
 62
     7
 48
25.4
100
AcDbCircle
 10
81.3233918947
 20
232.2819574645
 30
0.0
 40
0.2400000000000091
100
AcDbArc
 50
180.0
 51
270.0
  0
LINE
  5
161
330
71
100
AcDbEntity
  8
DV1_Default
  6
Continuous
 62
     7
 48
25.4
100
AcDbLine
 10
81.0833918947
 20
232.2819574645
 30
0.0
 11
81.0833918947
 21
232.3219574645
 31
0.0
  0
LINE
  5
162
330
71
100
AcDbEntity
  8
DV1_Default
  6
Continuous
 62
     7
 48
25.4
100
AcDbLine
 10
84.8433918947
 20
232.3219574645
 30
0.0
 11
84.8433918947
 21
232.2819574645
 31
0.0
  0
ARC
  5
163
330
71
100
AcDbEntity
  8
DV1_Default
  6
Continuous
 62
     7
 48
25.4
100
AcDbCircle
 10
84.6033918947
 20
232.2819574645
 30
0.0
 40
0.2400000000000002
100
AcDbArc
 50
270.0
 51
360.0
  0
LINE
  5
164
330
71
100
AcDbEntity
  8
DV1_Default
  6
Continuous
 62
     7
 48
25.4
100
AcDbLine
 10
84.6033918947
 20
232.0419574645
 30
0.0
 11
81.3233918947
 21
232.0419574645
 31
0.0
  0
LINE
  5
165
330
71
100
AcDbEntity
  8
DV1_Default
  6
Continuous
 62
     7
 48
25.4
100
AcDbLine
 10
80.8833918947
 20
232.3219574645
 30
0.0
 11
80.8833918947
 21
232.2819574645
 31
0.0
  0
LINE
  5
166
330
71
100
AcDbEntity
  8
DV1_Default
  6
Continuous
 62
     7
 48
25.4
100
AcDbLine
 10
47.3633918947
 20
69.9219574645
 30
0.0
 11
47.3633918947
 21
73.9219574645
 31
0.0
  0
LINE
  5
167
330
71
100
AcDbEntity
  8
DV1_Default
  6
Continuous
 62
     7
 48
25.4
100
AcDbLine
 10
45.3233918947
 20
73.9219574645
 30
0.0
 11
88.6033918947
 21
73.9219574645
 31
0.0
  0
LINE
  5
168
330
71
100
AcDbEntity
  8
DV1_Default
  6
Continuous
 62
     7
 48
25.4
100
AcDbLine
 10
86.5633918947
 20
73.9219574645
 30
0.0
 11
86.5633918947
 21
69.9219574645
 31
0.0
  0
CIRCLE
  5
169
330
71
100
AcDbEntity
  8
DV1_Default
  6
Continuous
 62
     7
 48
25.4
100
AcDbCircle
 10
48.5633918947
 20
72.7219574645
 30
0.0
 40
0.42
  0
CIRCLE
  5
16A
330
71
100
AcDbEntity
  8
DV1_Default
  6
Continuous
 62
     7
 48
25.4
100
AcDbCircle
 10
48.5633918947
 20
71.1219574645
 30
0.0
 40
0.42
  0
CIRCLE
  5
16B
330
71
100
AcDbEntity
  8
DV1_Default
  6
Continuous
 62
     7
 48
25.4
100
AcDbCircle
 10
85.3633918947
 20
71.1219574645
 30
0.0
 40
0.42
  0
CIRCLE
  5
16C
330
71
100
AcDbEntity
  8
DV1_Default
  6
Continuous
 62
     7
 48
25.4
100
AcDbCircle
 10
85.3633918947
 20
72.7219574645
 30
0.0
 40
0.42
  0
CIRCLE
  5
16D
330
71
100
AcDbEntity
  8
DV1_Default
  6
Continuous
 62
     7
 48
25.4
100
AcDbCircle
 10
77.7633918947
 20
71.9219574645
 30
0.0
 40
0.5
  0
CIRCLE
  5
16E
330
71
100
AcDbEntity
  8
DV1_Default
  6
Continuous
 62
     7
 48
25.4
100
AcDbCircle
 10
73.7633918947
 20
71.9219574645
 30
0.0
 40
0.5
  0
CIRCLE
  5
16F
330
71
100
AcDbEntity
  8
DV1_Default
  6
Continuous
 62
     7
 48
25.4
100
AcDbCircle
 10
52.1633918947
 20
71.9219574645
 30
0.0
 40
0.5
  0
CIRCLE
  5
170
330
71
100
AcDbEntity
  8
DV1_Default
  6
Continuous
 62
     7
 48
25.4
100
AcDbCircle
 10
56.1633918947
 20
71.9219574645
 30
0.0
 40
0.5
  0
CIRCLE
  5
171
330
71
100
AcDbEntity
  8
DV1_Default
  6
Continuous
 62
     7
 48
25.4
100
AcDbCircle
 10
60.1633918947
 20
71.9219574645
 30
0.0
 40
0.5
  0
CIRCLE
  5
172
330
71
100
AcDbEntity
  8
DV1_Default
  6
Continuous
 62
     7
 48
25.4
100
AcDbCircle
 10
81.7633918947
 20
71.9219574645
 30
0.0
 40
0.5
  0
CIRCLE
  5
173
330
71
100
AcDbEntity
  8
DV1_Default
  6
Continuous
 62
     7
 48
25.4
100
AcDbCircle
 10
66.9633918947
 20
71.9219574645
 30
0.0
 40
0.4
  0
CIRCLE
  5
174
330
71
100
AcDbEntity
  8
DV1_Default
  6
Continuous
 62
     7
 48
25.4
100
AcDbCircle
 10
64.1633918947
 20
71.9219574645
 30
0.0
 40
0.4
  0
CIRCLE
  5
175
330
71
100
AcDbEntity
  8
DV1_Default
  6
Continuous
 62
     7
 48
25.4
100
AcDbCircle
 10
69.7633918947
 20
71.9219574645
 30
0.0
 40
0.4
  0
LINE
  5
176
330
71
100
AcDbEntity
  8
DV1_Default
  6
Continuous
 62
     7
 48
25.4
100
AcDbLine
 10
43.3233918947
 20
239.1219574645
 30
0.0
 11
44.9633918947
 21
239.1219574645
 31
0.0
  0
LINE
  5
177
330
71
100
AcDbEntity
  8
DV1_Default
  6
Continuous
 62
     7
 48
25.4
100
AcDbLine
 10
42.9633918947
 20
238.7619574645
 30
0.0
 11
42.9633918947
 21
235.751074347
 31
0.0
  0
ARC
  5
178
330
71
100
AcDbEntity
  8
DV1_Default
  6
Continuous
 62
     7
 48
25.4
100
AcDbCircle
 10
43.3233918947
 20
238.7619574645
 30
0.0
 40
0.3600000000000136
100
AcDbArc
 50
90.0
 51
180.0
  0
ARC
  5
179
330
71
100
AcDbEntity
  8
DV1_Default
  6
Continuous
 62
     7
 48
25.4
100
AcDbCircle
 10
44.9633918947
 20
238.7619574645
 30
0.0
 40
0.3599999999999965
100
AcDbArc
 50
25.2813714472
 51
90.0
  0
LINE
  5
17A
330
71
100
AcDbEntity
  8
DV1_Default
  6
Continuous
 62
     7
 48
25.4
100
AcDbLine
 10
43.3233918947
 20
63.1219574645
 30
0.0
 11
44.9633918947
 21
63.1219574645
 31
0.0
  0
ARC
  5
17B
330
71
100
AcDbEntity
  8
DV1_Default
  6
Continuous
 62
     7
 48
25.4
100
AcDbCircle
 10
43.3233918947
 20
63.4819574645
 30
0.0
 40
0.3599999999999997
100
AcDbArc
 50
180.0
 51
270.0
  0
LINE
  5
17C
330
71
100
AcDbEntity
  8
DV1_Default
  6
Continuous
 62
     7
 48
25.4
100
AcDbLine
 10
42.9633918947
 20
63.4819574645
 30
0.0
 11
42.9633918947
 21
66.4928405821
 31
0.0
  0
ARC
  5
17D
330
71
100
AcDbEntity
  8
DV1_Default
  6
Continuous
 62
     7
 48
25.4
100
AcDbCircle
 10
44.9633918947
 20
63.4819574645
 30
0.0
 40
0.3599999999999999
100
AcDbArc
 50
270.0
 51
360.0
  0
LINE
  5
17E
330
71
100
AcDbEntity
  8
DV1_Default
  6
Continuous
 62
     7
 48
25.4
100
AcDbLine
 10
62.5633918947
 20
223.9459574645
 30
0.0
 11
56.1633918947
 21
223.9459574645
 31
0.0
  0
LINE
  5
17F
330
71
100
AcDbEntity
  8
DV1_Default
  6
Continuous
 62
     7
 48
25.4
100
AcDbLine
 10
56.1633918947
 20
220.7219574645
 30
0.0
 11
56.1633918947
 21
223.9459574645
 31
0.0
  0
LINE
  5
180
330
71
100
AcDbEntity
  8
DV1_Default
  6
Continuous
 62
     7
 48
25.4
100
AcDbLine
 10
62.5633918947
 20
223.1219574645
 30
0.0
 11
62.5633918947
 21
223.9459574645
 31
0.0
  0
LINE
  5
181
330
71
100
AcDbEntity
  8
DV1_Default
  6
Continuous
 62
     7
 48
25.4
100
AcDbLine
 10
90.6033918947
 20
63.1219574645
 30
0.0
 11
88.9633918947
 21
63.1219574645
 31
0.0
  0
LINE
  5
182
330
71
100
AcDbEntity
  8
DV1_Default
  6
Continuous
 62
     7
 48
25.4
100
AcDbLine
 10
90.9633918947
 20
63.4819574645
 30
0.0
 11
90.9633918947
 21
66.4928405821
 31
0.0
  0
ARC
  5
183
330
71
100
AcDbEntity
  8
DV1_Default
  6
Continuous
 62
     7
 48
25.4
100
AcDbCircle
 10
90.6033918947
 20
63.4819574645
 30
0.0
 40
0.3599999999999997
100
AcDbArc
 50
270.0
 51
360.0
  0
ARC
  5
184
330
71
100
AcDbEntity
  8
DV1_Default
  6
Continuous
 62
     7
 48
25.4
100
AcDbCircle
 10
88.9633918947
 20
63.4819574645
 30
0.0
 40
0.3599999999999959
100
AcDbArc
 50
180.0
 51
270.0
  0
LINE
  5
185
330
71
100
AcDbEntity
  8
DV1_Default
  6
Continuous
 62
     7
 48
25.4
100
AcDbLine
 10
45.3233918947
 20
220.2819574645
 30
0.0
 11
45.3233918947
 21
220.6019574645
 31
0.0
  0
LINE
  5
186
330
71
100
AcDbEntity
  8
DV1_Default
  6
Continuous
 62
     7
 48
25.4
100
AcDbLine
 10
45.3233918947
 20
216.7619574645
 30
0.0
 11
45.3233918947
 21
220.2819574645
 31
0.0
  0
LINE
  5
187
330
71
100
AcDbEntity
  8
DV1_Default
  6
Continuous
 62
     7
 48
25.4
100
AcDbLine
 10
88.6033918947
 20
216.3219574645
 30
0.0
 11
45.3233918947
 21
216.3219574645
 31
0.0
  0
LINE
  5
188
330
71
100
AcDbEntity
  8
DV1_Default
  6
Continuous
 62
     7
 48
25.4
100
AcDbLine
 10
90.6033918947
 20
239.1219574645
 30
0.0
 11
88.9633918947
 21
239.1219574645
 31
0.0
  0
ARC
  5
189
330
71
100
AcDbEntity
  8
DV1_Default
  6
Continuous
 62
     7
 48
25.4
100
AcDbCircle
 10
90.6033918947
 20
238.7619574645
 30
0.0
 40
0.3600000000000136
100
AcDbArc
 50
0.0
 51
90.0
  0
LINE
  5
18A
330
71
100
AcDbEntity
  8
DV1_Default
  6
Continuous
 62
     7
 48
25.4
100
AcDbLine
 10
90.9633918947
 20
238.7619574645
 30
0.0
 11
90.9633918947
 21
235.751074347
 31
0.0
  0
ARC
  5
18B
330
71
100
AcDbEntity
  8
DV1_Default
  6
Continuous
 62
     7
 48
25.4
100
AcDbCircle
 10
88.9633918947
 20
238.7619574645
 30
0.0
 40
0.3599999999999959
100
AcDbArc
 50
90.0
 51
154.7186285528
  0
LINE
  5
18C
330
71
100
AcDbEntity
  8
DV1_Default
  6
Continuous
 62
     7
 48
25.4
100
AcDbLine
 10
43.3233918947
 20
63.1219574645
 30
0.0
 11
44.9633918947
 21
63.1219574645
 31
0.0
  0
LINE
  5
18D
330
71
100
AcDbEntity
  8
DV1_Default
  6
Continuous
 62
     7
 48
25.4
100
AcDbLine
 10
43.3233918947
 20
239.1219574645
 30
0.0
 11
44.9633918947
 21
239.1219574645
 31
0.0
  0
LINE
  5
18E
330
71
100
AcDbEntity
  8
DV1_Default
  6
Continuous
 62
     7
 48
25.4
100
AcDbLine
 10
42.9633918947
 20
63.4819574645
 30
0.0
 11
42.9633918947
 21
220.9219574645
 31
0.0
  0
LINE
  5
18F
330
71
100
AcDbEntity
  8
DV1_Default
  6
Continuous
 62
     7
 48
25.4
100
AcDbLine
 10
42.9633918947
 20
232.9219574645
 30
0.0
 11
42.9633918947
 21
238.7619574645
 31
0.0
  0
LINE
  5
190
330
71
100
AcDbEntity
  8
DV1_Default
  6
Continuous
 62
     7
 48
25.4
100
AcDbLine
 10
45.3233918947
 20
69.5619574645
 30
0.0
 11
45.3233918947
 21
216.7619574645
 31
0.0
  0
LINE
  5
191
330
71
100
AcDbEntity
  8
DV1_Default
  6
Continuous
 62
     7
 48
25.4
100
AcDbLine
 10
45.3233918947
 20
220.2819574645
 30
0.0
 11
45.3233918947
 21
220.6019574645
 31
0.0
  0
ARC
  5
192
330
71
100
AcDbEntity
  8
DV1_Default
  6
Continuous
 62
     7
 48
25.4
100
AcDbCircle
 10
43.3233918947
 20
63.4819574645
 30
0.0
 40
0.36
100
AcDbArc
 50
180.0
 51
270.0
  0
ARC
  5
193
330
71
100
AcDbEntity
  8
DV1_Default
  6
Continuous
 62
     7
 48
25.4
100
AcDbCircle
 10
44.9633918947
 20
63.4819574645
 30
0.0
 40
0.36
100
AcDbArc
 50
270.0
 51
360.0
  0
ARC
  5
194
330
71
100
AcDbEntity
  8
DV1_Default
  6
Continuous
 62
     7
 48
25.4
100
AcDbCircle
 10
43.3233918947
 20
238.7619574645
 30
0.0
 40
0.3600000000000136
100
AcDbArc
 50
90.0
 51
180.0
  0
ARC
  5
195
330
71
100
AcDbEntity
  8
DV1_Default
  6
Continuous
 62
     7
 48
25.4
100
AcDbCircle
 10
44.9633918947
 20
238.7619574645
 30
0.0
 40
0.36
100
AcDbArc
 50
25.2813714472
 51
90.0
  0
LINE
  5
196
330
71
100
AcDbEntity
  8
DV1_Default
  6
Continuous
 62
     7
 48
25.4
100
AcDbLine
 10
90.6033918947
 20
239.1219574645
 30
0.0
 11
88.9633918947
 21
239.1219574645
 31
0.0
  0
LINE
  5
197
330
71
100
AcDbEntity
  8
DV1_Default
  6
Continuous
 62
     7
 48
25.4
100
AcDbLine
 10
90.6033918947
 20
63.1219574645
 30
0.0
 11
88.9633918947
 21
63.1219574645
 31
0.0
  0
LINE
  5
198
330
71
100
AcDbEntity
  8
DV1_Default
  6
Continuous
 62
     7
 48
25.4
100
AcDbLine
 10
90.9633918947
 20
238.7619574645
 30
0.0
 11
90.9633918947
 21
232.9219574645
 31
0.0
  0
LINE
  5
199
330
71
100
AcDbEntity
  8
DV1_Default
  6
Continuous
 62
     7
 48
25.4
100
AcDbLine
 10
90.9633918947
 20
220.9219574645
 30
0.0
 11
90.9633918947
 21
63.4819574645
 31
0.0
  0
LINE
  5
19A
330
71
100
AcDbEntity
  8
DV1_Default
  6
Continuous
 62
     7
 48
25.4
100
AcDbLine
 10
88.6033918947
 20
234.2357004674
 30
0.0
 11
88.6033918947
 21
69.5619574645
 31
0.0
  0
ARC
  5
19B
330
71
100
AcDbEntity
  8
DV1_Default
  6
Continuous
 62
     7
 48
25.4
100
AcDbCircle
 10
90.6033918947
 20
238.7619574645
 30
0.0
 40
0.3600000000000136
100
AcDbArc
 50
0.0
 51
90.0
  0
ARC
  5
19C
330
71
100
AcDbEntity
  8
DV1_Default
  6
Continuous
 62
     7
 48
25.4
100
AcDbCircle
 10
88.9633918947
 20
238.7619574645
 30
0.0
 40
0.3600000000000048
100
AcDbArc
 50
90.0
 51
154.7186285528
  0
ARC
  5
19D
330
71
100
AcDbEntity
  8
DV1_Default
  6
Continuous
 62
     7
 48
25.4
100
AcDbCircle
 10
90.6033918947
 20
63.4819574645
 30
0.0
 40
0.359999999999998
100
AcDbArc
 50
270.0
 51
360.0
  0
ARC
  5
19E
330
71
100
AcDbEntity
  8
DV1_Default
  6
Continuous
 62
     7
 48
25.4
100
AcDbCircle
 10
88.9633918947
 20
63.4819574645
 30
0.0
 40
0.3599999999999959
100
AcDbArc
 50
180.0
 51
270.0
  0
LINE
  5
19F
330
71
100
AcDbEntity
  8
DV1_Default
  6
Continuous
 62
     7
 48
25.4
100
AcDbLine
 10
45.3633918947
 20
232.3219574645
 30
0.0
 11
88.5633918947
 21
232.3219574645
 31
0.0
  0
LINE
  5
1A0
330
71
100
AcDbEntity
  8
DV1_Default
  6
Continuous
 62
     7
 48
25.4
100
AcDbLine
 10
45.3233918947
 20
233.4419574645
 30
0.0
 11
45.3233918947
 21
234.2357004674
 31
0.0
  0
LINE
  5
1A1
330
71
100
AcDbEntity
  8
DV1_Default
  6
Continuous
 62
     7
 48
25.4
100
AcDbLine
 10
88.6033918947
 20
233.4419574645
 30
0.0
 11
88.6033918947
 21
234.2357004674
 31
0.0
  0
LINE
  5
1A2
330
71
100
AcDbEntity
  8
DV1_Default
  6
Continuous
 62
     7
 48
25.4
100
AcDbLine
 10
45.3233918947
 20
239.1219574645
 30
0.0
 11
88.6033918947
 21
239.1219574645
 31
0.0
  0
LINE
  5
1A3
330
71
100
AcDbEntity
  8
DV1_Default
  6
Continuous
 62
     7
 48
25.4
100
AcDbLine
 10
45.3233918947
 20
238.9157004674
 30
0.0
 11
45.3233918947
 21
239.1219574645
 31
0.0
  0
LINE
  5
1A4
330
71
100
AcDbEntity
  8
DV1_Default
  6
Continuous
 62
     7
 48
25.4
100
AcDbLine
 10
88.6033918947
 20
238.9157004674
 30
0.0
 11
88.6033918947
 21
239.1219574645
 31
0.0
  0
LINE
  5
1A5
330
71
100
AcDbEntity
  8
DV1_Default
  6
Continuous
 62
     7
 48
25.4
100
AcDbLine
 10
88.6033918947
 20
69.9219574645
 30
0.0
 11
88.6033918947
 21
69.5619574645
 31
0.0
  0
LINE
  5
1A6
330
71
100
AcDbEntity
  8
DV1_Default
  6
Continuous
 62
     7
 48
25.4
100
AcDbLine
 10
88.6033918947
 20
69.9219574645
 30
0.0
 11
45.3233918947
 21
69.9219574645
 31
0.0
  0
LINE
  5
1A7
330
71
100
AcDbEntity
  8
DV1_Default
  6
Continuous
 62
     7
 48
25.4
100
AcDbLine
 10
45.3233918947
 20
69.9219574645
 30
0.0
 11
45.3233918947
 21
69.5619574645
 31
0.0
  0
LINE
  5
1A8
330
71
100
AcDbEntity
  8
DV1_Default
  6
Continuous
 62
     7
 48
25.4
100
AcDbLine
 10
88.6033918947
 20
69.5619574645
 30
0.0
 11
88.6033918947
 21
63.4819574645
 31
0.0
  0
LINE
  5
1A9
330
71
100
AcDbEntity
  8
DV1_Default
  6
Continuous
 62
     7
 48
25.4
100
AcDbLine
 10
45.3233918947
 20
69.5619574645
 30
0.0
 11
45.3233918947
 21
63.4819574645
 31
0.0
  0
LINE
  5
1AA
330
71
100
AcDbEntity
  8
DV1_Default
  6
Continuous
 62
     7
 48
25.4
100
AcDbLine
 10
88.6033918947
 20
63.1219574645
 30
0.0
 11
45.3233918947
 21
63.1219574645
 31
0.0
  0
LINE
  5
1AB
330
71
100
AcDbEntity
  8
DV1_Default
  6
Continuous
 62
     7
 48
25.4
100
AcDbLine
 10
88.6033918947
 20
63.4819574645
 30
0.0
 11
88.6033918947
 21
63.1219574645
 31
0.0
  0
LINE
  5
1AC
330
71
100
AcDbEntity
  8
DV1_Default
  6
Continuous
 62
     7
 48
25.4
100
AcDbLine
 10
45.3233918947
 20
63.4819574645
 30
0.0
 11
45.3233918947
 21
63.1219574645
 31
0.0
  0
LINE
  5
1AD
330
71
100
AcDbEntity
  8
DV1_Default
  6
Continuous
 62
     7
 48
25.4
100
AcDbLine
 10
53.0433918947
 20
232.3219574645
 30
0.0
 11
53.0433918947
 21
232.2819574645
 31
0.0
  0
ARC
  5
1AE
330
71
100
AcDbEntity
  8
DV1_Default
  6
Continuous
 62
     7
 48
25.4
100
AcDbCircle
 10
52.6033918947
 20
232.2819574645
 30
0.0
 40
0.4399999999999993
100
AcDbArc
 50
270.0
 51
360.0
  0
LINE
  5
1AF
330
71
100
AcDbEntity
  8
DV1_Default
  6
Continuous
 62
     7
 48
25.4
100
AcDbLine
 10
52.6033918947
 20
231.8419574645
 30
0.0
 11
49.3233918947
 21
231.8419574645
 31
0.0
  0
ARC
  5
1B0
330
71
100
AcDbEntity
  8
DV1_Default
  6
Continuous
 62
     7
 48
25.4
100
AcDbCircle
 10
49.3233918947
 20
232.2819574645
 30
0.0
 40
0.4400000000000048
100
AcDbArc
 50
180.0
 51
270.0
  0
ARC
  5
1B1
330
71
100
AcDbEntity
  8
DV1_Default
  6
Continuous
 62
     7
 48
25.4
100
AcDbCircle
 10
49.3233918947
 20
232.2819574645
 30
0.0
 40
0.2400000000000091
100
AcDbArc
 50
180.0
 51
270.0
  0
LINE
  5
1B2
330
71
100
AcDbEntity
  8
DV1_Default
  6
Continuous
 62
     7
 48
25.4
100
AcDbLine
 10
49.0833918947
 20
232.2819574645
 30
0.0
 11
49.0833918947
 21
232.3219574645
 31
0.0
  0
LINE
  5
1B3
330
71
100
AcDbEntity
  8
DV1_Default
  6
Continuous
 62
     7
 48
25.4
100
AcDbLine
 10
52.8433918947
 20
232.3219574645
 30
0.0
 11
52.8433918947
 21
232.2819574645
 31
0.0
  0
ARC
  5
1B4
330
71
100
AcDbEntity
  8
DV1_Default
  6
Continuous
 62
     7
 48
25.4
100
AcDbCircle
 10
52.6033918947
 20
232.2819574645
 30
0.0
 40
0.2400000000000002
100
AcDbArc
 50
270.0
 51
360.0
  0
LINE
  5
1B5
330
71
100
AcDbEntity
  8
DV1_Default
  6
Continuous
 62
     7
 48
25.4
100
AcDbLine
 10
52.6033918947
 20
232.0419574645
 30
0.0
 11
49.3233918947
 21
232.0419574645
 31
0.0
  0
LINE
  5
1B6
330
71
100
AcDbEntity
  8
DV1_Default
  6
Continuous
 62
     7
 48
25.4
100
AcDbLine
 10
48.8833918947
 20
232.3219574645
 30
0.0
 11
48.8833918947
 21
232.2819574645
 31
0.0
  0
LINE
  5
1B7
330
71
100
AcDbEntity
  8
DV1_Default
  6
Continuous
 62
     7
 48
25.4
100
AcDbLine
 10
45.3633918947
 20
234.2357004674
 30
0.0
 11
45.3633918947
 21
216.3219574645
 31
0.0
  0
LINE
  5
1B8
330
71
100
AcDbEntity
  8
DV1_Default
  6
Continuous
 62
     7
 48
25.4
100
AcDbLine
 10
45.5633918947
 20
220.7219574645
 30
0.0
 11
88.6033918947
 21
220.7219574645
 31
0.0
  0
LINE
  5
1B9
330
71
100
AcDbEntity
  8
DV1_Default
  6
Continuous
 62
     7
 48
25.4
100
AcDbLine
 10
42.9633918947
 20
232.9219574645
 30
0.0
 11
42.9633918947
 21
220.9219574645
 31
0.0
  0
LINE
  5
1BA
330
71
100
AcDbEntity
  8
DV1_Default
  6
Continuous
 62
     7
 48
25.4
100
AcDbLine
 10
90.9633918947
 20
220.9219574645
 30
0.0
 11
90.9633918947
 21
232.9219574645
 31
0.0
  0
CIRCLE
  5
1BB
330
71
100
AcDbEntity
  8
DV1_Default
  6
Continuous
 62
     7
 48
25.4
100
AcDbCircle
 10
44.1633918947
 20
222.5219574645
 30
0.0
 40
0.4
  0
CIRCLE
  5
1BC
330
71
100
AcDbEntity
  8
DV1_Default
  6
Continuous
 62
     7
 48
25.4
100
AcDbCircle
 10
89.7633918947
 20
231.3219574645
 30
0.0
 40
0.4
  0
CIRCLE
  5
1BD
330
71
100
AcDbEntity
  8
DV1_Default
  6
Continuous
 62
     7
 48
25.4
100
AcDbCircle
 10
89.7633918947
 20
222.5219574645
 30
0.0
 40
0.4
  0
CIRCLE
  5
1BE
330
71
100
AcDbEntity
  8
DV1_Default
  6
Continuous
 62
     7
 48
25.4
100
AcDbCircle
 10
44.1633918947
 20
231.3219574645
 30
0.0
 40
0.4000000000000004
  0
LINE
  5
1BF
330
71
100
AcDbEntity
  8
DV1_Default
  6
Continuous
 62
     7
 48
25.4
100
AcDbLine
 10
52.1633918947
 20
223.1219574645
 30
0.0
 11
52.1633918947
 21
225.1219574645
 31
0.0
  0
LINE
  5
1C0
330
71
100
AcDbEntity
  8
DV1_Default
  6
Continuous
 62
     7
 48
25.4
100
AcDbLine
 10
49.7633918947
 20
223.1219574645
 30
0.0
 11
49.7633918947
 21
225.1219574645
 31
0.0
  0
LINE
  5
1C1
330
71
100
AcDbEntity
  8
DV1_Default
  6
Continuous
 62
     7
 48
25.4
100
AcDbLine
 10
45.3633918947
 20
223.9459574645
 30
0.0
 11
49.7633918947
 21
223.9459574645
 31
0.0
  0
LINE
  5
1C2
330
71
100
AcDbEntity
  8
DV1_Default
  6
Continuous
 62
     7
 48
25.4
100
AcDbLine
 10
52.1633918947
 20
223.9459574645
 30
0.0
 11
56.1633918947
 21
223.9459574645
 31
0.0
  0
LINE
  5
1C3
330
71
100
AcDbEntity
  8
DV1_Default
  6
Continuous
 62
     7
 48
25.4
100
AcDbLine
 10
62.5633918947
 20
223.9459574645
 30
0.0
 11
71.3633918947
 21
223.9459574645
 31
0.0
  0
LINE
  5
1C4
330
71
100
AcDbEntity
  8
DV1_Default
  6
Continuous
 62
     7
 48
25.4
100
AcDbLine
 10
77.7633918947
 20
223.9459574645
 30
0.0
 11
81.7633918947
 21
223.9459574645
 31
0.0
  0
LINE
  5
1C5
330
71
100
AcDbEntity
  8
DV1_Default
  6
Continuous
 62
     7
 48
25.4
100
AcDbLine
 10
84.1633918947
 20
223.9459574645
 30
0.0
 11
88.5633918947
 21
223.9459574645
 31
0.0
  0
LINE
  5
1C6
330
71
100
AcDbEntity
  8
DV1_Default
  6
Continuous
 62
     7
 48
25.4
100
AcDbLine
 10
88.5633918947
 20
230.3459574645
 30
0.0
 11
84.1633918947
 21
230.3459574645
 31
0.0
  0
LINE
  5
1C7
330
71
100
AcDbEntity
  8
DV1_Default
  6
Continuous
 62
     7
 48
25.4
100
AcDbLine
 10
81.7633918947
 20
230.3459574645
 30
0.0
 11
52.1633918947
 21
230.3459574645
 31
0.0
  0
LINE
  5
1C8
330
71
100
AcDbEntity
  8
DV1_Default
  6
Continuous
 62
     7
 48
25.4
100
AcDbLine
 10
49.7633918947
 20
230.3459574645
 30
0.0
 11
45.3633918947
 21
230.3459574645
 31
0.0
  0
CIRCLE
  5
1C9
330
71
100
AcDbEntity
  8
DV1_Default
  6
Continuous
 62
     7
 48
25.4
100
AcDbCircle
 10
87.7633918947
 20
225.5459574645
 30
0.0
 40
0.54
  0
CIRCLE
  5
1CA
330
71
100
AcDbEntity
  8
DV1_Default
  6
Continuous
 62
     7
 48
25.4
100
AcDbCircle
 10
46.1633918947
 20
225.5459574645
 30
0.0
 40
0.54
  0
CIRCLE
  5
1CB
330
71
100
AcDbEntity
  8
DV1_Default
  6
Continuous
 62
     7
 48
25.4
100
AcDbCircle
 10
76.1633918947
 20
225.5459574645
 30
0.0
 40
0.58
  0
CIRCLE
  5
1CC
330
71
100
AcDbEntity
  8
DV1_Default
  6
Continuous
 62
     7
 48
25.4
100
AcDbCircle
 10
72.9633918947
 20
225.5459574645
 30
0.0
 40
0.58
  0
CIRCLE
  5
1CD
330
71
100
AcDbEntity
  8
DV1_Default
  6
Continuous
 62
     7
 48
25.4
100
AcDbCircle
 10
69.7633918947
 20
225.5459574645
 30
0.0
 40
0.58
  0
CIRCLE
  5
1CE
330
71
100
AcDbEntity
  8
DV1_Default
  6
Continuous
 62
     7
 48
25.4
100
AcDbCircle
 10
64.1633918947
 20
225.5459574645
 30
0.0
 40
0.58
  0
CIRCLE
  5
1CF
330
71
100
AcDbEntity
  8
DV1_Default
  6
Continuous
 62
     7
 48
25.4
100
AcDbCircle
 10
54.5633918947
 20
225.5459574645
 30
0.0
 40
0.58
  0
CIRCLE
  5
1D0
330
71
100
AcDbEntity
  8
DV1_Default
  6
Continuous
 62
     7
 48
25.4
100
AcDbCircle
 10
79.3633918947
 20
225.5459574645
 30
0.0
 40
0.58
  0
TEXT
  5
1D1
330
71
100
AcDbEntity
  8
DV1_Default
  6
Continuous
 62
     7
 48
25.4
100
AcDbText
 10
53.1386448718
 20
71.2252379836
 30
0.0
 40
1.6
  1
PE
  7
SEACAD_arial_ttf
 11
53.1386448718
 21
72.8252379836
 31
0.0
100
AcDbText
 73
     3
  0
LINE
  5
1D2
330
71
100
AcDbEntity
  8
DV1_Default
  6
Continuous
 62
     7
 48
25.4
100
AcDbLine
 10
52.1633918947
 20
223.1219574645
 30
0.0
 11
49.7633918947
 21
223.1219574645
 31
0.0
  0
LINE
  5
1D3
330
71
100
AcDbEntity
  8
DV1_Default
  6
Continuous
 62
     7
 48
25.4
100
AcDbLine
 10
81.7633918947
 20
223.1219574645
 30
0.0
 11
84.1633918947
 21
223.1219574645
 31
0.0
  0
LINE
  5
1D4
330
71
100
AcDbEntity
  8
DV1_Default
  6
Continuous
 62
     7
 48
25.4
100
AcDbLine
 10
42.9633918947
 20
238.7619574645
 30
0.0
 11
42.2433918947
 21
238.7619574645
 31
0.0
  0
LINE
  5
1D5
330
71
100
AcDbEntity
  8
DV1_Default
  6
Continuous
 62
     7
 48
25.4
100
AcDbLine
 10
42.2433918947
 20
238.7619574645
 30
0.0
 11
42.2433918947
 21
63.4819574645
 31
0.0
  0
LINE
  5
1D6
330
71
100
AcDbEntity
  8
DV1_Default
  6
Continuous
 62
     7
 48
25.4
100
AcDbLine
 10
42.9633918947
 20
63.4819574645
 30
0.0
 11
42.2433918947
 21
63.4819574645
 31
0.0
  0
LINE
  5
1D7
330
71
100
AcDbEntity
  8
DV1_Default
  6
Continuous
 62
     7
 48
25.4
100
AcDbLine
 10
71.3633918947
 20
227.1459574645
 30
0.0
 11
77.7633918947
 21
227.1459574645
 31
0.0
  0
CIRCLE
  5
1D8
330
71
100
AcDbEntity
  8
DV1_Default
  6
Continuous
 62
     7
 48
25.4
100
AcDbCircle
 10
57.7633918947
 20
225.5459574645
 30
0.0
 40
0.58
  0
CIRCLE
  5
1D9
330
71
100
AcDbEntity
  8
DV1_Default
  6
Continuous
 62
     7
 48
25.4
100
AcDbCircle
 10
60.9633918947
 20
225.5459574645
 30
0.0
 40
0.58
  0
LINE
  5
1DA
330
71
100
AcDbEntity
  8
DV1_Default
  6
Continuous
 62
     7
 48
25.4
100
AcDbLine
 10
88.6170749474
 20
229.0448898345
 30
0.0
 11
45.3370749474
 21
229.0448898345
 31
0.0
  0
LINE
  5
1DB
330
71
100
AcDbEntity
  8
DV1_Default
  6
Continuous
 62
     7
 48
25.4
100
AcDbLine
 10
88.6170749474
 20
228.4099222268
 30
0.0
 11
45.3370749474
 21
228.4099222268
 31
0.0
  0
LINE
  5
1DC
330
71
100
AcDbEntity
  8
DV1_Default
  6
Continuous
 62
     7
 48
25.4
100
AcDbLine
 10
88.6544259832
 20
226.9905828683
 30
0.0
 11
45.3744259832
 21
226.9905828683
 31
0.0
  0
LINE
  5
1DD
330
71
100
AcDbEntity
  8
DV1_Default
  6
Continuous
 62
     7
 48
25.4
100
AcDbLine
 10
88.6544259832
 20
226.3182642248
 30
0.0
 11
45.3744259832
 21
226.3182642248
 31
0.0
  0
LINE
  5
1DE
330
71
100
AcDbEntity
  8
DV1_Default
  6
Continuous
 62
     7
 48
25.4
100
AcDbLine
 10
71.3633918947
 20
227.1459574645
 30
0.0
 11
71.3633918947
 21
226.9905828683
 31
0.0
  0
LINE
  5
1DF
330
71
100
AcDbEntity
  8
DV1_Default
  6
Continuous
 62
     7
 48
25.4
100
AcDbLine
 10
77.7633918947
 20
227.1459574645
 30
0.0
 11
77.7633918947
 21
226.9905828683
 31
0.0
  0
LINE
  5
1E0
330
71
100
AcDbEntity
  8
DV1_Default
  6
Continuous
 62
     7
 48
25.4
100
AcDbLine
 10
49.7633918947
 20
226.3182642248
 30
0.0
 11
49.7633918947
 21
225.4419574645
 31
0.0
  0
LINE
  5
1E1
330
71
100
AcDbEntity
  8
DV1_Default
  6
Continuous
 62
     7
 48
25.4
100
AcDbLine
 10
52.1633918947
 20
226.3182642248
 30
0.0
 11
52.1633918947
 21
225.4419574645
 31
0.0
  0
LINE
  5
1E2
330
71
100
AcDbEntity
  8
DV1_Default
  6
Continuous
 62
     7
 48
25.4
100
AcDbLine
 10
81.7633918947
 20
226.3182642248
 30
0.0
 11
81.7633918947
 21
225.4419574645
 31
0.0
  0
LINE
  5
1E3
330
71
100
AcDbEntity
  8
DV1_Default
  6
Continuous
 62
     7
 48
25.4
100
AcDbLine
 10
84.1633918947
 20
226.3182642248
 30
0.0
 11
84.1633918947
 21
225.4419574645
 31
0.0
  0
LINE
  5
1E4
330
71
100
AcDbEntity
  8
DV1_Default
  6
Continuous
 62
     7
 48
25.4
100
AcDbLine
 10
84.1633918947
 20
228.4099222268
 30
0.0
 11
84.1633918947
 21
226.9905828683
 31
0.0
  0
LINE
  5
1E5
330
71
100
AcDbEntity
  8
DV1_Default
  6
Continuous
 62
     7
 48
25.4
100
AcDbLine
 10
81.7633918947
 20
228.4099222268
 30
0.0
 11
81.7633918947
 21
226.9905828683
 31
0.0
  0
LINE
  5
1E6
330
71
100
AcDbEntity
  8
DV1_Default
  6
Continuous
 62
     7
 48
25.4
100
AcDbLine
 10
52.1633918947
 20
228.4099222268
 30
0.0
 11
52.1633918947
 21
226.9905828683
 31
0.0
  0
LINE
  5
1E7
330
71
100
AcDbEntity
  8
DV1_Default
  6
Continuous
 62
     7
 48
25.4
100
AcDbLine
 10
49.7633918947
 20
228.4099222268
 30
0.0
 11
49.7633918947
 21
226.9905828683
 31
0.0
  0
ARC
  5
1E8
330
71
100
AcDbEntity
  8
DV1_Default
  6
Continuous
 62
     7
 48
25.4
100
AcDbCircle
 10
46.1633918947
 20
228.7459574645
 30
0.0
 40
0.54
100
AcDbArc
 50
33.6128585626
 51
146.3871414374
  0
ARC
  5
1E9
330
71
100
AcDbEntity
  8
DV1_Default
  6
Continuous
 62
     7
 48
25.4
100
AcDbCircle
 10
46.1633918947
 20
228.7459574645
 30
0.0
 40
0.54
100
AcDbArc
 50
218.4833712806
 51
321.5166287194
  0
ARC
  5
1EA
330
71
100
AcDbEntity
  8
DV1_Default
  6
Continuous
 62
     7
 48
25.4
100
AcDbCircle
 10
87.7633918947
 20
228.7459574645
 30
0.0
 40
0.54
100
AcDbArc
 50
33.6128585626
 51
146.3871414374
  0
ARC
  5
1EB
330
71
100
AcDbEntity
  8
DV1_Default
  6
Continuous
 62
     7
 48
25.4
100
AcDbCircle
 10
87.7633918947
 20
228.7459574645
 30
0.0
 40
0.54
100
AcDbArc
 50
218.4833712806
 51
321.5166287194
  0
LINE
  5
1EC
330
71
100
AcDbEntity
  8
DV1_Default
  6
Continuous
 62
     7
 48
25.4
100
AcDbLine
 10
83.1233918947
 20
229.2819574645
 30
0.0
 11
83.1233918947
 21
229.0448898345
 31
0.0
  0
LINE
  5
1ED
330
71
100
AcDbEntity
  8
DV1_Default
  6
Continuous
 62
     7
 48
25.4
100
AcDbLine
 10
83.9233918947
 20
229.2819574645
 30
0.0
 11
83.9233918947
 21
229.0448898345
 31
0.0
  0
LINE
  5
1EE
330
71
100
AcDbEntity
  8
DV1_Default
  6
Continuous
 62
     7
 48
25.4
100
AcDbLine
 10
51.1233918947
 20
229.2819574645
 30
0.0
 11
51.1233918947
 21
229.0448898345
 31
0.0
  0
LINE
  5
1EF
330
71
100
AcDbEntity
  8
DV1_Default
  6
Continuous
 62
     7
 48
25.4
100
AcDbLine
 10
51.9233918947
 20
229.2819574645
 30
0.0
 11
51.9233918947
 21
229.0448898345
 31
0.0
  0
ENDBLK
  5
1F1
330
71
100
AcDbEntity
  8
0
100
AcDbBlockEnd
  0
BLOCK
  5
301
330
1F4
100
AcDbEntity
  8
0
100
AcDbBlockBegin
  2
SE1
 70
     0
 71
     0
 10
0.0
 20
0.0
 30
0.0
  3
SE1
  1

  0
LINE
  5
1F7
330
1F4
100
AcDbEntity
  8
DV2_Default
  6
Continuous
 62
     7
 48
25.4
100
AcDbLine
 10
307.2528945234
 20
267.3548038551
 30
0.0
 11
307.2528945234
 21
265.0028038551
 31
0.0
  0
LINE
  5
1F8
330
1F4
100
AcDbEntity
  8
DV2_Default
  6
Continuous
 62
     7
 48
25.4
100
AcDbLine
 10
308.0528945234
 20
265.0028038551
 30
0.0
 11
308.0528945234
 21
267.3548038551
 31
0.0
  0
LINE
  5
1F9
330
1F4
100
AcDbEntity
  8
DV2_Default
  6
Continuous
 62
     7
 48
25.4
100
AcDbLine
 10
307.3264945234
 20
265.0028038551
 30
0.0
 11
307.3264945234
 21
267.3548038551
 31
0.0
  0
LINE
  5
1FA
330
1F4
100
AcDbEntity
  8
DV2_Default
  6
Continuous
 62
     7
 48
25.4
100
AcDbLine
 10
307.9792945234
 20
265.0028038551
 30
0.0
 11
307.9792945234
 21
267.3548038551
 31
0.0
  0
LINE
  5
1FB
330
1F4
100
AcDbEntity
  8
DV2_Default
  6
Continuous
 62
     7
 48
25.4
100
AcDbLine
 10
302.7728945234
 20
262.9788038551
 30
0.0
 11
302.7728945234
 21
269.3788038551
 31
0.0
  0
LINE
  5
1FC
330
1F4
100
AcDbEntity
  8
DV2_Default
  6
Continuous
 62
     7
 48
25.4
100
AcDbLine
 10
303.5728945234
 20
262.9788038551
 30
0.0
 11
303.5728945234
 21
269.3788038551
 31
0.0
  0
LINE
  5
1FD
330
1F4
100
AcDbEntity
  8
DV2_Default
  6
Continuous
 62
     7
 48
25.4
100
AcDbLine
 10
302.7728945234
 20
262.9788038551
 30
0.0
 11
303.5728945234
 21
262.9788038551
 31
0.0
  0
LINE
  5
1FE
330
1F4
100
AcDbEntity
  8
DV2_Default
  6
Continuous
 62
     7
 48
25.4
100
AcDbLine
 10
302.7728945234
 20
269.3788038551
 30
0.0
 11
303.5728945234
 21
269.3788038551
 31
0.0
  0
LINE
  5
1FF
330
1F4
100
AcDbEntity
  8
DV2_Default
  6
Continuous
 62
     7
 48
25.4
100
AcDbLine
 10
309.9328945234
 20
262.9788038551
 30
0.0
 11
309.9328945234
 21
269.3788038551
 31
0.0
  0
LINE
  5
200
330
1F4
100
AcDbEntity
  8
DV2_Default
  6
Continuous
 62
     7
 48
25.4
100
AcDbLine
 10
310.7328945234
 20
262.9788038551
 30
0.0
 11
310.7328945234
 21
269.3788038551
 31
0.0
  0
LINE
  5
201
330
1F4
100
AcDbEntity
  8
DV2_Default
  6
Continuous
 62
     7
 48
25.4
100
AcDbLine
 10
309.9328945234
 20
262.9788038551
 30
0.0
 11
310.7328945234
 21
262.9788038551
 31
0.0
  0
LINE
  5
202
330
1F4
100
AcDbEntity
  8
DV2_Default
  6
Continuous
 62
     7
 48
25.4
100
AcDbLine
 10
309.9328945234
 20
269.3788038551
 30
0.0
 11
310.7328945234
 21
269.3788038551
 31
0.0
  0
LINE
  5
203
330
1F4
100
AcDbEntity
  8
DV2_Default
  6
Continuous
 62
     7
 48
25.4
100
AcDbLine
 10
304.4528945234
 20
262.9788038551
 30
0.0
 11
304.4528945234
 21
269.3788038551
 31
0.0
  0
LINE
  5
204
330
1F4
100
AcDbEntity
  8
DV2_Default
  6
Continuous
 62
     7
 48
25.4
100
AcDbLine
 10
305.2528945234
 20
262.9788038551
 30
0.0
 11
305.2528945234
 21
269.3788038551
 31
0.0
  0
LINE
  5
205
330
1F4
100
AcDbEntity
  8
DV2_Default
  6
Continuous
 62
     7
 48
25.4
100
AcDbLine
 10
304.4528945234
 20
262.9788038551
 30
0.0
 11
305.2528945234
 21
262.9788038551
 31
0.0
  0
LINE
  5
206
330
1F4
100
AcDbEntity
  8
DV2_Default
  6
Continuous
 62
     7
 48
25.4
100
AcDbLine
 10
303.5728945234
 20
269.3788038551
 30
0.0
 11
305.2528945234
 21
269.3788038551
 31
0.0
  0
LINE
  5
207
330
1F4
100
AcDbEntity
  8
DV2_Default
  6
Continuous
 62
     7
 48
25.4
100
AcDbLine
 10
299.7328945234
 20
267.3548038551
 30
0.0
 11
299.7328945234
 21
270.8748038551
 31
0.0
  0
LINE
  5
208
330
1F4
100
AcDbEntity
  8
DV2_Default
  6
Continuous
 62
     7
 48
25.4
100
AcDbLine
 10
315.5728945234
 20
270.8748038551
 30
0.0
 11
315.5728945234
 21
267.3548038551
 31
0.0
  0
LINE
  5
209
330
1F4
100
AcDbEntity
  8
DV2_Default
  6
Continuous
 62
     7
 48
25.4
100
AcDbLine
 10
315.5728945234
 20
267.3548038551
 30
0.0
 11
312.5328945234
 21
267.3548038551
 31
0.0
  0
LINE
  5
20A
330
1F4
100
AcDbEntity
  8
DV2_Default
  6
Continuous
 62
     7
 48
25.4
100
AcDbLine
 10
309.9328945234
 20
267.3548038551
 30
0.0
 11
305.3728945234
 21
267.3548038551
 31
0.0
  0
LINE
  5
20B
330
1F4
100
AcDbEntity
  8
DV2_Default
  6
Continuous
 62
     7
 48
25.4
100
AcDbLine
 10
302.7728945234
 20
267.3548038551
 30
0.0
 11
299.7328945234
 21
267.3548038551
 31
0.0
  0
LINE
  5
20C
330
1F4
100
AcDbEntity
  8
DV2_Default
  6
Continuous
 62
     7
 48
25.4
100
AcDbLine
 10
305.2528945234
 20
269.3788038551
 30
0.0
 11
305.3728945234
 21
269.3788038551
 31
0.0
  0
LINE
  5
20D
330
1F4
100
AcDbEntity
  8
DV2_Default
  6
Continuous
 62
     7
 48
25.4
100
AcDbLine
 10
305.3728945234
 20
269.3788038551
 30
0.0
 11
305.3728945234
 21
267.3548038551
 31
0.0
  0
LINE
  5
20E
330
1F4
100
AcDbEntity
  8
DV2_Default
  6
Continuous
 62
     7
 48
25.4
100
AcDbLine
 10
312.4128945234
 20
269.3788038551
 30
0.0
 11
312.5328945234
 21
269.3788038551
 31
0.0
  0
LINE
  5
20F
330
1F4
100
AcDbEntity
  8
DV2_Default
  6
Continuous
 62
     7
 48
25.4
100
AcDbLine
 10
312.5328945234
 20
269.3788038551
 30
0.0
 11
312.5328945234
 21
267.3548038551
 31
0.0
  0
LINE
  5
210
330
1F4
100
AcDbEntity
  8
DV2_Default
  6
Continuous
 62
     7
 48
25.4
100
AcDbLine
 10
315.5728945234
 20
265.0028038551
 30
0.0
 11
315.5728945234
 21
261.4828038551
 31
0.0
  0
LINE
  5
211
330
1F4
100
AcDbEntity
  8
DV2_Default
  6
Continuous
 62
     7
 48
25.4
100
AcDbLine
 10
315.5728945234
 20
261.4828038551
 30
0.0
 11
299.7328945234
 21
261.4828038551
 31
0.0
  0
LINE
  5
212
330
1F4
100
AcDbEntity
  8
DV2_Default
  6
Continuous
 62
     7
 48
25.4
100
AcDbLine
 10
299.7328945234
 20
261.4828038551
 30
0.0
 11
299.7328945234
 21
265.0028038551
 31
0.0
  0
LINE
  5
213
330
1F4
100
AcDbEntity
  8
DV2_Default
  6
Continuous
 62
     7
 48
25.4
100
AcDbLine
 10
299.7328945234
 20
265.0028038551
 30
0.0
 11
302.7728945234
 21
265.0028038551
 31
0.0
  0
LINE
  5
214
330
1F4
100
AcDbEntity
  8
DV2_Default
  6
Continuous
 62
     7
 48
25.4
100
AcDbLine
 10
305.3728945234
 20
265.0028038551
 30
0.0
 11
309.9328945234
 21
265.0028038551
 31
0.0
  0
LINE
  5
215
330
1F4
100
AcDbEntity
  8
DV2_Default
  6
Continuous
 62
     7
 48
25.4
100
AcDbLine
 10
305.3728945234
 20
262.9788038551
 30
0.0
 11
305.2528945234
 21
262.9788038551
 31
0.0
  0
LINE
  5
216
330
1F4
100
AcDbEntity
  8
DV2_Default
  6
Continuous
 62
     7
 48
25.4
100
AcDbLine
 10
305.3728945234
 20
265.0028038551
 30
0.0
 11
305.3728945234
 21
262.9788038551
 31
0.0
  0
LINE
  5
217
330
1F4
100
AcDbEntity
  8
DV2_Default
  6
Continuous
 62
     7
 48
25.4
100
AcDbLine
 10
312.5328945234
 20
265.0028038551
 30
0.0
 11
315.5728945234
 21
265.0028038551
 31
0.0
  0
LINE
  5
218
330
1F4
100
AcDbEntity
  8
DV2_Default
  6
Continuous
 62
     7
 48
25.4
100
AcDbLine
 10
312.5328945234
 20
265.0028038551
 30
0.0
 11
312.5328945234
 21
262.9788038551
 31
0.0
  0
LINE
  5
219
330
1F4
100
AcDbEntity
  8
DV2_Default
  6
Continuous
 62
     7
 48
25.4
100
AcDbLine
 10
312.5328945234
 20
262.9788038551
 30
0.0
 11
312.4128945234
 21
262.9788038551
 31
0.0
  0
LINE
  5
21A
330
1F4
100
AcDbEntity
  8
DV2_Default
  6
Continuous
 62
     7
 48
25.4
100
AcDbLine
 10
310.8528945234
 20
262.9788038551
 30
0.0
 11
310.7328945234
 21
262.9788038551
 31
0.0
  0
LINE
  5
21B
330
1F4
100
AcDbEntity
  8
DV2_Default
  6
Continuous
 62
     7
 48
25.4
100
AcDbLine
 10
303.5205750211
 20
262.9788038551
 30
0.0
 11
303.4005750211
 21
262.9788038551
 31
0.0
  0
LINE
  5
21C
330
1F4
100
AcDbEntity
  8
DV2_Default
  6
Continuous
 62
     7
 48
25.4
100
AcDbLine
 10
299.5728945234
 20
270.8748038551
 30
0.0
 11
319.6528945234
 21
270.8748038551
 31
0.0
  0
LINE
  5
21D
330
1F4
100
AcDbEntity
  8
DV2_Default
  6
Continuous
 62
     7
 48
25.4
100
AcDbLine
 10
299.5728945234
 20
271.3548038551
 30
0.0
 11
299.5728945234
 21
271.3148038551
 31
0.0
  0
LINE
  5
21E
330
1F4
100
AcDbEntity
  8
DV2_Default
  6
Continuous
 62
     7
 48
25.4
100
AcDbLine
 10
299.5728945234
 20
270.8748038551
 30
0.0
 11
299.5728945234
 21
271.3148038551
 31
0.0
  0
LINE
  5
21F
330
1F4
100
AcDbEntity
  8
DV2_Default
  6
Continuous
 62
     7
 48
25.4
100
AcDbLine
 10
322.8528945234
 20
270.8748038551
 30
0.0
 11
327.3328945234
 21
270.8748038551
 31
0.0
  0
LINE
  5
220
330
1F4
100
AcDbEntity
  8
DV2_Default
  6
Continuous
 62
     7
 48
25.4
100
AcDbLine
 10
322.8528945234
 20
271.3548038551
 30
0.0
 11
322.8528945234
 21
271.3148038551
 31
0.0
  0
LINE
  5
221
330
1F4
100
AcDbEntity
  8
DV2_Default
  6
Continuous
 62
     7
 48
25.4
100
AcDbLine
 10
322.8528945234
 20
270.8748038551
 30
0.0
 11
322.8528945234
 21
271.3148038551
 31
0.0
  0
LINE
  5
222
330
1F4
100
AcDbEntity
  8
DV2_Default
  6
Continuous
 62
     7
 48
25.4
100
AcDbLine
 10
319.6528945234
 20
271.3148038551
 30
0.0
 11
319.6528945234
 21
271.3548038551
 31
0.0
  0
LINE
  5
223
330
1F4
100
AcDbEntity
  8
DV2_Default
  6
Continuous
 62
     7
 48
25.4
100
AcDbLine
 10
319.6528945234
 20
271.3148038551
 30
0.0
 11
319.6528945234
 21
270.8748038551
 31
0.0
  0
LINE
  5
224
330
1F4
100
AcDbEntity
  8
DV2_Default
  6
Continuous
 62
     7
 48
25.4
100
AcDbLine
 10
327.3328945234
 20
270.8748038551
 30
0.0
 11
327.3328945234
 21
271.3148038551
 31
0.0
  0
LINE
  5
225
330
1F4
100
AcDbEntity
  8
DV2_Default
  6
Continuous
 62
     7
 48
25.4
100
AcDbLine
 10
327.3328945234
 20
271.3548038551
 30
0.0
 11
327.3328945234
 21
271.3148038551
 31
0.0
  0
LINE
  5
226
330
1F4
100
AcDbEntity
  8
DV2_Default
  6
Continuous
 62
     7
 48
25.4
100
AcDbLine
 10
334.7728945234
 20
272.4748038551
 30
0.0
 11
334.7328945234
 21
272.4748038551
 31
0.0
  0
LINE
  5
227
330
1F4
100
AcDbEntity
  8
DV2_Default
  6
Continuous
 62
     7
 48
25.4
100
AcDbLine
 10
334.7728945234
 20
272.5148038551
 30
0.0
 11
334.7728945234
 21
272.4748038551
 31
0.0
  0
LINE
  5
228
330
1F4
100
AcDbEntity
  8
DV2_Default
  6
Continuous
 62
     7
 48
25.4
100
AcDbLine
 10
297.9728945234
 20
272.4748038551
 30
0.0
 11
297.9728945234
 21
272.5948038551
 31
0.0
  0
LINE
  5
229
330
1F4
100
AcDbEntity
  8
DV2_Default
  6
Continuous
 62
     7
 48
25.4
100
AcDbLine
 10
297.9728945234
 20
272.4748038551
 30
0.0
 11
298.0928945234
 21
272.4748038551
 31
0.0
  0
LINE
  5
22A
330
1F4
100
AcDbEntity
  8
DV2_Default
  6
Continuous
 62
     7
 48
25.4
100
AcDbLine
 10
323.1507903937
 20
273.5005789587
 30
0.0
 11
322.6033833864
 21
273.301339102
 31
0.0
  0
LINE
  5
22B
330
1F4
100
AcDbEntity
  8
DV2_Default
  6
Continuous
 62
     7
 48
25.4
100
AcDbLine
 10
303.2617675396
 20
273.4036768714
 30
0.0
 11
303.2499359207
 21
273.4155084904
 31
0.0
  0
ARC
  5
22C
330
1F4
100
AcDbEntity
  8
DV2_Default
  6
Continuous
 62
     7
 48
25.4
100
AcDbCircle
 10
303.5728945234
 20
273.7148038551
 30
0.0
 40
0.4400000000000049
100
AcDbArc
 50
225.0
 51
270.0
  0
LINE
  5
22D
330
1F4
100
AcDbEntity
  8
DV2_Default
  6
Continuous
 62
     7
 48
25.4
100
AcDbLine
 10
321.5720936325
 20
273.2748038551
 30
0.0
 11
320.8536954142
 21
273.2748038551
 31
0.0
  0
LINE
  5
22E
330
1F4
100
AcDbEntity
  8
DV2_Default
  6
Continuous
 62
     7
 48
25.4
100
AcDbLine
 10
319.9720936325
 20
273.2748038551
 30
0.0
 11
319.2536954142
 21
273.2748038551
 31
0.0
  0
LINE
  5
22F
330
1F4
100
AcDbEntity
  8
DV2_Default
  6
Continuous
 62
     7
 48
25.4
100
AcDbLine
 10
318.3720936325
 20
273.2748038551
 30
0.0
 11
317.6536954142
 21
273.2748038551
 31
0.0
  0
LINE
  5
230
330
1F4
100
AcDbEntity
  8
DV2_Default
  6
Continuous
 62
     7
 48
25.4
100
AcDbLine
 10
316.7720936325
 20
273.2748038551
 30
0.0
 11
316.0536954142
 21
273.2748038551
 31
0.0
  0
LINE
  5
231
330
1F4
100
AcDbEntity
  8
DV2_Default
  6
Continuous
 62
     7
 48
25.4
100
AcDbLine
 10
315.1720936325
 20
273.2748038551
 30
0.0
 11
314.4536954142
 21
273.2748038551
 31
0.0
  0
LINE
  5
232
330
1F4
100
AcDbEntity
  8
DV2_Default
  6
Continuous
 62
     7
 48
25.4
100
AcDbLine
 10
313.5720936325
 20
273.2748038551
 30
0.0
 11
312.8536954142
 21
273.2748038551
 31
0.0
  0
LINE
  5
233
330
1F4
100
AcDbEntity
  8
DV2_Default
  6
Continuous
 62
     7
 48
25.4
100
AcDbLine
 10
311.9720936325
 20
273.2748038551
 30
0.0
 11
311.2536954142
 21
273.2748038551
 31
0.0
  0
LINE
  5
234
330
1F4
100
AcDbEntity
  8
DV2_Default
  6
Continuous
 62
     7
 48
25.4
100
AcDbLine
 10
310.3720936325
 20
273.2748038551
 30
0.0
 11
309.6536954142
 21
273.2748038551
 31
0.0
  0
LINE
  5
235
330
1F4
100
AcDbEntity
  8
DV2_Default
  6
Continuous
 62
     7
 48
25.4
100
AcDbLine
 10
308.7720936325
 20
273.2748038551
 30
0.0
 11
308.0536954142
 21
273.2748038551
 31
0.0
  0
LINE
  5
236
330
1F4
100
AcDbEntity
  8
DV2_Default
  6
Continuous
 62
     7
 48
25.4
100
AcDbLine
 10
307.1720936325
 20
273.2748038551
 30
0.0
 11
306.4536954142
 21
273.2748038551
 31
0.0
  0
LINE
  5
237
330
1F4
100
AcDbEntity
  8
DV2_Default
  6
Continuous
 62
     7
 48
25.4
100
AcDbLine
 10
305.5720936325
 20
273.2748038551
 30
0.0
 11
304.8536954142
 21
273.2748038551
 31
0.0
  0
LINE
  5
238
330
1F4
100
AcDbEntity
  8
DV2_Default
  6
Continuous
 62
     7
 48
25.4
100
AcDbLine
 10
303.9720936325
 20
273.2748038551
 30
0.0
 11
303.5728945234
 21
273.2748038551
 31
0.0
  0
ARC
  5
239
330
1F4
100
AcDbEntity
  8
DV2_Default
  6
Continuous
 62
     7
 48
25.4
100
AcDbCircle
 10
322.4528945234
 20
273.7148038551
 30
0.0
 40
0.4400000000000289
100
AcDbArc
 50
270.0
 51
290.0
  0
LINE
  5
23A
330
1F4
100
AcDbEntity
  8
DV2_Default
  6
Continuous
 62
     7
 48
25.4
100
AcDbLine
 10
315.9728945234
 20
270.5548038551
 30
0.0
 11
315.9728945234
 21
263.1948038551
 31
0.0
  0
ARC
  5
23B
330
1F4
100
AcDbEntity
  8
DV2_Default
  6
Continuous
 62
     7
 48
25.4
100
AcDbCircle
 10
316.2928945234
 20
270.5548038551
 30
0.0
 40
0.3200000000000003
100
AcDbArc
 50
90.0
 51
180.0
  0
LINE
  5
23C
330
1F4
100
AcDbEntity
  8
DV2_Default
  6
Continuous
 62
     7
 48
25.4
100
AcDbLine
 10
322.8528945234
 20
270.8748038551
 30
0.0
 11
319.6528945234
 21
270.8748038551
 31
0.0
  0
ARC
  5
23D
330
1F4
100
AcDbEntity
  8
DV2_Default
  6
Continuous
 62
     7
 48
25.4
100
AcDbCircle
 10
316.2928945234
 20
263.1948038551
 30
0.0
 40
0.3199999999999959
100
AcDbArc
 50
180.0
 51
270.0
  0
LINE
  5
23E
330
1F4
100
AcDbEntity
  8
DV2_Default
  6
Continuous
 62
     7
 48
25.4
100
AcDbLine
 10
316.2928945234
 20
262.8748038551
 30
0.0
 11
332.5535672155
 21
262.8748038551
 31
0.0
  0
LINE
  5
23F
330
1F4
100
AcDbEntity
  8
DV2_Default
  6
Continuous
 62
     7
 48
25.4
100
AcDbLine
 10
316.2928945234
 20
263.0348038551
 30
0.0
 11
332.5535672155
 21
263.0348038551
 31
0.0
  0
ARC
  5
240
330
1F4
100
AcDbEntity
  8
DV2_Default
  6
Continuous
 62
     7
 48
25.4
100
AcDbCircle
 10
316.2928945234
 20
263.1948038551
 30
0.0
 40
0.1600000000000002
100
AcDbArc
 50
180.0
 51
270.0
  0
LINE
  5
241
330
1F4
100
AcDbEntity
  8
DV2_Default
  6
Continuous
 62
     7
 48
25.4
100
AcDbLine
 10
325.7328945234
 20
270.7148038551
 30
0.0
 11
316.2928945234
 21
270.7148038551
 31
0.0
  0
ARC
  5
242
330
1F4
100
AcDbEntity
  8
DV2_Default
  6
Continuous
 62
     7
 48
25.4
100
AcDbCircle
 10
316.2928945234
 20
270.5548038551
 30
0.0
 40
0.1600000000000179
100
AcDbArc
 50
90.0
 51
180.0
  0
LINE
  5
243
330
1F4
100
AcDbEntity
  8
DV2_Default
  6
Continuous
 62
     7
 48
25.4
100
AcDbLine
 10
316.1328945234
 20
270.5548038551
 30
0.0
 11
316.1328945234
 21
263.1948038551
 31
0.0
  0
LINE
  5
244
330
1F4
100
AcDbEntity
  8
DV2_Default
  6
Continuous
 62
     7
 48
25.4
100
AcDbLine
 10
325.7328945234
 20
270.7148038551
 30
0.0
 11
325.7328945234
 21
270.8748038551
 31
0.0
  0
LINE
  5
245
330
1F4
100
AcDbEntity
  8
DV2_Default
  6
Continuous
 62
     7
 48
25.4
100
AcDbLine
 10
326.0928945234
 20
263.2748038551
 30
0.0
 11
326.5728945234
 21
263.2748038551
 31
0.0
  0
LINE
  5
246
330
1F4
100
AcDbEntity
  8
DV2_Default
  6
Continuous
 62
     7
 48
25.4
100
AcDbLine
 10
326.0928945234
 20
264.3148038551
 30
0.0
 11
326.0928945234
 21
263.2748038551
 31
0.0
  0
LINE
  5
247
330
1F4
100
AcDbEntity
  8
DV2_Default
  6
Continuous
 62
     7
 48
25.4
100
AcDbLine
 10
327.1728945234
 20
264.9383421459
 30
0.0
 11
326.0928945234
 21
264.3148038551
 31
0.0
  0
LINE
  5
248
330
1F4
100
AcDbEntity
  8
DV2_Default
  6
Continuous
 62
     7
 48
25.4
100
AcDbLine
 10
327.1728945234
 20
265.1948038551
 30
0.0
 11
327.1728945234
 21
264.9383421459
 31
0.0
  0
LINE
  5
249
330
1F4
100
AcDbEntity
  8
DV2_Default
  6
Continuous
 62
     7
 48
25.4
100
AcDbLine
 10
327.2928945234
 20
265.1948038551
 30
0.0
 11
327.1728945234
 21
265.1948038551
 31
0.0
  0
LINE
  5
24A
330
1F4
100
AcDbEntity
  8
DV2_Default
  6
Continuous
 62
     7
 48
25.4
100
AcDbLine
 10
327.2928945234
 20
265.8348038551
 30
0.0
 11
327.2928945234
 21
265.1948038551
 31
0.0
  0
LINE
  5
24B
330
1F4
100
AcDbEntity
  8
DV2_Default
  6
Continuous
 62
     7
 48
25.4
100
AcDbLine
 10
327.0528945234
 20
265.8348038551
 30
0.0
 11
327.2928945234
 21
265.8348038551
 31
0.0
  0
LINE
  5
24C
330
1F4
100
AcDbEntity
  8
DV2_Default
  6
Continuous
 62
     7
 48
25.4
100
AcDbLine
 10
327.0528945234
 20
265.5948038551
 30
0.0
 11
327.0528945234
 21
265.8348038551
 31
0.0
  0
LINE
  5
24D
330
1F4
100
AcDbEntity
  8
DV2_Default
  6
Continuous
 62
     7
 48
25.4
100
AcDbLine
 10
326.8928945234
 20
265.5948038551
 30
0.0
 11
327.0528945234
 21
265.5948038551
 31
0.0
  0
LINE
  5
24E
330
1F4
100
AcDbEntity
  8
DV2_Default
  6
Continuous
 62
     7
 48
25.4
100
AcDbLine
 10
326.2528945234
 20
265.5948038551
 30
0.0
 11
326.4128945234
 21
265.5948038551
 31
0.0
  0
LINE
  5
24F
330
1F4
100
AcDbEntity
  8
DV2_Default
  6
Continuous
 62
     7
 48
25.4
100
AcDbLine
 10
326.2528945234
 20
265.8348038551
 30
0.0
 11
326.2528945234
 21
265.5948038551
 31
0.0
  0
LINE
  5
250
330
1F4
100
AcDbEntity
  8
DV2_Default
  6
Continuous
 62
     7
 48
25.4
100
AcDbLine
 10
325.2128945234
 20
265.8348038551
 30
0.0
 11
326.2528945234
 21
265.8348038551
 31
0.0
  0
LINE
  5
251
330
1F4
100
AcDbEntity
  8
DV2_Default
  6
Continuous
 62
     7
 48
25.4
100
AcDbLine
 10
325.2128945234
 20
267.0348038551
 30
0.0
 11
325.2128945234
 21
265.8348038551
 31
0.0
  0
LINE
  5
252
330
1F4
100
AcDbEntity
  8
DV2_Default
  6
Continuous
 62
     7
 48
25.4
100
AcDbLine
 10
324.9728945234
 20
267.0348038551
 30
0.0
 11
325.2128945234
 21
267.0348038551
 31
0.0
  0
LINE
  5
253
330
1F4
100
AcDbEntity
  8
DV2_Default
  6
Continuous
 62
     7
 48
25.4
100
AcDbLine
 10
324.9728945234
 20
266.7948038551
 30
0.0
 11
324.9728945234
 21
267.0348038551
 31
0.0
  0
LINE
  5
254
330
1F4
100
AcDbEntity
  8
DV2_Default
  6
Continuous
 62
     7
 48
25.4
100
AcDbLine
 10
324.8128945234
 20
266.7948038551
 30
0.0
 11
324.9728945234
 21
266.7948038551
 31
0.0
  0
LINE
  5
255
330
1F4
100
AcDbEntity
  8
DV2_Default
  6
Continuous
 62
     7
 48
25.4
100
AcDbLine
 10
324.1728945234
 20
266.7948038551
 30
0.0
 11
324.3328945234
 21
266.7948038551
 31
0.0
  0
LINE
  5
256
330
1F4
100
AcDbEntity
  8
DV2_Default
  6
Continuous
 62
     7
 48
25.4
100
AcDbLine
 10
324.1728945234
 20
267.0348038551
 30
0.0
 11
324.1728945234
 21
266.7948038551
 31
0.0
  0
LINE
  5
257
330
1F4
100
AcDbEntity
  8
DV2_Default
  6
Continuous
 62
     7
 48
25.4
100
AcDbLine
 10
323.9328945234
 20
267.0348038551
 30
0.0
 11
324.1728945234
 21
267.0348038551
 31
0.0
  0
LINE
  5
258
330
1F4
100
AcDbEntity
  8
DV2_Default
  6
Continuous
 62
     7
 48
25.4
100
AcDbLine
 10
323.9328945234
 20
266.3948038551
 30
0.0
 11
323.9328945234
 21
267.0348038551
 31
0.0
  0
LINE
  5
259
330
1F4
100
AcDbEntity
  8
DV2_Default
  6
Continuous
 62
     7
 48
25.4
100
AcDbLine
 10
324.0528945234
 20
266.3948038551
 30
0.0
 11
323.9328945234
 21
266.3948038551
 31
0.0
  0
LINE
  5
25A
330
1F4
100
AcDbEntity
  8
DV2_Default
  6
Continuous
 62
     7
 48
25.4
100
AcDbLine
 10
324.0528945234
 20
266.1655218228
 30
0.0
 11
324.0528945234
 21
266.3948038551
 31
0.0
  0
LINE
  5
25B
330
1F4
100
AcDbEntity
  8
DV2_Default
  6
Continuous
 62
     7
 48
25.4
100
AcDbLine
 10
325.0528945234
 20
265.5881715536
 30
0.0
 11
324.0528945234
 21
266.1655218228
 31
0.0
  0
LINE
  5
25C
330
1F4
100
AcDbEntity
  8
DV2_Default
  6
Continuous
 62
     7
 48
25.4
100
AcDbLine
 10
325.0528945234
 20
263.2748038551
 30
0.0
 11
325.0528945234
 21
265.5881715536
 31
0.0
  0
LINE
  5
25D
330
1F4
100
AcDbEntity
  8
DV2_Default
  6
Continuous
 62
     7
 48
25.4
100
AcDbLine
 10
324.5728945234
 20
263.2748038551
 30
0.0
 11
325.0528945234
 21
263.2748038551
 31
0.0
  0
LINE
  5
25E
330
1F4
100
AcDbEntity
  8
DV2_Default
  6
Continuous
 62
     7
 48
25.4
100
AcDbLine
 10
324.5728945234
 20
263.0348038551
 30
0.0
 11
324.5728945234
 21
263.2748038551
 31
0.0
  0
LINE
  5
25F
330
1F4
100
AcDbEntity
  8
DV2_Default
  6
Continuous
 62
     7
 48
25.4
100
AcDbLine
 10
326.5728945234
 20
263.2748038551
 30
0.0
 11
326.5728945234
 21
263.0348038551
 31
0.0
  0
LINE
  5
260
330
1F4
100
AcDbEntity
  8
DV2_Default
  6
Continuous
 62
     7
 48
25.4
100
AcDbLine
 10
320.4928945234
 20
263.2748038551
 30
0.0
 11
320.9728945234
 21
263.2748038551
 31
0.0
  0
LINE
  5
261
330
1F4
100
AcDbEntity
  8
DV2_Default
  6
Continuous
 62
     7
 48
25.4
100
AcDbLine
 10
320.4928945234
 20
264.3148038551
 30
0.0
 11
320.4928945234
 21
263.2748038551
 31
0.0
  0
LINE
  5
262
330
1F4
100
AcDbEntity
  8
DV2_Default
  6
Continuous
 62
     7
 48
25.4
100
AcDbLine
 10
321.5728945234
 20
264.9383421459
 30
0.0
 11
320.4928945234
 21
264.3148038551
 31
0.0
  0
LINE
  5
263
330
1F4
100
AcDbEntity
  8
DV2_Default
  6
Continuous
 62
     7
 48
25.4
100
AcDbLine
 10
321.5728945234
 20
265.1948038551
 30
0.0
 11
321.5728945234
 21
264.9383421459
 31
0.0
  0
LINE
  5
264
330
1F4
100
AcDbEntity
  8
DV2_Default
  6
Continuous
 62
     7
 48
25.4
100
AcDbLine
 10
321.6928945234
 20
265.1948038551
 30
0.0
 11
321.5728945234
 21
265.1948038551
 31
0.0
  0
LINE
  5
265
330
1F4
100
AcDbEntity
  8
DV2_Default
  6
Continuous
 62
     7
 48
25.4
100
AcDbLine
 10
321.6928945234
 20
265.8348038551
 30
0.0
 11
321.6928945234
 21
265.1948038551
 31
0.0
  0
LINE
  5
266
330
1F4
100
AcDbEntity
  8
DV2_Default
  6
Continuous
 62
     7
 48
25.4
100
AcDbLine
 10
321.4528945234
 20
265.8348038551
 30
0.0
 11
321.6928945234
 21
265.8348038551
 31
0.0
  0
LINE
  5
267
330
1F4
100
AcDbEntity
  8
DV2_Default
  6
Continuous
 62
     7
 48
25.4
100
AcDbLine
 10
321.4528945234
 20
265.5948038551
 30
0.0
 11
321.4528945234
 21
265.8348038551
 31
0.0
  0
LINE
  5
268
330
1F4
100
AcDbEntity
  8
DV2_Default
  6
Continuous
 62
     7
 48
25.4
100
AcDbLine
 10
321.2928945234
 20
265.5948038551
 30
0.0
 11
321.4528945234
 21
265.5948038551
 31
0.0
  0
LINE
  5
269
330
1F4
100
AcDbEntity
  8
DV2_Default
  6
Continuous
 62
     7
 48
25.4
100
AcDbLine
 10
320.6528945234
 20
265.5948038551
 30
0.0
 11
320.8128945234
 21
265.5948038551
 31
0.0
  0
LINE
  5
26A
330
1F4
100
AcDbEntity
  8
DV2_Default
  6
Continuous
 62
     7
 48
25.4
100
AcDbLine
 10
320.6528945234
 20
265.8348038551
 30
0.0
 11
320.6528945234
 21
265.5948038551
 31
0.0
  0
LINE
  5
26B
330
1F4
100
AcDbEntity
  8
DV2_Default
  6
Continuous
 62
     7
 48
25.4
100
AcDbLine
 10
319.6128945234
 20
265.8348038551
 30
0.0
 11
320.6528945234
 21
265.8348038551
 31
0.0
  0
LINE
  5
26C
330
1F4
100
AcDbEntity
  8
DV2_Default
  6
Continuous
 62
     7
 48
25.4
100
AcDbLine
 10
319.6128945234
 20
267.0348038551
 30
0.0
 11
319.6128945234
 21
265.8348038551
 31
0.0
  0
LINE
  5
26D
330
1F4
100
AcDbEntity
  8
DV2_Default
  6
Continuous
 62
     7
 48
25.4
100
AcDbLine
 10
319.3728945234
 20
267.0348038551
 30
0.0
 11
319.6128945234
 21
267.0348038551
 31
0.0
  0
LINE
  5
26E
330
1F4
100
AcDbEntity
  8
DV2_Default
  6
Continuous
 62
     7
 48
25.4
100
AcDbLine
 10
319.3728945234
 20
266.7948038551
 30
0.0
 11
319.3728945234
 21
267.0348038551
 31
0.0
  0
LINE
  5
26F
330
1F4
100
AcDbEntity
  8
DV2_Default
  6
Continuous
 62
     7
 48
25.4
100
AcDbLine
 10
319.2128945234
 20
266.7948038551
 30
0.0
 11
319.3728945234
 21
266.7948038551
 31
0.0
  0
LINE
  5
270
330
1F4
100
AcDbEntity
  8
DV2_Default
  6
Continuous
 62
     7
 48
25.4
100
AcDbLine
 10
318.5728945234
 20
266.7948038551
 30
0.0
 11
318.7328945234
 21
266.7948038551
 31
0.0
  0
LINE
  5
271
330
1F4
100
AcDbEntity
  8
DV2_Default
  6
Continuous
 62
     7
 48
25.4
100
AcDbLine
 10
318.5728945234
 20
267.0348038551
 30
0.0
 11
318.5728945234
 21
266.7948038551
 31
0.0
  0
LINE
  5
272
330
1F4
100
AcDbEntity
  8
DV2_Default
  6
Continuous
 62
     7
 48
25.4
100
AcDbLine
 10
318.3328945234
 20
267.0348038551
 30
0.0
 11
318.5728945234
 21
267.0348038551
 31
0.0
  0
LINE
  5
273
330
1F4
100
AcDbEntity
  8
DV2_Default
  6
Continuous
 62
     7
 48
25.4
100
AcDbLine
 10
318.3328945234
 20
266.3948038551
 30
0.0
 11
318.3328945234
 21
267.0348038551
 31
0.0
  0
LINE
  5
274
330
1F4
100
AcDbEntity
  8
DV2_Default
  6
Continuous
 62
     7
 48
25.4
100
AcDbLine
 10
318.4528945234
 20
266.3948038551
 30
0.0
 11
318.3328945234
 21
266.3948038551
 31
0.0
  0
LINE
  5
275
330
1F4
100
AcDbEntity
  8
DV2_Default
  6
Continuous
 62
     7
 48
25.4
100
AcDbLine
 10
318.4528945234
 20
266.1655218228
 30
0.0
 11
318.4528945234
 21
266.3948038551
 31
0.0
  0
LINE
  5
276
330
1F4
100
AcDbEntity
  8
DV2_Default
  6
Continuous
 62
     7
 48
25.4
100
AcDbLine
 10
319.4528945234
 20
265.5881715536
 30
0.0
 11
318.4528945234
 21
266.1655218228
 31
0.0
  0
LINE
  5
277
330
1F4
100
AcDbEntity
  8
DV2_Default
  6
Continuous
 62
     7
 48
25.4
100
AcDbLine
 10
319.4528945234
 20
263.2748038551
 30
0.0
 11
319.4528945234
 21
265.5881715536
 31
0.0
  0
LINE
  5
278
330
1F4
100
AcDbEntity
  8
DV2_Default
  6
Continuous
 62
     7
 48
25.4
100
AcDbLine
 10
318.9728945234
 20
263.2748038551
 30
0.0
 11
319.4528945234
 21
263.2748038551
 31
0.0
  0
LINE
  5
279
330
1F4
100
AcDbEntity
  8
DV2_Default
  6
Continuous
 62
     7
 48
25.4
100
AcDbLine
 10
318.9728945234
 20
263.0348038551
 30
0.0
 11
318.9728945234
 21
263.2748038551
 31
0.0
  0
LINE
  5
27A
330
1F4
100
AcDbEntity
  8
DV2_Default
  6
Continuous
 62
     7
 48
25.4
100
AcDbLine
 10
320.9728945234
 20
263.2748038551
 30
0.0
 11
320.9728945234
 21
263.0348038551
 31
0.0
  0
LINE
  5
27B
330
1F4
100
AcDbEntity
  8
DV2_Default
  6
Continuous
 62
     7
 48
25.4
100
AcDbLine
 10
313.0528945234
 20
267.3548038551
 30
0.0
 11
313.0528945234
 21
265.0028038551
 31
0.0
  0
LINE
  5
27C
330
1F4
100
AcDbEntity
  8
DV2_Default
  6
Continuous
 62
     7
 48
25.4
100
AcDbLine
 10
315.0528945234
 20
265.0028038551
 30
0.0
 11
315.0528945234
 21
267.3548038551
 31
0.0
  0
LINE
  5
27D
330
1F4
100
AcDbEntity
  8
DV2_Default
  6
Continuous
 62
     7
 48
25.4
100
AcDbLine
 10
326.4128945234
 20
265.8348038551
 30
0.0
 11
326.4128945234
 21
265.3548038551
 31
0.0
  0
LINE
  5
27E
330
1F4
100
AcDbEntity
  8
DV2_Default
  6
Continuous
 62
     7
 48
25.4
100
AcDbLine
 10
326.4128945234
 20
265.3548038551
 30
0.0
 11
326.8928945234
 21
265.3548038551
 31
0.0
  0
LINE
  5
27F
330
1F4
100
AcDbEntity
  8
DV2_Default
  6
Continuous
 62
     7
 48
25.4
100
AcDbLine
 10
326.8928945234
 20
265.3548038551
 30
0.0
 11
326.8928945234
 21
265.8348038551
 31
0.0
  0
LINE
  5
280
330
1F4
100
AcDbEntity
  8
DV2_Default
  6
Continuous
 62
     7
 48
25.4
100
AcDbLine
 10
326.8928945234
 20
265.8348038551
 30
0.0
 11
326.4128945234
 21
265.8348038551
 31
0.0
  0
LINE
  5
281
330
1F4
100
AcDbEntity
  8
DV2_Default
  6
Continuous
 62
     7
 48
25.4
100
AcDbLine
 10
311.6128945234
 20
262.9788038551
 30
0.0
 11
311.6128945234
 21
269.3788038551
 31
0.0
  0
LINE
  5
282
330
1F4
100
AcDbEntity
  8
DV2_Default
  6
Continuous
 62
     7
 48
25.4
100
AcDbLine
 10
312.4128945234
 20
262.9788038551
 30
0.0
 11
312.4128945234
 21
269.3788038551
 31
0.0
  0
LINE
  5
283
330
1F4
100
AcDbEntity
  8
DV2_Default
  6
Continuous
 62
     7
 48
25.4
100
AcDbLine
 10
311.6128945234
 20
262.9788038551
 30
0.0
 11
312.4128945234
 21
262.9788038551
 31
0.0
  0
LINE
  5
284
330
1F4
100
AcDbEntity
  8
DV2_Default
  6
Continuous
 62
     7
 48
25.4
100
AcDbLine
 10
310.7328945234
 20
269.3788038551
 30
0.0
 11
312.4128945234
 21
269.3788038551
 31
0.0
  0
LINE
  5
285
330
1F4
100
AcDbEntity
  8
DV2_Default
  6
Continuous
 62
     7
 48
25.4
100
AcDbLine
 10
324.8128945234
 20
266.5548038551
 30
0.0
 11
324.8128945234
 21
267.0348038551
 31
0.0
  0
LINE
  5
286
330
1F4
100
AcDbEntity
  8
DV2_Default
  6
Continuous
 62
     7
 48
25.4
100
AcDbLine
 10
324.8128945234
 20
267.0348038551
 30
0.0
 11
324.3328945234
 21
267.0348038551
 31
0.0
  0
LINE
  5
287
330
1F4
100
AcDbEntity
  8
DV2_Default
  6
Continuous
 62
     7
 48
25.4
100
AcDbLine
 10
324.3328945234
 20
267.0348038551
 30
0.0
 11
324.3328945234
 21
266.5548038551
 31
0.0
  0
LINE
  5
288
330
1F4
100
AcDbEntity
  8
DV2_Default
  6
Continuous
 62
     7
 48
25.4
100
AcDbLine
 10
324.3328945234
 20
266.5548038551
 30
0.0
 11
324.8128945234
 21
266.5548038551
 31
0.0
  0
ARC
  5
289
330
1F4
100
AcDbEntity
  8
DV2_Default
  6
Continuous
 62
     7
 48
25.4
100
AcDbCircle
 10
340.0528945234
 20
277.7948038551
 30
0.0
 40
0.1599999999999996
100
AcDbArc
 50
0.0
 51
45.0
  0
LINE
  5
28A
330
1F4
100
AcDbEntity
  8
DV2_Default
  6
Continuous
 62
     7
 48
25.4
100
AcDbLine
 10
340.2128945234
 20
271.7148038551
 30
0.0
 11
340.2128945234
 21
277.7948038551
 31
0.0
  0
ARC
  5
28B
330
1F4
100
AcDbEntity
  8
DV2_Default
  6
Continuous
 62
     7
 48
25.4
100
AcDbCircle
 10
340.0528945234
 20
271.7148038551
 30
0.0
 40
0.1600000000000179
100
AcDbArc
 50
270.0
 51
360.0
  0
LINE
  5
28C
330
1F4
100
AcDbEntity
  8
DV2_Default
  6
Continuous
 62
     7
 48
25.4
100
AcDbLine
 10
338.4128945234
 20
271.5548038551
 30
0.0
 11
340.0528945234
 21
271.5548038551
 31
0.0
  0
LINE
  5
28D
330
1F4
100
AcDbEntity
  8
DV2_Default
  6
Continuous
 62
     7
 48
25.4
100
AcDbLine
 10
338.4128945234
 20
271.3548038551
 30
0.0
 11
340.0528945234
 21
271.3548038551
 31
0.0
  0
ARC
  5
28E
330
1F4
100
AcDbEntity
  8
DV2_Default
  6
Continuous
 62
     7
 48
25.4
100
AcDbCircle
 10
340.0528945234
 20
271.7148038551
 30
0.0
 40
0.3600000000000138
100
AcDbArc
 50
270.0
 51
360.0
  0
LINE
  5
28F
330
1F4
100
AcDbEntity
  8
DV2_Default
  6
Continuous
 62
     7
 48
25.4
100
AcDbLine
 10
340.4128945234
 20
271.7148038551
 30
0.0
 11
340.4128945234
 21
277.7948038551
 31
0.0
  0
ARC
  5
290
330
1F4
100
AcDbEntity
  8
DV2_Default
  6
Continuous
 62
     7
 48
25.4
100
AcDbCircle
 10
340.0528945234
 20
277.7948038551
 30
0.0
 40
0.3599999999999999
100
AcDbArc
 50
0.0
 51
45.0
  0
LINE
  5
291
330
1F4
100
AcDbEntity
  8
DV2_Default
  6
Continuous
 62
     7
 48
25.4
100
AcDbLine
 10
338.4128945234
 20
271.3548038551
 30
0.0
 11
338.4128945234
 21
271.5548038551
 31
0.0
  0
ARC
  5
292
330
1F4
100
AcDbEntity
  8
DV2_Default
  6
Continuous
 62
     7
 48
25.4
100
AcDbCircle
 10
292.7728945234
 20
277.7948038551
 30
0.0
 40
0.1600000000000002
100
AcDbArc
 50
135.0
 51
180.0
  0
LINE
  5
293
330
1F4
100
AcDbEntity
  8
DV2_Default
  6
Continuous
 62
     7
 48
25.4
100
AcDbLine
 10
292.6128945234
 20
271.7148038551
 30
0.0
 11
292.6128945234
 21
277.7948038551
 31
0.0
  0
ARC
  5
294
330
1F4
100
AcDbEntity
  8
DV2_Default
  6
Continuous
 62
     7
 48
25.4
100
AcDbCircle
 10
292.7728945234
 20
271.7148038551
 30
0.0
 40
0.1599999999999824
100
AcDbArc
 50
180.0
 51
270.0
  0
LINE
  5
295
330
1F4
100
AcDbEntity
  8
DV2_Default
  6
Continuous
 62
     7
 48
25.4
100
AcDbLine
 10
294.4128945234
 20
271.5548038551
 30
0.0
 11
292.7728945234
 21
271.5548038551
 31
0.0
  0
LINE
  5
296
330
1F4
100
AcDbEntity
  8
DV2_Default
  6
Continuous
 62
     7
 48
25.4
100
AcDbLine
 10
294.4128945234
 20
271.3548038551
 30
0.0
 11
292.7728945234
 21
271.3548038551
 31
0.0
  0
ARC
  5
297
330
1F4
100
AcDbEntity
  8
DV2_Default
  6
Continuous
 62
     7
 48
25.4
100
AcDbCircle
 10
292.7728945234
 20
271.7148038551
 30
0.0
 40
0.3599999999999782
100
AcDbArc
 50
180.0
 51
270.0
  0
LINE
  5
298
330
1F4
100
AcDbEntity
  8
DV2_Default
  6
Continuous
 62
     7
 48
25.4
100
AcDbLine
 10
292.4128945234
 20
271.7148038551
 30
0.0
 11
292.4128945234
 21
277.7948038551
 31
0.0
  0
ARC
  5
299
330
1F4
100
AcDbEntity
  8
DV2_Default
  6
Continuous
 62
     7
 48
25.4
100
AcDbCircle
 10
292.7728945234
 20
277.7948038551
 30
0.0
 40
0.3600000000000049
100
AcDbArc
 50
135.0
 51
180.0
  0
LINE
  5
29A
330
1F4
100
AcDbEntity
  8
DV2_Default
  6
Continuous
 62
     7
 48
25.4
100
AcDbLine
 10
294.4128945234
 20
271.3548038551
 30
0.0
 11
294.4128945234
 21
271.5548038551
 31
0.0
  0
LINE
  5
29B
330
1F4
100
AcDbEntity
  8
DV2_Default
  6
Continuous
 62
     7
 48
25.4
100
AcDbLine
 10
340.4128945234
 20
278.1548038551
 30
0.0
 11
292.4128945234
 21
278.1548038551
 31
0.0
  0
CIRCLE
  5
29C
330
1F4
100
AcDbEntity
  8
DV2_Default
  6
Continuous
 62
     7
 48
25.4
100
AcDbCircle
 10
298.8128945234
 20
273.3548038551
 30
0.0
 40
0.368
  0
CIRCLE
  5
29D
330
1F4
100
AcDbEntity
  8
DV2_Default
  6
Continuous
 62
     7
 48
25.4
100
AcDbCircle
 10
296.4128945234
 20
275.3548038551
 30
0.0
 40
0.368
  0
CIRCLE
  5
29E
330
1F4
100
AcDbEntity
  8
DV2_Default
  6
Continuous
 62
     7
 48
25.4
100
AcDbCircle
 10
300.4128945234
 20
273.3548038551
 30
0.0
 40
0.368
  0
CIRCLE
  5
29F
330
1F4
100
AcDbEntity
  8
DV2_Default
  6
Continuous
 62
     7
 48
25.4
100
AcDbCircle
 10
302.0128945234
 20
273.3548038551
 30
0.0
 40
0.368
  0
CIRCLE
  5
2A0
330
1F4
100
AcDbEntity
  8
DV2_Default
  6
Continuous
 62
     7
 48
25.4
100
AcDbCircle
 10
303.6128945234
 20
273.3548038551
 30
0.0
 40
0.368
  0
CIRCLE
  5
2A1
330
1F4
100
AcDbEntity
  8
DV2_Default
  6
Continuous
 62
     7
 48
25.4
100
AcDbCircle
 10
305.2128945234
 20
273.3548038551
 30
0.0
 40
0.368
  0
CIRCLE
  5
2A2
330
1F4
100
AcDbEntity
  8
DV2_Default
  6
Continuous
 62
     7
 48
25.4
100
AcDbCircle
 10
306.8128945234
 20
273.3548038551
 30
0.0
 40
0.368
  0
CIRCLE
  5
2A3
330
1F4
100
AcDbEntity
  8
DV2_Default
  6
Continuous
 62
     7
 48
25.4
100
AcDbCircle
 10
308.4128945234
 20
273.3548038551
 30
0.0
 40
0.368
  0
CIRCLE
  5
2A4
330
1F4
100
AcDbEntity
  8
DV2_Default
  6
Continuous
 62
     7
 48
25.4
100
AcDbCircle
 10
310.0128945234
 20
273.3548038551
 30
0.0
 40
0.368
  0
CIRCLE
  5
2A5
330
1F4
100
AcDbEntity
  8
DV2_Default
  6
Continuous
 62
     7
 48
25.4
100
AcDbCircle
 10
311.6128945234
 20
273.3548038551
 30
0.0
 40
0.368
  0
CIRCLE
  5
2A6
330
1F4
100
AcDbEntity
  8
DV2_Default
  6
Continuous
 62
     7
 48
25.4
100
AcDbCircle
 10
313.2128945234
 20
273.3548038551
 30
0.0
 40
0.368
  0
CIRCLE
  5
2A7
330
1F4
100
AcDbEntity
  8
DV2_Default
  6
Continuous
 62
     7
 48
25.4
100
AcDbCircle
 10
314.8128945234
 20
273.3548038551
 30
0.0
 40
0.368
  0
CIRCLE
  5
2A8
330
1F4
100
AcDbEntity
  8
DV2_Default
  6
Continuous
 62
     7
 48
25.4
100
AcDbCircle
 10
316.4128945234
 20
273.3548038551
 30
0.0
 40
0.368
  0
CIRCLE
  5
2A9
330
1F4
100
AcDbEntity
  8
DV2_Default
  6
Continuous
 62
     7
 48
25.4
100
AcDbCircle
 10
318.0128945234
 20
273.3548038551
 30
0.0
 40
0.368
  0
CIRCLE
  5
2AA
330
1F4
100
AcDbEntity
  8
DV2_Default
  6
Continuous
 62
     7
 48
25.4
100
AcDbCircle
 10
319.6128945234
 20
273.3548038551
 30
0.0
 40
0.368
  0
CIRCLE
  5
2AB
330
1F4
100
AcDbEntity
  8
DV2_Default
  6
Continuous
 62
     7
 48
25.4
100
AcDbCircle
 10
321.2128945234
 20
273.3548038551
 30
0.0
 40
0.368
  0
CIRCLE
  5
2AC
330
1F4
100
AcDbEntity
  8
DV2_Default
  6
Continuous
 62
     7
 48
25.4
100
AcDbCircle
 10
322.8128945234
 20
273.3548038551
 30
0.0
 40
0.368
  0
CIRCLE
  5
2AD
330
1F4
100
AcDbEntity
  8
DV2_Default
  6
Continuous
 62
     7
 48
25.4
100
AcDbCircle
 10
324.4128945234
 20
273.3548038551
 30
0.0
 40
0.368
  0
CIRCLE
  5
2AE
330
1F4
100
AcDbEntity
  8
DV2_Default
  6
Continuous
 62
     7
 48
25.4
100
AcDbCircle
 10
326.0128945234
 20
273.3548038551
 30
0.0
 40
0.368
  0
CIRCLE
  5
2AF
330
1F4
100
AcDbEntity
  8
DV2_Default
  6
Continuous
 62
     7
 48
25.4
100
AcDbCircle
 10
327.6128945234
 20
273.3548038551
 30
0.0
 40
0.368
  0
CIRCLE
  5
2B0
330
1F4
100
AcDbEntity
  8
DV2_Default
  6
Continuous
 62
     7
 48
25.4
100
AcDbCircle
 10
329.2128945234
 20
273.3548038551
 30
0.0
 40
0.368
  0
CIRCLE
  5
2B1
330
1F4
100
AcDbEntity
  8
DV2_Default
  6
Continuous
 62
     7
 48
25.4
100
AcDbCircle
 10
330.8128945234
 20
273.3548038551
 30
0.0
 40
0.368
  0
CIRCLE
  5
2B2
330
1F4
100
AcDbEntity
  8
DV2_Default
  6
Continuous
 62
     7
 48
25.4
100
AcDbCircle
 10
332.4128945234
 20
273.3548038551
 30
0.0
 40
0.368
  0
CIRCLE
  5
2B3
330
1F4
100
AcDbEntity
  8
DV2_Default
  6
Continuous
 62
     7
 48
25.4
100
AcDbCircle
 10
334.0128945234
 20
273.3548038551
 30
0.0
 40
0.368
  0
CIRCLE
  5
2B4
330
1F4
100
AcDbEntity
  8
DV2_Default
  6
Continuous
 62
     7
 48
25.4
100
AcDbCircle
 10
304.4128945234
 20
275.3548038551
 30
0.0
 40
0.368
  0
CIRCLE
  5
2B5
330
1F4
100
AcDbEntity
  8
DV2_Default
  6
Continuous
 62
     7
 48
25.4
100
AcDbCircle
 10
312.4128945234
 20
275.3548038551
 30
0.0
 40
0.368
  0
CIRCLE
  5
2B6
330
1F4
100
AcDbEntity
  8
DV2_Default
  6
Continuous
 62
     7
 48
25.4
100
AcDbCircle
 10
320.4128945234
 20
275.3548038551
 30
0.0
 40
0.368
  0
CIRCLE
  5
2B7
330
1F4
100
AcDbEntity
  8
DV2_Default
  6
Continuous
 62
     7
 48
25.4
100
AcDbCircle
 10
328.4128945234
 20
275.3548038551
 30
0.0
 40
0.368
  0
CIRCLE
  5
2B8
330
1F4
100
AcDbEntity
  8
DV2_Default
  6
Continuous
 62
     7
 48
25.4
100
AcDbCircle
 10
336.4128945234
 20
275.3548038551
 30
0.0
 40
0.368
  0
LINE
  5
2B9
330
1F4
100
AcDbEntity
  8
DV2_Default
  6
Continuous
 62
     7
 48
25.4
100
AcDbLine
 10
333.6128945234
 20
271.3548038551
 30
0.0
 11
299.2128945234
 21
271.3548038551
 31
0.0
  0
LINE
  5
2BA
330
1F4
100
AcDbEntity
  8
DV2_Default
  6
Continuous
 62
     7
 48
25.4
100
AcDbLine
 10
340.0528945234
 20
277.7948038551
 30
0.0
 11
337.0420114058
 21
274.7839207376
 31
0.0
  0
LINE
  5
2BB
330
1F4
100
AcDbEntity
  8
DV2_Default
  6
Continuous
 62
     7
 48
25.4
100
AcDbLine
 10
340.4128945234
 20
278.1548038551
 30
0.0
 11
340.0528945234
 21
277.7948038551
 31
0.0
  0
LINE
  5
2BC
330
1F4
100
AcDbEntity
  8
DV2_Default
  6
Continuous
 62
     7
 48
25.4
100
AcDbLine
 10
336.4266203534
 20
274.1685296852
 30
0.0
 11
333.9728945234
 21
271.7148038551
 31
0.0
  0
LINE
  5
2BD
330
1F4
100
AcDbEntity
  8
DV2_Default
  6
Continuous
 62
     7
 48
25.4
100
AcDbLine
 10
333.9728945234
 20
271.7148038551
 30
0.0
 11
333.6128945234
 21
271.3548038551
 31
0.0
  0
LINE
  5
2BE
330
1F4
100
AcDbEntity
  8
DV2_Default
  6
Continuous
 62
     7
 48
25.4
100
AcDbLine
 10
337.0420114058
 20
274.7839207376
 30
0.0
 11
336.7874529646
 21
274.5293622964
 31
0.0
  0
LINE
  5
2BF
330
1F4
100
AcDbEntity
  8
DV2_Default
  6
Continuous
 62
     7
 48
25.4
100
AcDbLine
 10
336.7874529646
 20
274.5293622964
 30
0.0
 11
336.5397574384
 21
274.2816667701
 31
0.0
  0
LINE
  5
2C0
330
1F4
100
AcDbEntity
  8
DV2_Default
  6
Continuous
 62
     7
 48
25.4
100
AcDbLine
 10
336.5397574384
 20
274.2816667701
 30
0.0
 11
336.4266203534
 21
274.1685296852
 31
0.0
  0
LINE
  5
2C1
330
1F4
100
AcDbEntity
  8
DV2_Default
  6
Continuous
 62
     7
 48
25.4
100
AcDbLine
 10
292.4128945234
 20
278.1548038551
 30
0.0
 11
292.7728945234
 21
277.7948038551
 31
0.0
  0
LINE
  5
2C2
330
1F4
100
AcDbEntity
  8
DV2_Default
  6
Continuous
 62
     7
 48
25.4
100
AcDbLine
 10
292.7728945234
 20
277.7948038551
 30
0.0
 11
295.7837776409
 21
274.7839207376
 31
0.0
  0
LINE
  5
2C3
330
1F4
100
AcDbEntity
  8
DV2_Default
  6
Continuous
 62
     7
 48
25.4
100
AcDbLine
 10
295.7837776409
 20
274.7839207376
 30
0.0
 11
296.0383360821
 21
274.5293622964
 31
0.0
  0
LINE
  5
2C4
330
1F4
100
AcDbEntity
  8
DV2_Default
  6
Continuous
 62
     7
 48
25.4
100
AcDbLine
 10
296.0383360821
 20
274.5293622964
 30
0.0
 11
296.2860316083
 21
274.2816667701
 31
0.0
  0
LINE
  5
2C5
330
1F4
100
AcDbEntity
  8
DV2_Default
  6
Continuous
 62
     7
 48
25.4
100
AcDbLine
 10
296.2860316083
 20
274.2816667701
 30
0.0
 11
296.3991686933
 21
274.1685296852
 31
0.0
  0
LINE
  5
2C6
330
1F4
100
AcDbEntity
  8
DV2_Default
  6
Continuous
 62
     7
 48
25.4
100
AcDbLine
 10
296.3991686933
 20
274.1685296852
 30
0.0
 11
298.8528945234
 21
271.7148038551
 31
0.0
  0
LINE
  5
2C7
330
1F4
100
AcDbEntity
  8
DV2_Default
  6
Continuous
 62
     7
 48
25.4
100
AcDbLine
 10
298.8528945234
 20
271.7148038551
 30
0.0
 11
299.2128945234
 21
271.3548038551
 31
0.0
  0
LINE
  5
2C8
330
1F4
100
AcDbEntity
  8
DV2_Default
  6
Continuous
 62
     7
 48
25.4
100
AcDbLine
 10
300.8528945234
 20
267.3548038551
 30
0.0
 11
300.8528945234
 21
265.0028038551
 31
0.0
  0
LINE
  5
2C9
330
1F4
100
AcDbEntity
  8
DV2_Default
  6
Continuous
 62
     7
 48
25.4
100
AcDbLine
 10
301.6528945234
 20
265.0028038551
 30
0.0
 11
301.6528945234
 21
267.3548038551
 31
0.0
  0
LINE
  5
2CA
330
1F4
100
AcDbEntity
  8
DV2_Default
  6
Continuous
 62
     7
 48
25.4
100
AcDbLine
 10
300.9264945234
 20
265.0028038551
 30
0.0
 11
300.9264945234
 21
267.3548038551
 31
0.0
  0
LINE
  5
2CB
330
1F4
100
AcDbEntity
  8
DV2_Default
  6
Continuous
 62
     7
 48
25.4
100
AcDbLine
 10
301.5792945234
 20
265.0028038551
 30
0.0
 11
301.5792945234
 21
267.3548038551
 31
0.0
  0
LINE
  5
2CC
330
1F4
100
AcDbEntity
  8
DV2_Default
  6
Continuous
 62
     7
 48
25.4
100
AcDbLine
 10
318.7328945234
 20
266.5548038551
 30
0.0
 11
319.2128945234
 21
266.5548038551
 31
0.0
  0
LINE
  5
2CD
330
1F4
100
AcDbEntity
  8
DV2_Default
  6
Continuous
 62
     7
 48
25.4
100
AcDbLine
 10
319.2128945234
 20
266.5548038551
 30
0.0
 11
319.2128945234
 21
266.7948038551
 31
0.0
  0
LINE
  5
2CE
330
1F4
100
AcDbEntity
  8
DV2_Default
  6
Continuous
 62
     7
 48
25.4
100
AcDbLine
 10
318.7328945234
 20
266.7948038551
 30
0.0
 11
318.7328945234
 21
266.5548038551
 31
0.0
  0
LINE
  5
2CF
330
1F4
100
AcDbEntity
  8
DV2_Default
  6
Continuous
 62
     7
 48
25.4
100
AcDbLine
 10
321.2928945234
 20
265.3548038551
 30
0.0
 11
321.2928945234
 21
265.8348038551
 31
0.0
  0
LINE
  5
2D0
330
1F4
100
AcDbEntity
  8
DV2_Default
  6
Continuous
 62
     7
 48
25.4
100
AcDbLine
 10
321.2928945234
 20
265.8348038551
 30
0.0
 11
320.8128945234
 21
265.8348038551
 31
0.0
  0
LINE
  5
2D1
330
1F4
100
AcDbEntity
  8
DV2_Default
  6
Continuous
 62
     7
 48
25.4
100
AcDbLine
 10
320.8128945234
 20
265.8348038551
 30
0.0
 11
320.8128945234
 21
265.3548038551
 31
0.0
  0
LINE
  5
2D2
330
1F4
100
AcDbEntity
  8
DV2_Default
  6
Continuous
 62
     7
 48
25.4
100
AcDbLine
 10
320.8128945234
 20
265.3548038551
 30
0.0
 11
321.2928945234
 21
265.3548038551
 31
0.0
  0
LINE
  5
2D3
330
1F4
100
AcDbEntity
  8
DV2_Default
  6
Continuous
 62
     7
 48
25.4
100
AcDbLine
 10
310.8528945234
 20
260.3615455549
 30
0.0
 11
310.8528945234
 21
269.3788038551
 31
0.0
  0
ARC
  5
2D4
330
1F4
100
AcDbEntity
  8
DV2_Default
  6
Continuous
 62
     7
 48
25.4
100
AcDbCircle
 10
310.0528945234
 20
260.3615455549
 30
0.0
 40
0.8000000000000036
100
AcDbArc
 50
347.3859570118
 51
360.0
  0
LINE
  5
2D5
330
1F4
100
AcDbEntity
  8
DV2_Default
  6
Continuous
 62
     7
 48
25.4
100
AcDbLine
 10
311.6528945234
 20
260.3615455549
 30
0.0
 11
311.6528945234
 21
269.3788038551
 31
0.0
  0
ARC
  5
2D6
330
1F4
100
AcDbEntity
  8
DV2_Default
  6
Continuous
 62
     7
 48
25.4
100
AcDbCircle
 10
310.0528945234
 20
260.3615455549
 30
0.0
 40
1.600000000000001
100
AcDbArc
 50
353.7313052736
 51
360.0
  0
LINE
  5
2D7
330
1F4
100
AcDbEntity
  8
DV2_Default
  6
Continuous
 62
     7
 48
25.4
100
AcDbLine
 10
299.8528945234
 20
261.4828038551
 30
0.0
 11
303.8128945234
 21
261.4828038551
 31
0.0
  0
LINE
  5
2D8
330
1F4
100
AcDbEntity
  8
DV2_Default
  6
Continuous
 62
     7
 48
25.4
100
AcDbLine
 10
304.6128945234
 20
261.4828038551
 30
0.0
 11
310.8528945234
 21
261.4828038551
 31
0.0
  0
LINE
  5
2D9
330
1F4
100
AcDbEntity
  8
DV2_Default
  6
Continuous
 62
     7
 48
25.4
100
AcDbLine
 10
303.6405750211
 20
260.1868396121
 30
0.0
 11
303.6405750211
 21
269.3788038551
 31
0.0
  0
LINE
  5
2DA
330
1F4
100
AcDbEntity
  8
DV2_Default
  6
Continuous
 62
     7
 48
25.4
100
AcDbLine
 10
304.4405750211
 20
260.1868396121
 30
0.0
 11
304.4405750211
 21
269.3788038551
 31
0.0
  0
LINE
  5
2DB
330
1F4
100
AcDbEntity
  8
DV2_Default
  6
Continuous
 62
     7
 48
25.4
100
AcDbLine
 10
299.7328945234
 20
261.4828038551
 30
0.0
 11
299.8528945234
 21
261.4828038551
 31
0.0
  0
LINE
  5
2DC
330
1F4
100
AcDbEntity
  8
DV2_Default
  6
Continuous
 62
     7
 48
25.4
100
AcDbLine
 10
299.7328945234
 20
261.7788038551
 30
0.0
 11
299.7328945234
 21
261.4828038551
 31
0.0
  0
LINE
  5
2DD
330
1F4
100
AcDbEntity
  8
DV2_Default
  6
Continuous
 62
     7
 48
25.4
100
AcDbLine
 10
331.6928945234
 20
263.2748038551
 30
0.0
 11
332.1728945234
 21
263.2748038551
 31
0.0
  0
LINE
  5
2DE
330
1F4
100
AcDbEntity
  8
DV2_Default
  6
Continuous
 62
     7
 48
25.4
100
AcDbLine
 10
331.6928945234
 20
264.3148038551
 30
0.0
 11
331.6928945234
 21
263.2748038551
 31
0.0
  0
LINE
  5
2DF
330
1F4
100
AcDbEntity
  8
DV2_Default
  6
Continuous
 62
     7
 48
25.4
100
AcDbLine
 10
332.7728945234
 20
264.9383421459
 30
0.0
 11
331.6928945234
 21
264.3148038551
 31
0.0
  0
LINE
  5
2E0
330
1F4
100
AcDbEntity
  8
DV2_Default
  6
Continuous
 62
     7
 48
25.4
100
AcDbLine
 10
332.7728945234
 20
265.1948038551
 30
0.0
 11
332.7728945234
 21
264.9383421459
 31
0.0
  0
LINE
  5
2E1
330
1F4
100
AcDbEntity
  8
DV2_Default
  6
Continuous
 62
     7
 48
25.4
100
AcDbLine
 10
332.8928945234
 20
265.1948038551
 30
0.0
 11
332.7728945234
 21
265.1948038551
 31
0.0
  0
LINE
  5
2E2
330
1F4
100
AcDbEntity
  8
DV2_Default
  6
Continuous
 62
     7
 48
25.4
100
AcDbLine
 10
332.8928945234
 20
265.8348038551
 30
0.0
 11
332.8928945234
 21
265.1948038551
 31
0.0
  0
LINE
  5
2E3
330
1F4
100
AcDbEntity
  8
DV2_Default
  6
Continuous
 62
     7
 48
25.4
100
AcDbLine
 10
332.6528945234
 20
265.8348038551
 30
0.0
 11
332.8928945234
 21
265.8348038551
 31
0.0
  0
LINE
  5
2E4
330
1F4
100
AcDbEntity
  8
DV2_Default
  6
Continuous
 62
     7
 48
25.4
100
AcDbLine
 10
332.6528945234
 20
265.5948038551
 30
0.0
 11
332.6528945234
 21
265.8348038551
 31
0.0
  0
LINE
  5
2E5
330
1F4
100
AcDbEntity
  8
DV2_Default
  6
Continuous
 62
     7
 48
25.4
100
AcDbLine
 10
332.4928945234
 20
265.5948038551
 30
0.0
 11
332.6528945234
 21
265.5948038551
 31
0.0
  0
LINE
  5
2E6
330
1F4
100
AcDbEntity
  8
DV2_Default
  6
Continuous
 62
     7
 48
25.4
100
AcDbLine
 10
331.8528945234
 20
265.5948038551
 30
0.0
 11
332.0128945234
 21
265.5948038551
 31
0.0
  0
LINE
  5
2E7
330
1F4
100
AcDbEntity
  8
DV2_Default
  6
Continuous
 62
     7
 48
25.4
100
AcDbLine
 10
331.8528945234
 20
265.8348038551
 30
0.0
 11
331.8528945234
 21
265.5948038551
 31
0.0
  0
LINE
  5
2E8
330
1F4
100
AcDbEntity
  8
DV2_Default
  6
Continuous
 62
     7
 48
25.4
100
AcDbLine
 10
330.8128945234
 20
265.8348038551
 30
0.0
 11
331.8528945234
 21
265.8348038551
 31
0.0
  0
LINE
  5
2E9
330
1F4
100
AcDbEntity
  8
DV2_Default
  6
Continuous
 62
     7
 48
25.4
100
AcDbLine
 10
330.8128945234
 20
267.0348038551
 30
0.0
 11
330.8128945234
 21
265.8348038551
 31
0.0
  0
LINE
  5
2EA
330
1F4
100
AcDbEntity
  8
DV2_Default
  6
Continuous
 62
     7
 48
25.4
100
AcDbLine
 10
330.5728945234
 20
267.0348038551
 30
0.0
 11
330.8128945234
 21
267.0348038551
 31
0.0
  0
LINE
  5
2EB
330
1F4
100
AcDbEntity
  8
DV2_Default
  6
Continuous
 62
     7
 48
25.4
100
AcDbLine
 10
330.5728945234
 20
266.7948038551
 30
0.0
 11
330.5728945234
 21
267.0348038551
 31
0.0
  0
LINE
  5
2EC
330
1F4
100
AcDbEntity
  8
DV2_Default
  6
Continuous
 62
     7
 48
25.4
100
AcDbLine
 10
330.4128945234
 20
266.7948038551
 30
0.0
 11
330.5728945234
 21
266.7948038551
 31
0.0
  0
LINE
  5
2ED
330
1F4
100
AcDbEntity
  8
DV2_Default
  6
Continuous
 62
     7
 48
25.4
100
AcDbLine
 10
329.7728945234
 20
266.7948038551
 30
0.0
 11
329.9328945234
 21
266.7948038551
 31
0.0
  0
LINE
  5
2EE
330
1F4
100
AcDbEntity
  8
DV2_Default
  6
Continuous
 62
     7
 48
25.4
100
AcDbLine
 10
329.7728945234
 20
267.0348038551
 30
0.0
 11
329.7728945234
 21
266.7948038551
 31
0.0
  0
LINE
  5
2EF
330
1F4
100
AcDbEntity
  8
DV2_Default
  6
Continuous
 62
     7
 48
25.4
100
AcDbLine
 10
329.5328945234
 20
267.0348038551
 30
0.0
 11
329.7728945234
 21
267.0348038551
 31
0.0
  0
LINE
  5
2F0
330
1F4
100
AcDbEntity
  8
DV2_Default
  6
Continuous
 62
     7
 48
25.4
100
AcDbLine
 10
329.5328945234
 20
266.3948038551
 30
0.0
 11
329.5328945234
 21
267.0348038551
 31
0.0
  0
LINE
  5
2F1
330
1F4
100
AcDbEntity
  8
DV2_Default
  6
Continuous
 62
     7
 48
25.4
100
AcDbLine
 10
329.6528945234
 20
266.3948038551
 30
0.0
 11
329.5328945234
 21
266.3948038551
 31
0.0
  0
LINE
  5
2F2
330
1F4
100
AcDbEntity
  8
DV2_Default
  6
Continuous
 62
     7
 48
25.4
100
AcDbLine
 10
329.6528945234
 20
266.1655218228
 30
0.0
 11
329.6528945234
 21
266.3948038551
 31
0.0
  0
LINE
  5
2F3
330
1F4
100
AcDbEntity
  8
DV2_Default
  6
Continuous
 62
     7
 48
25.4
100
AcDbLine
 10
330.6528945234
 20
265.5881715536
 30
0.0
 11
329.6528945234
 21
266.1655218228
 31
0.0
  0
LINE
  5
2F4
330
1F4
100
AcDbEntity
  8
DV2_Default
  6
Continuous
 62
     7
 48
25.4
100
AcDbLine
 10
330.6528945234
 20
263.2748038551
 30
0.0
 11
330.6528945234
 21
265.5881715536
 31
0.0
  0
LINE
  5
2F5
330
1F4
100
AcDbEntity
  8
DV2_Default
  6
Continuous
 62
     7
 48
25.4
100
AcDbLine
 10
330.1728945234
 20
263.2748038551
 30
0.0
 11
330.6528945234
 21
263.2748038551
 31
0.0
  0
LINE
  5
2F6
330
1F4
100
AcDbEntity
  8
DV2_Default
  6
Continuous
 62
     7
 48
25.4
100
AcDbLine
 10
330.1728945234
 20
263.0348038551
 30
0.0
 11
330.1728945234
 21
263.2748038551
 31
0.0
  0
LINE
  5
2F7
330
1F4
100
AcDbEntity
  8
DV2_Default
  6
Continuous
 62
     7
 48
25.4
100
AcDbLine
 10
332.1728945234
 20
263.2748038551
 30
0.0
 11
332.1728945234
 21
263.0348038551
 31
0.0
  0
LINE
  5
2F8
330
1F4
100
AcDbEntity
  8
DV2_Default
  6
Continuous
 62
     7
 48
25.4
100
AcDbLine
 10
332.0128945234
 20
265.8348038551
 30
0.0
 11
332.0128945234
 21
265.3548038551
 31
0.0
  0
LINE
  5
2F9
330
1F4
100
AcDbEntity
  8
DV2_Default
  6
Continuous
 62
     7
 48
25.4
100
AcDbLine
 10
332.0128945234
 20
265.3548038551
 30
0.0
 11
332.4928945234
 21
265.3548038551
 31
0.0
  0
LINE
  5
2FA
330
1F4
100
AcDbEntity
  8
DV2_Default
  6
Continuous
 62
     7
 48
25.4
100
AcDbLine
 10
332.4928945234
 20
265.3548038551
 30
0.0
 11
332.4928945234
 21
265.8348038551
 31
0.0
  0
LINE
  5
2FB
330
1F4
100
AcDbEntity
  8
DV2_Default
  6
Continuous
 62
     7
 48
25.4
100
AcDbLine
 10
330.4128945234
 20
266.5548038551
 30
0.0
 11
330.4128945234
 21
267.0348038551
 31
0.0
  0
LINE
  5
2FC
330
1F4
100
AcDbEntity
  8
DV2_Default
  6
Continuous
 62
     7
 48
25.4
100
AcDbLine
 10
330.4128945234
 20
267.0348038551
 30
0.0
 11
329.9328945234
 21
267.0348038551
 31
0.0
  0
LINE
  5
2FD
330
1F4
100
AcDbEntity
  8
DV2_Default
  6
Continuous
 62
     7
 48
25.4
100
AcDbLine
 10
329.9328945234
 20
267.0348038551
 30
0.0
 11
329.9328945234
 21
266.5548038551
 31
0.0
  0
LINE
  5
2FE
330
1F4
100
AcDbEntity
  8
DV2_Default
  6
Continuous
 62
     7
 48
25.4
100
AcDbLine
 10
329.9328945234
 20
266.5548038551
 30
0.0
 11
330.4128945234
 21
266.5548038551
 31
0.0
  0
LINE
  5
2FF
330
1F4
100
AcDbEntity
  8
DV2_Default
  6
Continuous
 62
     7
 48
25.4
100
AcDbLine
 10
332.5535672155
 20
263.0348038551
 30
0.0
 11
332.5535672155
 21
262.8748038551
 31
0.0
  0
LINE
  5
300
330
1F4
100
AcDbEntity
  8
DV2_Default
  6
Continuous
 62
     7
 48
25.4
100
AcDbLine
 10
332.0128945234
 20
265.8348038551
 30
0.0
 11
332.4928945234
 21
265.8348038551
 31
0.0
  0
ENDBLK
  5
302
330
1F4
100
AcDbEntity
  8
0
100
AcDbBlockEnd
  0
ENDSEC
  0
SECTION
  2
ENTITIES
  0
TEXT
  5
2B
330
1F
100
AcDbEntity
  8
Default
  6
Continuous
 62
     7
 48
25.4
100
AcDbText
 10
407.9394958221
 20
3.3526996904
 30
0.0
 40
2.5
  1
2/2
  7
SEACAD_arial_ttf
 11
407.9394958221
 21
5.8526996904
 31
0.0
100
AcDbText
 73
     3
  0
TEXT
  5
2D
330
1F
100
AcDbEntity
  8
Default
  6
Continuous
 62
     7
 48
25.4
100
AcDbText
 10
90.4190295825
 20
18.1838611999
 30
0.0
 40
2.5
  1
29.1.2012
  7
SEACAD_arial_ttf
 11
90.4190295825
 21
20.6838611999
 31
0.0
100
AcDbText
 73
     3
  0
TEXT
  5
2E
330
1F
100
AcDbEntity
  8
Default
  6
Continuous
 62
     7
 48
25.4
100
AcDbText
 10
118.1192471591
 20
14.1261524937
 30
0.0
 40
2.5
  1
Application For TYZG
  7
SEACAD_arial_ttf
 11
118.1192471591
 21
16.6261524937
 31
0.0
100
AcDbText
 73
     3
  0
TEXT
  5
2F
330
1F
100
AcDbEntity
  8
Default
  6
Continuous
 62
     7
 48
25.4
100
AcDbText
 10
217.5120287766
 20
18.3830178426
 30
0.0
 40
3.0
  1
SINAMICS S120 CABINET MODULE
  7
SEACAD_arial_ttf
 11
217.5120287766
 21
21.3830178426
 31
0.0
100
AcDbText
 73
     3
  0
LINE
  5
30
330
1F
100
AcDbEntity
  8
Default
  6
Continuous
 62
     7
 48
25.4
100
AcDbLine
 10
2.3536943585
 20
2.3387260724
 30
0.0
 11
2.3536943585
 21
295.367936872
 31
0.0
  0
LINE
  5
31
330
1F
100
AcDbEntity
  8
Default
  6
Continuous
 62
     7
 48
25.4
100
AcDbLine
 10
2.3536943585
 20
295.367936872
 30
0.0
 11
17.4053206374
 21
295.367936872
 31
0.0
  0
LINE
  5
32
330
1F
100
AcDbEntity
  8
Default
  6
Continuous
 62
     7
 48
25.4
100
AcDbLine
 10
17.4053206374
 20
295.367936872
 30
0.0
 11
17.4053206374
 21
2.2887719549
 31
0.0
  0
LINE
  5
33
330
1F
100
AcDbEntity
  8
Default
  6
Continuous
 62
     7
 48
25.4
100
AcDbLine
 10
2.3536943585
 20
22.3780312544
 30
0.0
 11
418.371481467
 21
22.3780312544
 31
0.0
  0
LINE
  5
34
330
1F
100
AcDbEntity
  8
Default
  6
Continuous
 62
     7
 48
25.4
100
AcDbLine
 10
2.3536943585
 20
2.3387260724
 30
0.0
 11
418.3815859796
 21
2.3387260724
 31
0.0
  0
LINE
  5
35
330
1F
100
AcDbEntity
  8
Default
  6
Continuous
 62
     7
 48
25.4
100
AcDbLine
 10
418.3815859796
 20
2.3387260724
 30
0.0
 11
418.3815859796
 21
12.3583786634
 31
0.0
  0
LINE
  5
36
330
1F
100
AcDbEntity
  8
Default
  6
Continuous
 62
     7
 48
25.4
100
AcDbLine
 10
2.3536943585
 20
17.4292010885
 30
0.0
 11
113.5726390539
 21
17.4292010885
 31
0.0
  0
LINE
  5
37
330
1F
100
AcDbEntity
  8
Default
  6
Continuous
 62
     7
 48
25.4
100
AcDbLine
 10
2.3536943585
 20
12.3448305674
 30
0.0
 11
113.5726390539
 21
12.3448305674
 31
0.0
  0
LINE
  5
38
330
1F
100
AcDbEntity
  8
Default
  6
Continuous
 62
     7
 48
25.4
100
AcDbLine
 10
2.3536943585
 20
7.3978754658
 30
0.0
 11
175.5469932439
 21
7.3978754658
 31
0.0
  0
LINE
  5
39
330
1F
100
AcDbEntity
  8
Default
  6
Continuous
 62
     7
 48
25.4
100
AcDbLine
 10
35.5206807835
 20
22.3780312544
 30
0.0
 11
35.5206807835
 21
2.3387260724
 31
0.0
  0
LINE
  5
3A
330
1F
100
AcDbEntity
  8
Default
  6
Continuous
 62
     7
 48
25.4
100
AcDbLine
 10
50.4989615079
 20
22.3780312544
 30
0.0
 11
50.4989615079
 21
2.3387260724
 31
0.0
  0
LINE
  5
3B
330
1F
100
AcDbEntity
  8
Default
  6
Continuous
 62
     7
 48
25.4
100
AcDbLine
 10
68.5003814611
 20
22.3780312544
 30
0.0
 11
68.5003814611
 21
2.3387260724
 31
0.0
  0
LINE
  5
3C
330
1F
100
AcDbEntity
  8
Default
  6
Continuous
 62
     7
 48
25.4
100
AcDbLine
 10
88.4256172872
 20
22.3780312544
 30
0.0
 11
88.4256172872
 21
2.3387260724
 31
0.0
  0
LINE
  5
3D
330
1F
100
AcDbEntity
  8
Default
  6
Continuous
 62
     7
 48
25.4
100
AcDbLine
 10
113.5726390539
 20
22.3780312544
 30
0.0
 11
113.5726390539
 21
2.3387260724
 31
0.0
  0
LINE
  5
3E
330
1F
100
AcDbEntity
  8
Default
  6
Continuous
 62
     7
 48
25.4
100
AcDbLine
 10
175.5469932439
 20
22.3780312544
 30
0.0
 11
175.5469932439
 21
2.3387260724
 31
0.0
  0
LINE
  5
3F
330
1F
100
AcDbEntity
  8
Default
  6
Continuous
 62
     7
 48
25.4
100
AcDbLine
 10
216.3702623422
 20
22.4041345787
 30
0.0
 11
216.3702623422
 21
2.3648293968
 31
0.0
  0
LINE
  5
40
330
1F
100
AcDbEntity
  8
Default
  6
Continuous
 62
     7
 48
25.4
100
AcDbLine
 10
292.4154591913
 20
22.3780312544
 30
0.0
 11
292.4154591913
 21
2.3387260724
 31
0.0
  0
LINE
  5
41
330
1F
100
AcDbEntity
  8
Default
  6
Continuous
 62
     7
 48
25.4
100
AcDbLine
 10
216.4224689909
 20
17.3825266233
 30
0.0
 11
292.3893558669
 21
17.3825266233
 31
0.0
  0
LINE
  5
42
330
1F
100
AcDbEntity
  8
Default
  6
Continuous
 62
     7
 48
25.4
100
AcDbLine
 10
292.4154591913
 20
12.3583786634
 30
0.0
 11
418.3815859796
 21
12.3583786634
 31
0.0
  0
LINE
  5
43
330
1F
100
AcDbEntity
  8
Default
  6
Continuous
 62
     7
 48
25.4
100
AcDbLine
 10
342.5002991328
 20
12.3583786634
 30
0.0
 11
342.5002991328
 21
2.3387260724
 31
0.0
  0
LINE
  5
44
330
1F
100
AcDbEntity
  8
Default
  6
Continuous
 62
     7
 48
25.4
100
AcDbLine
 10
403.3535220173
 20
12.3878624211
 30
0.0
 11
403.3535220173
 21
2.3682098301
 31
0.0
  0
LINE
  5
45
330
1F
100
AcDbEntity
  8
Default
  6
Continuous
 62
     7
 48
25.4
100
AcDbLine
 10
403.5304245632
 20
7.3485523679
 30
0.0
 11
418.3815859796
 21
7.3485523679
 31
0.0
  0
LINE
  5
46
330
1F
100
AcDbEntity
  8
Default
  6
Continuous
 62
     7
 48
25.4
100
AcDbLine
 10
373.5279709943
 20
12.3583786634
 30
0.0
 11
373.5279709943
 21
295.367936872
 31
0.0
  0
LINE
  5
47
330
1F
100
AcDbEntity
  8
Default
  6
Continuous
 62
     7
 48
25.4
100
AcDbLine
 10
418.3815859796
 20
12.3583786634
 30
0.0
 11
418.0961795111
 21
295.367936872
 31
0.0
  0
LINE
  5
48
330
1F
100
AcDbEntity
  8
Default
  6
Continuous
 62
     7
 48
25.4
100
AcDbLine
 10
373.5279709943
 20
17.3682049589
 30
0.0
 11
418.3765337233
 21
17.3682049589
 31
0.0
  0
LINE
  5
49
330
1F
100
AcDbEntity
  8
Default
  6
Continuous
 62
     7
 48
25.4
100
AcDbLine
 10
12.418550464
 20
22.3780312544
 30
0.0
 11
12.418550464
 21
295.367936872
 31
0.0
  0
TEXT
  5
4A
330
1F
100
AcDbEntity
  8
Default
  6
Continuous
 62
     7
 48
25.4
100
AcDbText
 10
6.6602987402
 20
23.7385837931
 30
0.0
 40
2.0
  1
Copyright (C) Siemens AG 2003
 50
90.0
  7
SEACAD_arial_ttf
 11
4.6602987402
 21
23.7385837931
 31
0.0
100
AcDbText
 73
     3
  0
TEXT
  5
4B
330
1F
100
AcDbEntity
  8
Default
  6
Continuous
 62
     7
 48
25.4
100
AcDbText
 10
10.0789921876
 20
23.7303593051
 30
0.0
 40
2.0
  1
Conveyed confidentially.all rights reserved
 50
90.0
  7
SEACAD_arial_ttf
 11
8.0789921876
 21
23.7303593051
 31
0.0
100
AcDbText
 73
     3
  0
TEXT
  5
4C
330
1F
100
AcDbEntity
  8
Default
  6
Continuous
 62
     7
 48
25.4
100
AcDbText
 10
15.9396095261
 20
23.6409068374
 30
0.0
 40
2.0
  1
Conveyed confidentially.All rights reserved.
 50
90.0
  7
SEACAD_arial_ttf
 11
13.9396095261
 21
23.6409068374
 31
0.0
100
AcDbText
 73
     3
  0
LINE
  5
4D
330
1F
100
AcDbEntity
  8
Default
  6
Continuous
 62
     7
 48
25.4
100
AcDbLine
 10
0.4793737452
 20
0.4225853018
 30
0.0
 11
0.4793737452
 21
297.3663504591
 31
0.0
  0
LINE
  5
4E
330
1F
100
AcDbEntity
  8
Default
  6
Continuous
 62
     7
 48
25.4
100
AcDbLine
 10
0.4793737452
 20
297.3663504591
 30
0.0
 11
420.3758465262
 21
297.3663504591
 31
0.0
  0
LINE
  5
4F
330
1F
100
AcDbEntity
  8
Default
  6
Continuous
 62
     7
 48
25.4
100
AcDbLine
 10
420.3758465262
 20
297.3663504591
 30
0.0
 11
420.3758465262
 21
0.3705419091
 31
0.0
  0
LINE
  5
50
330
1F
100
AcDbEntity
  8
Default
  6
Continuous
 62
     7
 48
25.4
100
AcDbLine
 10
420.3758465262
 20
0.3705419091
 30
0.0
 11
0.4793737452
 21
0.4225853018
 31
0.0
  0
TEXT
  5
51
330
1F
100
AcDbEntity
  8
Default
  6
Continuous
 62
     7
 48
25.4
100
AcDbText
 10
69.912281739
 20
18.9416439795
 30
0.0
 40
2.0
  1
Date
  7
SEACAD_arial_ttf
 11
69.912281739
 21
20.9416439795
 31
0.0
100
AcDbText
 73
     3
  0
TEXT
  5
52
330
1F
100
AcDbEntity
  8
Default
  6
Continuous
 62
     7
 48
25.4
100
AcDbText
 10
69.912281739
 20
14.1598352189
 30
0.0
 40
2.0
  1
Drawn
  7
SEACAD_arial_ttf
 11
69.912281739
 21
16.1598352189
 31
0.0
100
AcDbText
 73
     3
  0
TEXT
  5
53
330
1F
100
AcDbEntity
  8
Default
  6
Continuous
 62
     7
 48
25.4
100
AcDbText
 10
69.8454032948
 20
9.0436342373
 30
0.0
 40
2.0
  1
Appr.
  7
SEACAD_arial_ttf
 11
69.8454032948
 21
11.0436342373
 31
0.0
100
AcDbText
 73
     3
  0
TEXT
  5
54
330
1F
100
AcDbEntity
  8
Default
  6
Continuous
 62
     7
 48
25.4
100
AcDbText
 10
69.7450856285
 20
4.2283862547
 30
0.0
 40
2.0
  1
Norm
  7
SEACAD_arial_ttf
 11
69.7450856285
 21
6.2283862547
 31
0.0
100
AcDbText
 73
     3
  0
TEXT
  5
55
330
1F
100
AcDbEntity
  8
Default
  6
Continuous
 62
     7
 48
25.4
100
AcDbText
 10
3.8210633952
 20
4.2761519369
 30
0.0
 40
2.0
  1
Rev.
  7
SEACAD_arial_ttf
 11
3.8210633952
 21
6.2761519369
 31
0.0
100
AcDbText
 73
     3
  0
TEXT
  5
56
330
1F
100
AcDbEntity
  8
Default
  6
Continuous
 62
     7
 48
25.4
100
AcDbText
 10
18.7650288667
 20
4.1917227534
 30
0.0
 40
2.0
  1
Remarks
  7
SEACAD_arial_ttf
 11
18.7650288667
 21
6.1917227534
 31
0.0
100
AcDbText
 73
     3
  0
TEXT
  5
57
330
1F
100
AcDbEntity
  8
Default
  6
Continuous
 62
     7
 48
25.4
100
AcDbText
 10
36.8328741261
 20
4.1917227534
 30
0.0
 40
2.0
  1
Date
  7
SEACAD_arial_ttf
 11
36.8328741261
 21
6.1917227534
 31
0.0
100
AcDbText
 73
     3
  0
TEXT
  5
58
330
1F
100
AcDbEntity
  8
Default
  6
Continuous
 62
     7
 48
25.4
100
AcDbText
 10
52.030127148
 20
4.1917227534
 30
0.0
 40
2.0
  1
Name
  7
SEACAD_arial_ttf
 11
52.030127148
 21
6.1917227534
 31
0.0
100
AcDbText
 73
     3
  0
TEXT
  5
59
330
1F
100
AcDbEntity
  8
Default
  6
Continuous
 62
     7
 48
25.4
100
AcDbText
 10
90.5813700774
 20
13.3136463535
 30
0.0
 40
2.5
  1
System
  7
SEACAD_arial_ttf
 11
90.5813700774
 21
15.8136463535
 31
0.0
100
AcDbText
 73
     3
  0
TEXT
  5
5A
330
1F
100
AcDbEntity
  8
Default
  6
Continuous
 62
     7
 48
25.4
100
AcDbText
 10
183.6853206882
 20
15.244196752
 30
0.0
 40
3.0
  1
SIEMENS AG
  7
SEACAD_arial_ttf
 11
183.6853206882
 21
18.244196752
 31
0.0
100
AcDbText
 73
     3
  0
TEXT
  5
5B
330
1F
100
AcDbEntity
  8
Default
  6
Continuous
 62
     7
 48
25.4
100
AcDbText
 10
189.6301394906
 20
10.2558947492
 30
0.0
 40
2.0
  1
IDT WNV
  7
SEACAD_arial_ttf
 11
189.6301394906
 21
12.2558947492
 31
0.0
100
AcDbText
 73
     3
  0
TEXT
  5
5C
330
1F
100
AcDbEntity
  8
Default
  6
Continuous
 62
     7
 48
25.4
100
AcDbText
 10
187.416643128
 20
5.828902024
 30
0.0
 40
2.0
  1
Nuernberg Vo
  7
SEACAD_arial_ttf
 11
187.416643128
 21
7.828902024
 31
0.0
100
AcDbText
 73
     3
  0
TEXT
  5
5D
330
1F
100
AcDbEntity
  8
Default
  6
Continuous
 62
     7
 48
25.4
100
AcDbText
 10
89.5077798026
 20
3.6769379787
 30
0.0
 40
2.0
  1
s.ARTUS-Symbol
  7
SEACAD_arial_ttf
 11
89.5077798026
 21
5.6769379787
 31
0.0
100
AcDbText
 73
     3
  0
TEXT
  5
5E
330
1F
100
AcDbEntity
  8
Default
  6
Continuous
 62
     7
 48
25.4
100
AcDbText
 10
115.4064911783
 20
3.8800651267
 30
0.0
 40
2.0
  1
Orig./Repl.f./Repl.by
  7
SEACAD_arial_ttf
 11
115.4064911783
 21
5.8800651267
 31
0.0
100
AcDbText
 73
     3
  0
TEXT
  5
5F
330
1F
100
AcDbEntity
  8
Default
  6
Continuous
 62
     7
 48
25.4
100
AcDbText
 10
408.0914392165
 20
8.366831705
 30
0.0
 40
2.5
  1
Sh
  7
SEACAD_arial_ttf
 11
408.0914392165
 21
10.866831705
 31
0.0
100
AcDbText
 73
     3
  0
LINE
  5
60
330
1F
100
AcDbEntity
  8
Default
  6
Continuous
 62
     7
 48
25.4
100
AcDbLine
 10
373.5279709943
 20
295.367936872
 30
0.0
 11
418.0961795111
 21
295.367936872
 31
0.0
  0
TEXT
  5
61
330
1F
100
AcDbEntity
  8
Default
  6
Continuous
 62
     7
 48
25.4
100
AcDbText
 10
217.9234029594
 20
13.1037158306
 30
0.0
 40
3.0
  1
ZYC309673100006
  7
SEACAD_arial_ttf
 11
217.9234029594
 21
16.1037158306
 31
0.0
100
AcDbText
 73
     3
  0
TEXT
  5
62
330
1F
100
AcDbEntity
  8
Default
  6
Continuous
 62
     7
 48
25.4
100
AcDbText
 10
344.3656404126
 20
7.9585531314
 30
0.0
 40
2.5
  1
TL-AO-AA
  7
SEACAD_arial_ttf
 11
344.3656404126
 21
10.4585531314
 31
0.0
100
AcDbText
 73
     3
  0
TEXT
  5
63
330
1F
100
AcDbEntity
  8
Default
  6
Continuous
 62
     7
 48
25.4
100
AcDbText
 10
378.904133854
 20
54.6600294256
 30
0.0
 40
1.5
  1
ZYC309673100006
  7
SEACAD_arial_ttf
 11
378.904133854
 21
56.1600294256
 31
0.0
100
AcDbText
 73
     3
  0
TEXT
  5
64
330
1F
100
AcDbEntity
  8
Default
  6
Continuous
 62
     7
 48
25.4
100
AcDbText
 10
293.9273089735
 20
8.7421995238
 30
0.0
 40
2.5
  1
CE_APP
  7
SEACAD_arial_ttf
 11
293.9273089735
 21
11.2421995238
 31
0.0
100
AcDbText
 73
     3
  0
TEXT
  5
65
330
1F
100
AcDbEntity
  8
Default
  6
Continuous
 62
     7
 48
25.4
100
AcDbText
 10
378.9373415791
 20
52.5398338608
 30
0.0
 40
1.5
  1
CABINET_600-Z
  7
SEACAD_arial_ttf
 11
378.9373415791
 21
54.0398338608
 31
0.0
100
AcDbText
 73
     3
  0
TEXT
  5
66
330
1F
100
AcDbEntity
  8
Default
  6
Continuous
 62
     7
 48
25.4
100
AcDbText
 10
378.9771007073
 20
50.2978770505
 30
0.0
 40
1.5
  1
D02 M27 M84 Y11 Y33 X30
  7
SEACAD_arial_ttf
 11
378.9771007073
 21
51.7978770505
 31
0.0
100
AcDbText
 73
     3
  0
TEXT
  5
67
330
1F
100
AcDbEntity
  8
Default
  6
Continuous
 62
     7
 48
25.4
100
AcDbText
 10
301.4558824431
 20
257.2810435826
 30
0.0
 40
2.0
  1
DCN  DCP
  7
SEACAD_arial_ttf
 11
301.4558824431
 21
259.2810435826
 31
0.0
100
AcDbText
 73
     3
  0
TEXT
  5
68
330
1F
100
AcDbEntity
  8
Default
  6
Continuous
 62
     7
 48
25.4
100
AcDbText
 10
310.1482894525
 20
284.6895341527
 30
0.0
 40
2.0
  1
AC 690V
  7
SEACAD_arial_ttf
 11
310.1482894525
 21
286.6895341527
 31
0.0
100
AcDbText
 73
     3
  0
TEXT
  5
69
330
1F
100
AcDbEntity
  8
Default
  6
Continuous
 62
     7
 48
25.4
100
AcDbText
 10
316.5697072432
 20
281.0872753921
 30
0.0
 40
2.0
  1
L1 L2 L3
  7
SEACAD_arial_ttf
 11
316.5697072432
 21
283.0872753921
 31
0.0
100
AcDbText
 73
     3
  0
LINE
  5
6A
330
1F
100
AcDbEntity
  8
Default
  6
Continuous
 62
     7
 48
25.4
100
AcDbLine
 10
321.0307472477
 20
265.5787233028
 30
0.0
 11
317.7809740024
 21
280.6692545113
 31
0.0
  0
LINE
  5
6B
330
1F
100
AcDbEntity
  8
Default
  6
Continuous
 62
     7
 48
25.4
100
AcDbLine
 10
324.5728945234
 20
266.8335862391
 30
0.0
 11
322.6395458841
 21
280.6692545113
 31
0.0
  0
LINE
  5
6C
330
1F
100
AcDbEntity
  8
Default
  6
Continuous
 62
     7
 48
25.4
100
AcDbLine
 10
326.6615424748
 20
265.5948038551
 30
0.0
 11
327.3694138748
 21
280.6692545113
 31
0.0
  0
TEXT
  5
6D
330
1F
100
AcDbEntity
  8
Default
  6
Continuous
 62
     7
 48
25.4
100
AcDbText
 10
330.679036476
 20
284.731633365
 30
0.0
 40
2.0
  1
DC 24V
  7
SEACAD_arial_ttf
 11
330.679036476
 21
286.731633365
 31
0.0
100
AcDbText
 73
     3
  0
TEXT
  5
6E
330
1F
100
AcDbEntity
  8
Default
  6
Continuous
 62
     7
 48
25.4
100
AcDbText
 10
331.2623323334
 20
281.2135730289
 30
0.0
 40
2.0
  1
P24  M
  7
SEACAD_arial_ttf
 11
331.2623323334
 21
283.2135730289
 31
0.0
100
AcDbText
 73
     3
  0
LINE
  5
6F
330
1F
100
AcDbEntity
  8
Default
  6
Continuous
 62
     7
 48
25.4
100
AcDbLine
 10
330.1796267356
 20
266.7735665607
 30
0.0
 11
333.4103514716
 21
280.7060669845
 31
0.0
  0
LINE
  5
70
330
1F
100
AcDbEntity
  8
Default
  6
Continuous
 62
     7
 48
25.4
100
AcDbLine
 10
332.2528945234
 20
265.5872848217
 30
0.0
 11
339.3670002035
 21
280.7060669845
 31
0.0
  0
INSERT
  5
72
330
1F
100
AcDbEntity
  8
Default
100
AcDbBlockReference
  2
SE
 10
0.0
 20
0.0
 30
0.0
  0
LWPOLYLINE
  5
1F3
330
1F
100
AcDbEntity
  8
Default
  6
CENTER2
 62
     7
 48
25.4
100
AcDbPolyline
 90
        5
 70
     0
 43
0.0
 10
291.9197745737
 20
260.0408457357
 10
291.9197745737
 20
279.5385133501
 10
350.5728945234
 20
279.5385133501
 10
350.5728945234
 20
260.0408457357
 10
291.9197745737
 20
260.0408457357
  0
INSERT
  5
1F5
330
1F
100
AcDbEntity
  8
Default
100
AcDbBlockReference
  2
SE1
 10
0.0
 20
0.0
 30
0.0
  0
ENDSEC
  0
SECTION
  2
OBJECTS
  0
DICTIONARY
  5
C
330
0
100
AcDbDictionary
281
     1
  3
ACAD_GROUP
350
D
  3
ACAD_LAYOUT
350
1A
  3
ACAD_MLINESTYLE
350
17
  3
ACAD_PLOTSETTINGS
350
19
  3
ACAD_PLOTSTYLENAME
350
E
  0
DICTIONARY
  5
D
102
{ACAD_REACTORS
330
C
102
}
330
C
100
AcDbDictionary
281
     1
  0
DICTIONARY
  5
1A
102
{ACAD_REACTORS
330
C
102
}
330
C
100
AcDbDictionary
281
     1
  3
Layout1
350
1E
  3
Model
350
22
  0
DICTIONARY
  5
17
102
{ACAD_REACTORS
330
C
102
}
330
C
100
AcDbDictionary
281
     1
  3
Standard
350
18
  0
DICTIONARY
  5
19
102
{ACAD_REACTORS
330
C
102
}
330
C
100
AcDbDictionary
281
     1
  0
ACDBDICTIONARYWDFLT
  5
E
102
{ACAD_REACTORS
330
C
102
}
330
C
100
AcDbDictionary
281
     1
  3
Normal
350
F
100
AcDbDictionaryWithDefault
340
F
  0
LAYOUT
  5
1E
102
{ACAD_REACTORS
330
1A
102
}
330
1A
100
AcDbPlotSettings
  1

  2

  4

  6

 40
0.0
 41
0.0
 42
0.0
 43
0.0
 44
0.0
 45
0.0
 46
0.0
 47
0.0
 48
0.0
 49
0.0
140
0.0
141
0.0
142
1.0
143
1.0
 70
   688
 72
     0
 73
     0
 74
     5
  7

 75
    16
147
1.0
148
0.0
149
0.0
100
AcDbLayout
  1
Layout1
 70
     1
 71
     1
 10
0.0
 20
0.0
 11
420.0
 21
297.0
 12
0.0
 22
0.0
 32
0.0
 14
0.0
 24
0.0
 34
0.0
 15
420.0
 25
297.0
 35
0.0
146
0.0
 13
0.0
 23
0.0
 33
0.0
 16
1.0
 26
0.0
 36
0.0
 17
0.0
 27
1.0
 37
0.0
 76
     0
330
1B
  0
LAYOUT
  5
22
102
{ACAD_REACTORS
330
1A
102
}
330
1A
100
AcDbPlotSettings
  1

  2

  4

  6

 40
0.0
 41
0.0
 42
0.0
 43
0.0
 44
0.0
 45
0.0
 46
0.0
 47
0.0
 48
0.0
 49
0.0
140
0.0
141
0.0
142
1.0
143
1.0
 70
  1712
 72
     0
 73
     0
 74
     0
  7

 75
     0
147
1.0
148
0.0
149
0.0
100
AcDbLayout
  1
Model
 70
     1
 71
     0
 10
0.0
 20
0.0
 11
420.0
 21
297.0
 12
0.0
 22
0.0
 32
0.0
 14
0.0
 24
0.0
 34
0.0
 15
420.0
 25
297.0
 35
0.0
146
0.0
 13
0.0
 23
0.0
 33
0.0
 16
1.0
 26
0.0
 36
0.0
 17
0.0
 27
1.0
 37
0.0
 76
     0
330
1F
  0
MLINESTYLE
  5
18
102
{ACAD_REACTORS
330
17
102
}
330
17
100
AcDbMlineStyle
  2
Standard
 70
     0
  3

 62
   256
 51
90.0
 52
90.0
 71
     2
 49
0.5
 62
   256
  6
BYLAYER
 49
-0.5
 62
   256
  6
BYLAYER
  0
ACDBPLACEHOLDER
  5
F
102
{ACAD_REACTORS
330
E
102
}
330
E
  0
ENDSEC
  0
EOF
